<svg xmlns="http://www.w3.org/2000/svg" viewBox="0 0 896.0 440.0" width="896.0" height="440.0"><rect width="896.0" height="440.0" fill="#efe7d4"/><svg x="0.0" y="0.0" width="700.0" height="440.0" viewBox="0 0 700.0 440.0"><rect width="700.0" height="440.0" fill="#faf6ec"/><line x1="48" y1="387.5" x2="686" y2="387.5" stroke="#eadfc4" stroke-width="1" stroke-linecap="butt"/><text x="38" y="391" fill="#8c7d5f" font-size="10" text-anchor="end" font-family="'IBM Plex Mono', ui-monospace, monospace">10.0</text><line x1="48" y1="296.27" x2="686" y2="296.27" stroke="#eadfc4" stroke-width="1" stroke-linecap="butt"/><text x="38" y="299.77" fill="#8c7d5f" font-size="10" text-anchor="end" font-family="'IBM Plex Mono', ui-monospace, monospace">12.0</text><line x1="48" y1="205.04" x2="686" y2="205.04" stroke="#eadfc4" stroke-width="1" stroke-linecap="butt"/><text x="38" y="208.54" fill="#8c7d5f" font-size="10" text-anchor="end" font-family="'IBM Plex Mono', ui-monospace, monospace">14.0</text><line x1="48" y1="113.81" x2="686" y2="113.81" stroke="#eadfc4" stroke-width="1" stroke-linecap="butt"/><text x="38" y="117.31" fill="#8c7d5f" font-size="10" text-anchor="end" font-family="'IBM Plex Mono', ui-monospace, monospace">16.0</text><line x1="48" y1="22.59" x2="686" y2="22.59" stroke="#eadfc4" stroke-width="1" stroke-linecap="butt"/><text x="38" y="26.09" fill="#8c7d5f" font-size="10" text-anchor="end" font-family="'IBM Plex Mono', ui-monospace, monospace">18.0</text><text x="48" y="434" fill="#8c7d5f" font-size="10" text-anchor="middle" font-family="'Source Serif 4', Georgia, serif">Jan &apos;26</text><text x="206.43" y="434" fill="#8c7d5f" font-size="10" text-anchor="middle" font-family="'Source Serif 4', Georgia, serif">Mar &apos;26</text><text x="364.86" y="434" fill="#8c7d5f" font-size="10" text-anchor="middle" font-family="'Source Serif 4', Georgia, serif">May &apos;26</text><text x="527.57" y="434" fill="#8c7d5f" font-size="10" text-anchor="middle" font-family="'Source Serif 4', Georgia, serif">Jul &apos;26</text><text x="686" y="434" fill="#8c7d5f" font-size="10" text-anchor="middle" font-family="'Source Serif 4', Georgia, serif">Sep &apos;26</text><line x1="48" y1="108.72" x2="48" y2="165.15" stroke="#3c6b4c" stroke-width="1.0" opacity="0.85" stroke-linecap="butt"/><rect x="46.8" y="132.34" width="2.4" height="31.5" fill="#3c6b4c" rx="0.6"/><line x1="52.28" y1="106.97" x2="52.28" y2="141.09" stroke="#3c6b4c" stroke-width="1.0" opacity="0.85" stroke-linecap="butt"/><rect x="51.08" y="114.84" width="2.4" height="17.06" fill="#3c6b4c" rx="0.6"/><line x1="56.56" y1="93.84" x2="56.56" y2="144.15" stroke="#3c6b4c" stroke-width="1.0" opacity="0.85" stroke-linecap="butt"/><rect x="55.36" y="106.97" width="2.4" height="28" fill="#3c6b4c" rx="0.6"/><line x1="60.85" y1="76.78" x2="60.85" y2="110.9" stroke="#3c6b4c" stroke-width="1.0" opacity="0.85" stroke-linecap="butt"/><rect x="59.65" y="79.84" width="2.4" height="20.12" fill="#3c6b4c" rx="0.6"/><line x1="65.13" y1="76.78" x2="65.13" y2="99.09" stroke="#a3402c" stroke-width="1.0" opacity="0.85" stroke-linecap="butt"/><rect x="63.93" y="78.53" width="2.4" height="20.56" fill="#a3402c" rx="0.6"/><line x1="69.41" y1="91.22" x2="69.41" y2="121.84" stroke="#a3402c" stroke-width="1.0" opacity="0.85" stroke-linecap="butt"/><rect x="68.21" y="99.09" width="2.4" height="19.25" fill="#a3402c" rx="0.6"/><line x1="73.69" y1="103.9" x2="73.69" y2="131.9" stroke="#a3402c" stroke-width="1.0" opacity="0.85" stroke-linecap="butt"/><rect x="72.49" y="115.28" width="2.4" height="7" fill="#a3402c" rx="0.6"/><line x1="77.97" y1="89.47" x2="77.97" y2="116.15" stroke="#3c6b4c" stroke-width="1.0" opacity="0.85" stroke-linecap="butt"/><rect x="76.77" y="100.84" width="2.4" height="5.25" fill="#3c6b4c" rx="0.6"/><line x1="82.26" y1="93.84" x2="82.26" y2="108.72" stroke="#a3402c" stroke-width="1.0" opacity="0.85" stroke-linecap="butt"/><rect x="81.06" y="100.84" width="2.4" height="2.19" fill="#a3402c" rx="0.6"/><line x1="86.54" y1="84.66" x2="86.54" y2="115.28" stroke="#3c6b4c" stroke-width="1.0" opacity="0.85" stroke-linecap="butt"/><rect x="85.34" y="94.28" width="2.4" height="12.69" fill="#3c6b4c" rx="0.6"/><line x1="90.82" y1="48.35" x2="90.82" y2="94.28" stroke="#3c6b4c" stroke-width="1.0" opacity="0.85" stroke-linecap="butt"/><rect x="89.62" y="49.66" width="2.4" height="41.56" fill="#3c6b4c" rx="0.6"/><line x1="95.1" y1="47.03" x2="95.1" y2="66.28" stroke="#a3402c" stroke-width="1.0" opacity="0.85" stroke-linecap="butt"/><rect x="93.9" y="50.97" width="2.4" height="9.19" fill="#a3402c" rx="0.6"/><line x1="99.38" y1="52.72" x2="99.38" y2="75.47" stroke="#a3402c" stroke-width="1.0" opacity="0.85" stroke-linecap="butt"/><rect x="98.18" y="54.47" width="2.4" height="11.81" fill="#a3402c" rx="0.6"/><line x1="103.66" y1="61.47" x2="103.66" y2="76.78" stroke="#a3402c" stroke-width="1.0" opacity="0.85" stroke-linecap="butt"/><rect x="102.47" y="68.47" width="2.4" height="8.31" fill="#a3402c" rx="0.6"/><line x1="107.95" y1="54.91" x2="107.95" y2="82.47" stroke="#a3402c" stroke-width="1.0" opacity="0.85" stroke-linecap="butt"/><rect x="106.75" y="74.59" width="2.4" height="1.75" fill="#a3402c" rx="0.6"/><line x1="112.23" y1="70.66" x2="112.23" y2="127.53" stroke="#a3402c" stroke-width="1.0" opacity="0.85" stroke-linecap="butt"/><rect x="111.03" y="70.66" width="2.4" height="52.5" fill="#a3402c" rx="0.6"/><line x1="116.51" y1="107.84" x2="116.51" y2="132.78" stroke="#3c6b4c" stroke-width="1.0" opacity="0.85" stroke-linecap="butt"/><rect x="115.31" y="107.84" width="2.4" height="13.56" fill="#3c6b4c" rx="0.6"/><line x1="120.79" y1="79.41" x2="120.79" y2="104.34" stroke="#3c6b4c" stroke-width="1.0" opacity="0.85" stroke-linecap="butt"/><rect x="119.59" y="86.84" width="2.4" height="9.19" fill="#3c6b4c" rx="0.6"/><line x1="125.07" y1="77.22" x2="125.07" y2="95.59" stroke="#3c6b4c" stroke-width="1.0" opacity="0.85" stroke-linecap="butt"/><rect x="123.87" y="91.66" width="2.4" height="1.1" fill="#3c6b4c" rx="0.6"/><line x1="129.36" y1="82.91" x2="129.36" y2="111.78" stroke="#a3402c" stroke-width="1.0" opacity="0.85" stroke-linecap="butt"/><rect x="128.16" y="89.47" width="2.4" height="12.69" fill="#a3402c" rx="0.6"/><line x1="133.64" y1="85.97" x2="133.64" y2="110.03" stroke="#3c6b4c" stroke-width="1.0" opacity="0.85" stroke-linecap="butt"/><rect x="132.44" y="91.22" width="2.4" height="10.94" fill="#3c6b4c" rx="0.6"/><line x1="137.92" y1="76.78" x2="137.92" y2="118.34" stroke="#a3402c" stroke-width="1.0" opacity="0.85" stroke-linecap="butt"/><rect x="136.72" y="87.72" width="2.4" height="16.19" fill="#a3402c" rx="0.6"/><line x1="142.2" y1="133.65" x2="142.2" y2="161.65" stroke="#a3402c" stroke-width="1.0" opacity="0.85" stroke-linecap="butt"/><rect x="141" y="148.09" width="2.4" height="5.69" fill="#a3402c" rx="0.6"/><line x1="146.48" y1="149.84" x2="146.48" y2="195.77" stroke="#a3402c" stroke-width="1.0" opacity="0.85" stroke-linecap="butt"/><rect x="145.28" y="156.84" width="2.4" height="38.06" fill="#a3402c" rx="0.6"/><line x1="150.77" y1="178.71" x2="150.77" y2="201.9" stroke="#a3402c" stroke-width="1.0" opacity="0.85" stroke-linecap="butt"/><rect x="149.57" y="194.9" width="2.4" height="1.31" fill="#a3402c" rx="0.6"/><line x1="155.05" y1="176.52" x2="155.05" y2="192.27" stroke="#3c6b4c" stroke-width="1.0" opacity="0.85" stroke-linecap="butt"/><rect x="153.85" y="188.33" width="2.4" height="1.1" fill="#3c6b4c" rx="0.6"/><line x1="159.33" y1="185.71" x2="159.33" y2="227.71" stroke="#a3402c" stroke-width="1.0" opacity="0.85" stroke-linecap="butt"/><rect x="158.13" y="191.4" width="2.4" height="30.18" fill="#a3402c" rx="0.6"/><line x1="163.61" y1="225.08" x2="163.61" y2="261.39" stroke="#3c6b4c" stroke-width="1.0" opacity="0.85" stroke-linecap="butt"/><rect x="162.41" y="228.14" width="2.4" height="12.69" fill="#3c6b4c" rx="0.6"/><line x1="167.89" y1="191.4" x2="167.89" y2="217.64" stroke="#3c6b4c" stroke-width="1.0" opacity="0.85" stroke-linecap="butt"/><rect x="166.69" y="198.4" width="2.4" height="6.12" fill="#3c6b4c" rx="0.6"/><line x1="172.17" y1="198.4" x2="172.17" y2="218.08" stroke="#a3402c" stroke-width="1.0" opacity="0.85" stroke-linecap="butt"/><rect x="170.98" y="199.71" width="2.4" height="5.25" fill="#a3402c" rx="0.6"/><line x1="176.46" y1="188.33" x2="176.46" y2="216.77" stroke="#a3402c" stroke-width="1.0" opacity="0.85" stroke-linecap="butt"/><rect x="175.26" y="212.83" width="2.4" height="2.19" fill="#a3402c" rx="0.6"/><line x1="180.74" y1="215.46" x2="180.74" y2="242.14" stroke="#a3402c" stroke-width="1.0" opacity="0.85" stroke-linecap="butt"/><rect x="179.54" y="218.52" width="2.4" height="9.62" fill="#a3402c" rx="0.6"/><line x1="185.02" y1="222.89" x2="185.02" y2="234.7" stroke="#a3402c" stroke-width="1.0" opacity="0.85" stroke-linecap="butt"/><rect x="183.82" y="225.96" width="2.4" height="1.1" fill="#a3402c" rx="0.6"/><line x1="189.3" y1="209.77" x2="189.3" y2="225.52" stroke="#3c6b4c" stroke-width="1.0" opacity="0.85" stroke-linecap="butt"/><rect x="188.1" y="212.83" width="2.4" height="11.37" fill="#3c6b4c" rx="0.6"/><line x1="193.58" y1="207.58" x2="193.58" y2="227.71" stroke="#a3402c" stroke-width="1.0" opacity="0.85" stroke-linecap="butt"/><rect x="192.38" y="209.77" width="2.4" height="13.56" fill="#a3402c" rx="0.6"/><line x1="197.87" y1="222.46" x2="197.87" y2="233.39" stroke="#a3402c" stroke-width="1.0" opacity="0.85" stroke-linecap="butt"/><rect x="196.67" y="231.21" width="2.4" height="2.19" fill="#a3402c" rx="0.6"/><line x1="202.15" y1="233.39" x2="202.15" y2="278.89" stroke="#3c6b4c" stroke-width="1.0" opacity="0.85" stroke-linecap="butt"/><rect x="200.95" y="245.64" width="2.4" height="3.94" fill="#3c6b4c" rx="0.6"/><line x1="206.43" y1="242.58" x2="206.43" y2="263.14" stroke="#a3402c" stroke-width="1.0" opacity="0.85" stroke-linecap="butt"/><rect x="205.23" y="251.77" width="2.4" height="10.5" fill="#a3402c" rx="0.6"/><line x1="210.71" y1="246.08" x2="210.71" y2="259.64" stroke="#a3402c" stroke-width="1.0" opacity="0.85" stroke-linecap="butt"/><rect x="209.51" y="251.33" width="2.4" height="5.25" fill="#a3402c" rx="0.6"/><line x1="214.99" y1="252.64" x2="214.99" y2="269.7" stroke="#a3402c" stroke-width="1.0" opacity="0.85" stroke-linecap="butt"/><rect x="213.79" y="258.77" width="2.4" height="8.31" fill="#a3402c" rx="0.6"/><line x1="219.28" y1="260.08" x2="219.28" y2="277.14" stroke="#a3402c" stroke-width="1.0" opacity="0.85" stroke-linecap="butt"/><rect x="218.08" y="264.45" width="2.4" height="2.62" fill="#a3402c" rx="0.6"/><line x1="223.56" y1="264.45" x2="223.56" y2="278.45" stroke="#a3402c" stroke-width="1.0" opacity="0.85" stroke-linecap="butt"/><rect x="222.36" y="268.39" width="2.4" height="9.19" fill="#a3402c" rx="0.6"/><line x1="227.84" y1="263.14" x2="227.84" y2="275.39" stroke="#3c6b4c" stroke-width="1.0" opacity="0.85" stroke-linecap="butt"/><rect x="226.64" y="267.51" width="2.4" height="7.44" fill="#3c6b4c" rx="0.6"/><line x1="232.12" y1="236.52" x2="232.12" y2="254.31" stroke="#a3402c" stroke-width="1.0" opacity="0.85" stroke-linecap="butt"/><rect x="230.92" y="236.97" width="2.4" height="12.32" fill="#a3402c" rx="0.6"/><line x1="236.4" y1="241.54" x2="236.4" y2="263.43" stroke="#3c6b4c" stroke-width="1.0" opacity="0.85" stroke-linecap="butt"/><rect x="235.2" y="242.45" width="2.4" height="19.61" fill="#3c6b4c" rx="0.6"/><line x1="240.68" y1="235.15" x2="240.68" y2="247.92" stroke="#a3402c" stroke-width="1.0" opacity="0.85" stroke-linecap="butt"/><rect x="239.49" y="243.36" width="2.4" height="1.1" fill="#a3402c" rx="0.6"/><line x1="244.97" y1="226.48" x2="244.97" y2="243.36" stroke="#3c6b4c" stroke-width="1.0" opacity="0.85" stroke-linecap="butt"/><rect x="243.77" y="236.06" width="2.4" height="5.93" fill="#3c6b4c" rx="0.6"/><line x1="249.25" y1="231.96" x2="249.25" y2="248.83" stroke="#a3402c" stroke-width="1.0" opacity="0.85" stroke-linecap="butt"/><rect x="248.05" y="238.8" width="2.4" height="7.3" fill="#a3402c" rx="0.6"/><line x1="253.53" y1="187.25" x2="253.53" y2="210.06" stroke="#3c6b4c" stroke-width="1.0" opacity="0.85" stroke-linecap="butt"/><rect x="252.33" y="200.94" width="2.4" height="4.11" fill="#3c6b4c" rx="0.6"/><line x1="257.81" y1="188.17" x2="257.81" y2="207.78" stroke="#3c6b4c" stroke-width="1.0" opacity="0.85" stroke-linecap="butt"/><rect x="256.61" y="188.17" width="2.4" height="17.33" fill="#3c6b4c" rx="0.6"/><line x1="262.09" y1="170.38" x2="262.09" y2="186.8" stroke="#3c6b4c" stroke-width="1.0" opacity="0.85" stroke-linecap="butt"/><rect x="260.9" y="172.66" width="2.4" height="9.58" fill="#3c6b4c" rx="0.6"/><line x1="266.38" y1="177.22" x2="266.38" y2="194.1" stroke="#3c6b4c" stroke-width="1.0" opacity="0.85" stroke-linecap="butt"/><rect x="265.18" y="177.22" width="2.4" height="11.86" fill="#3c6b4c" rx="0.6"/><line x1="270.66" y1="153.96" x2="270.66" y2="192.27" stroke="#a3402c" stroke-width="1.0" opacity="0.85" stroke-linecap="butt"/><rect x="269.46" y="168.55" width="2.4" height="11.4" fill="#a3402c" rx="0.6"/><line x1="274.94" y1="173.57" x2="274.94" y2="181.78" stroke="#a3402c" stroke-width="1.0" opacity="0.85" stroke-linecap="butt"/><rect x="273.74" y="177.68" width="2.4" height="2.28" fill="#a3402c" rx="0.6"/><line x1="279.22" y1="170.38" x2="279.22" y2="190.45" stroke="#a3402c" stroke-width="1.0" opacity="0.85" stroke-linecap="butt"/><rect x="278.02" y="175.39" width="2.4" height="9.58" fill="#a3402c" rx="0.6"/><line x1="283.5" y1="154.41" x2="283.5" y2="188.62" stroke="#3c6b4c" stroke-width="1.0" opacity="0.85" stroke-linecap="butt"/><rect x="282.3" y="154.41" width="2.4" height="30.11" fill="#3c6b4c" rx="0.6"/><line x1="287.79" y1="150.76" x2="287.79" y2="169.92" stroke="#3c6b4c" stroke-width="1.0" opacity="0.85" stroke-linecap="butt"/><rect x="286.59" y="160.34" width="2.4" height="8.21" fill="#3c6b4c" rx="0.6"/><line x1="292.07" y1="153.04" x2="292.07" y2="168.55" stroke="#a3402c" stroke-width="1.0" opacity="0.85" stroke-linecap="butt"/><rect x="290.87" y="156.24" width="2.4" height="12.32" fill="#a3402c" rx="0.6"/><line x1="296.35" y1="158.52" x2="296.35" y2="174.03" stroke="#a3402c" stroke-width="1.0" opacity="0.85" stroke-linecap="butt"/><rect x="295.15" y="162.62" width="2.4" height="6.39" fill="#a3402c" rx="0.6"/><line x1="300.63" y1="170.83" x2="300.63" y2="189.08" stroke="#a3402c" stroke-width="1.0" opacity="0.85" stroke-linecap="butt"/><rect x="299.43" y="172.2" width="2.4" height="12.32" fill="#a3402c" rx="0.6"/><line x1="304.91" y1="176.76" x2="304.91" y2="192.73" stroke="#a3402c" stroke-width="1.0" opacity="0.85" stroke-linecap="butt"/><rect x="303.71" y="184.06" width="2.4" height="6.84" fill="#a3402c" rx="0.6"/><line x1="309.19" y1="188.17" x2="309.19" y2="206.41" stroke="#a3402c" stroke-width="1.0" opacity="0.85" stroke-linecap="butt"/><rect x="308" y="192.27" width="2.4" height="13.68" fill="#a3402c" rx="0.6"/><line x1="313.48" y1="196.83" x2="313.48" y2="209.61" stroke="#a3402c" stroke-width="1.0" opacity="0.85" stroke-linecap="butt"/><rect x="312.28" y="203.22" width="2.4" height="1.1" fill="#a3402c" rx="0.6"/><line x1="317.76" y1="187.71" x2="317.76" y2="209.61" stroke="#3c6b4c" stroke-width="1.0" opacity="0.85" stroke-linecap="butt"/><rect x="316.56" y="189.54" width="2.4" height="18.7" fill="#3c6b4c" rx="0.6"/><line x1="322.04" y1="186.34" x2="322.04" y2="209.61" stroke="#a3402c" stroke-width="1.0" opacity="0.85" stroke-linecap="butt"/><rect x="320.84" y="189.54" width="2.4" height="11.86" fill="#a3402c" rx="0.6"/><line x1="326.32" y1="195.47" x2="326.32" y2="210.97" stroke="#a3402c" stroke-width="1.0" opacity="0.85" stroke-linecap="butt"/><rect x="325.12" y="200.94" width="2.4" height="3.65" fill="#a3402c" rx="0.6"/><line x1="330.6" y1="169.92" x2="330.6" y2="198.66" stroke="#3c6b4c" stroke-width="1.0" opacity="0.85" stroke-linecap="butt"/><rect x="329.41" y="182.69" width="2.4" height="11.4" fill="#3c6b4c" rx="0.6"/><line x1="334.89" y1="163.08" x2="334.89" y2="179.96" stroke="#3c6b4c" stroke-width="1.0" opacity="0.85" stroke-linecap="butt"/><rect x="333.69" y="178.13" width="2.4" height="1.82" fill="#3c6b4c" rx="0.6"/><line x1="339.17" y1="173.11" x2="339.17" y2="188.17" stroke="#3c6b4c" stroke-width="1.0" opacity="0.85" stroke-linecap="butt"/><rect x="337.97" y="179.96" width="2.4" height="1.82" fill="#3c6b4c" rx="0.6"/><line x1="343.45" y1="168.55" x2="343.45" y2="183.15" stroke="#3c6b4c" stroke-width="1.0" opacity="0.85" stroke-linecap="butt"/><rect x="342.25" y="170.83" width="2.4" height="10.95" fill="#3c6b4c" rx="0.6"/><line x1="347.73" y1="171.75" x2="347.73" y2="193.18" stroke="#a3402c" stroke-width="1.0" opacity="0.85" stroke-linecap="butt"/><rect x="346.53" y="173.11" width="2.4" height="19.61" fill="#a3402c" rx="0.6"/><line x1="352.01" y1="186.8" x2="352.01" y2="205.5" stroke="#a3402c" stroke-width="1.0" opacity="0.85" stroke-linecap="butt"/><rect x="350.81" y="188.62" width="2.4" height="11.4" fill="#a3402c" rx="0.6"/><line x1="356.3" y1="191.36" x2="356.3" y2="201.39" stroke="#3c6b4c" stroke-width="1.0" opacity="0.85" stroke-linecap="butt"/><rect x="355.1" y="195.01" width="2.4" height="1.37" fill="#3c6b4c" rx="0.6"/><line x1="360.58" y1="202.31" x2="360.58" y2="220.1" stroke="#a3402c" stroke-width="1.0" opacity="0.85" stroke-linecap="butt"/><rect x="359.38" y="202.76" width="2.4" height="8.21" fill="#a3402c" rx="0.6"/><line x1="364.86" y1="205.96" x2="364.86" y2="224.2" stroke="#a3402c" stroke-width="1.0" opacity="0.85" stroke-linecap="butt"/><rect x="363.66" y="214.17" width="2.4" height="3.65" fill="#a3402c" rx="0.6"/><line x1="369.14" y1="213.25" x2="369.14" y2="225.11" stroke="#a3402c" stroke-width="1.0" opacity="0.85" stroke-linecap="butt"/><rect x="367.94" y="218.27" width="2.4" height="1.1" fill="#a3402c" rx="0.6"/><line x1="373.42" y1="217.82" x2="373.42" y2="264.34" stroke="#a3402c" stroke-width="1.0" opacity="0.85" stroke-linecap="butt"/><rect x="372.22" y="219.18" width="2.4" height="45.16" fill="#a3402c" rx="0.6"/><line x1="377.7" y1="233.78" x2="377.7" y2="284.87" stroke="#3c6b4c" stroke-width="1.0" opacity="0.85" stroke-linecap="butt"/><rect x="376.51" y="241.54" width="2.4" height="34.21" fill="#3c6b4c" rx="0.6"/><line x1="381.99" y1="236.06" x2="381.99" y2="247.92" stroke="#3c6b4c" stroke-width="1.0" opacity="0.85" stroke-linecap="butt"/><rect x="380.79" y="238.34" width="2.4" height="1.1" fill="#3c6b4c" rx="0.6"/><line x1="386.27" y1="236.52" x2="386.27" y2="244.27" stroke="#a3402c" stroke-width="1.0" opacity="0.85" stroke-linecap="butt"/><rect x="385.07" y="239.26" width="2.4" height="5.02" fill="#a3402c" rx="0.6"/><line x1="390.55" y1="244.27" x2="390.55" y2="244.27" stroke="#3c6b4c" stroke-width="1.0" opacity="0.85" stroke-linecap="butt"/><rect x="389.35" y="244.27" width="2.4" height="1.1" fill="#3c6b4c" rx="0.6"/><line x1="394.83" y1="244.27" x2="394.83" y2="244.27" stroke="#3c6b4c" stroke-width="1.0" opacity="0.85" stroke-linecap="butt"/><rect x="393.63" y="244.27" width="2.4" height="1.1" fill="#3c6b4c" rx="0.6"/><line x1="399.11" y1="244.27" x2="399.11" y2="244.27" stroke="#3c6b4c" stroke-width="1.0" opacity="0.85" stroke-linecap="butt"/><rect x="397.92" y="244.27" width="2.4" height="1.1" fill="#3c6b4c" rx="0.6"/><line x1="403.4" y1="226.48" x2="403.4" y2="247.01" stroke="#a3402c" stroke-width="1.0" opacity="0.85" stroke-linecap="butt"/><rect x="402.2" y="239.26" width="2.4" height="6.84" fill="#a3402c" rx="0.6"/><line x1="407.68" y1="219.64" x2="407.68" y2="241.54" stroke="#3c6b4c" stroke-width="1.0" opacity="0.85" stroke-linecap="butt"/><rect x="406.48" y="221.92" width="2.4" height="19.16" fill="#3c6b4c" rx="0.6"/><line x1="411.96" y1="220.1" x2="411.96" y2="233.33" stroke="#a3402c" stroke-width="1.0" opacity="0.85" stroke-linecap="butt"/><rect x="410.76" y="224.66" width="2.4" height="8.21" fill="#a3402c" rx="0.6"/><line x1="416.24" y1="217.82" x2="416.24" y2="233.78" stroke="#3c6b4c" stroke-width="1.0" opacity="0.85" stroke-linecap="butt"/><rect x="415.04" y="217.82" width="2.4" height="10.95" fill="#3c6b4c" rx="0.6"/><line x1="420.52" y1="213.25" x2="420.52" y2="242.9" stroke="#a3402c" stroke-width="1.0" opacity="0.85" stroke-linecap="butt"/><rect x="419.32" y="214.62" width="2.4" height="27.37" fill="#a3402c" rx="0.6"/><line x1="424.81" y1="210.06" x2="424.81" y2="249.29" stroke="#3c6b4c" stroke-width="1.0" opacity="0.85" stroke-linecap="butt"/><rect x="423.61" y="212.8" width="2.4" height="35.58" fill="#3c6b4c" rx="0.6"/><line x1="429.09" y1="202.76" x2="429.09" y2="215.08" stroke="#a3402c" stroke-width="1.0" opacity="0.85" stroke-linecap="butt"/><rect x="427.89" y="212.34" width="2.4" height="1.1" fill="#a3402c" rx="0.6"/><line x1="433.37" y1="208.24" x2="433.37" y2="228.31" stroke="#a3402c" stroke-width="1.0" opacity="0.85" stroke-linecap="butt"/><rect x="432.17" y="213.71" width="2.4" height="3.65" fill="#a3402c" rx="0.6"/><line x1="437.65" y1="207.78" x2="437.65" y2="228.31" stroke="#a3402c" stroke-width="1.0" opacity="0.85" stroke-linecap="butt"/><rect x="436.45" y="215.54" width="2.4" height="1.37" fill="#a3402c" rx="0.6"/><line x1="441.93" y1="177.22" x2="441.93" y2="204.13" stroke="#3c6b4c" stroke-width="1.0" opacity="0.85" stroke-linecap="butt"/><rect x="440.73" y="190.9" width="2.4" height="10.95" fill="#3c6b4c" rx="0.6"/><line x1="446.21" y1="148.48" x2="446.21" y2="168.1" stroke="#a3402c" stroke-width="1.0" opacity="0.85" stroke-linecap="butt"/><rect x="445.02" y="150.76" width="2.4" height="13.68" fill="#a3402c" rx="0.6"/><line x1="450.5" y1="156.69" x2="450.5" y2="169.46" stroke="#3c6b4c" stroke-width="1.0" opacity="0.85" stroke-linecap="butt"/><rect x="449.3" y="158.97" width="2.4" height="6.84" fill="#3c6b4c" rx="0.6"/><line x1="454.78" y1="154.41" x2="454.78" y2="166.27" stroke="#a3402c" stroke-width="1.0" opacity="0.85" stroke-linecap="butt"/><rect x="453.58" y="156.69" width="2.4" height="5.47" fill="#a3402c" rx="0.6"/><line x1="459.06" y1="137.53" x2="459.06" y2="160.8" stroke="#3c6b4c" stroke-width="1.0" opacity="0.85" stroke-linecap="butt"/><rect x="457.86" y="137.99" width="2.4" height="21.44" fill="#3c6b4c" rx="0.6"/><line x1="463.34" y1="136.62" x2="463.34" y2="151.22" stroke="#3c6b4c" stroke-width="1.0" opacity="0.85" stroke-linecap="butt"/><rect x="462.14" y="143.01" width="2.4" height="2.74" fill="#3c6b4c" rx="0.6"/><line x1="467.62" y1="134.8" x2="467.62" y2="144.83" stroke="#3c6b4c" stroke-width="1.0" opacity="0.85" stroke-linecap="butt"/><rect x="466.43" y="140.27" width="2.4" height="1.1" fill="#3c6b4c" rx="0.6"/><line x1="471.91" y1="137.53" x2="471.91" y2="159.43" stroke="#a3402c" stroke-width="1.0" opacity="0.85" stroke-linecap="butt"/><rect x="470.71" y="145.29" width="2.4" height="5.93" fill="#a3402c" rx="0.6"/><line x1="476.19" y1="149.39" x2="476.19" y2="165.36" stroke="#a3402c" stroke-width="1.0" opacity="0.85" stroke-linecap="butt"/><rect x="474.99" y="150.31" width="2.4" height="4.56" fill="#a3402c" rx="0.6"/><line x1="480.47" y1="142.1" x2="480.47" y2="180.41" stroke="#a3402c" stroke-width="1.0" opacity="0.85" stroke-linecap="butt"/><rect x="479.27" y="145.75" width="2.4" height="32.84" fill="#a3402c" rx="0.6"/><line x1="484.75" y1="169.46" x2="484.75" y2="179.5" stroke="#3c6b4c" stroke-width="1.0" opacity="0.85" stroke-linecap="butt"/><rect x="483.55" y="171.29" width="2.4" height="7.3" fill="#3c6b4c" rx="0.6"/><line x1="489.03" y1="163.99" x2="489.03" y2="179.04" stroke="#a3402c" stroke-width="1.0" opacity="0.85" stroke-linecap="butt"/><rect x="487.83" y="170.38" width="2.4" height="3.19" fill="#a3402c" rx="0.6"/><line x1="493.32" y1="164.45" x2="493.32" y2="176.31" stroke="#3c6b4c" stroke-width="1.0" opacity="0.85" stroke-linecap="butt"/><rect x="492.12" y="168.1" width="2.4" height="5.47" fill="#3c6b4c" rx="0.6"/><line x1="497.6" y1="160.34" x2="497.6" y2="175.85" stroke="#3c6b4c" stroke-width="1.0" opacity="0.85" stroke-linecap="butt"/><rect x="496.4" y="162.62" width="2.4" height="6.84" fill="#3c6b4c" rx="0.6"/><line x1="501.88" y1="154.41" x2="501.88" y2="173.57" stroke="#a3402c" stroke-width="1.0" opacity="0.85" stroke-linecap="butt"/><rect x="500.68" y="162.17" width="2.4" height="5.47" fill="#a3402c" rx="0.6"/><line x1="506.16" y1="162.62" x2="506.16" y2="195.47" stroke="#a3402c" stroke-width="1.0" opacity="0.85" stroke-linecap="butt"/><rect x="504.96" y="163.53" width="2.4" height="31.93" fill="#a3402c" rx="0.6"/><line x1="510.44" y1="185.43" x2="510.44" y2="198.2" stroke="#3c6b4c" stroke-width="1.0" opacity="0.85" stroke-linecap="butt"/><rect x="509.24" y="189.54" width="2.4" height="3.65" fill="#3c6b4c" rx="0.6"/><line x1="514.72" y1="172.66" x2="514.72" y2="191.36" stroke="#3c6b4c" stroke-width="1.0" opacity="0.85" stroke-linecap="butt"/><rect x="513.53" y="184.52" width="2.4" height="6.84" fill="#3c6b4c" rx="0.6"/><line x1="519.01" y1="183.15" x2="519.01" y2="211.43" stroke="#a3402c" stroke-width="1.0" opacity="0.85" stroke-linecap="butt"/><rect x="517.81" y="187.71" width="2.4" height="13.68" fill="#a3402c" rx="0.6"/><line x1="523.29" y1="190.9" x2="523.29" y2="213.25" stroke="#a3402c" stroke-width="1.0" opacity="0.85" stroke-linecap="butt"/><rect x="522.09" y="191.82" width="2.4" height="17.79" fill="#a3402c" rx="0.6"/><line x1="527.57" y1="200.03" x2="527.57" y2="218.73" stroke="#a3402c" stroke-width="1.0" opacity="0.85" stroke-linecap="butt"/><rect x="526.37" y="209.61" width="2.4" height="5.47" fill="#a3402c" rx="0.6"/><line x1="531.85" y1="213.25" x2="531.85" y2="227.85" stroke="#3c6b4c" stroke-width="1.0" opacity="0.85" stroke-linecap="butt"/><rect x="530.65" y="218.73" width="2.4" height="2.28" fill="#3c6b4c" rx="0.6"/><line x1="536.13" y1="206.41" x2="536.13" y2="221.92" stroke="#3c6b4c" stroke-width="1.0" opacity="0.85" stroke-linecap="butt"/><rect x="534.94" y="210.06" width="2.4" height="9.12" fill="#3c6b4c" rx="0.6"/><line x1="540.42" y1="205.5" x2="540.42" y2="225.57" stroke="#3c6b4c" stroke-width="1.0" opacity="0.85" stroke-linecap="butt"/><rect x="539.22" y="205.5" width="2.4" height="4.11" fill="#3c6b4c" rx="0.6"/><line x1="544.7" y1="207.32" x2="544.7" y2="230.13" stroke="#a3402c" stroke-width="1.0" opacity="0.85" stroke-linecap="butt"/><rect x="543.5" y="208.69" width="2.4" height="10.95" fill="#a3402c" rx="0.6"/><line x1="548.98" y1="217.82" x2="548.98" y2="245.64" stroke="#a3402c" stroke-width="1.0" opacity="0.85" stroke-linecap="butt"/><rect x="547.78" y="219.64" width="2.4" height="22.81" fill="#a3402c" rx="0.6"/><line x1="553.26" y1="238.8" x2="553.26" y2="254.76" stroke="#a3402c" stroke-width="1.0" opacity="0.85" stroke-linecap="butt"/><rect x="552.06" y="239.26" width="2.4" height="14.6" fill="#a3402c" rx="0.6"/><line x1="557.54" y1="244.27" x2="557.54" y2="254.76" stroke="#3c6b4c" stroke-width="1.0" opacity="0.85" stroke-linecap="butt"/><rect x="556.34" y="247.92" width="2.4" height="4.11" fill="#3c6b4c" rx="0.6"/><line x1="561.83" y1="245.19" x2="561.83" y2="255.22" stroke="#a3402c" stroke-width="1.0" opacity="0.85" stroke-linecap="butt"/><rect x="560.63" y="247.92" width="2.4" height="2.74" fill="#a3402c" rx="0.6"/><line x1="566.11" y1="242.45" x2="566.11" y2="256.59" stroke="#a3402c" stroke-width="1.0" opacity="0.85" stroke-linecap="butt"/><rect x="564.91" y="251.11" width="2.4" height="3.19" fill="#a3402c" rx="0.6"/><line x1="570.39" y1="241.99" x2="570.39" y2="257.5" stroke="#a3402c" stroke-width="1.0" opacity="0.85" stroke-linecap="butt"/><rect x="569.19" y="247.92" width="2.4" height="7.75" fill="#a3402c" rx="0.6"/><line x1="574.67" y1="252.94" x2="574.67" y2="262.06" stroke="#a3402c" stroke-width="1.0" opacity="0.85" stroke-linecap="butt"/><rect x="573.47" y="254.76" width="2.4" height="4.11" fill="#a3402c" rx="0.6"/><line x1="578.95" y1="254.76" x2="578.95" y2="284.87" stroke="#a3402c" stroke-width="1.0" opacity="0.85" stroke-linecap="butt"/><rect x="577.75" y="258.87" width="2.4" height="23.72" fill="#a3402c" rx="0.6"/><line x1="583.23" y1="275.75" x2="583.23" y2="297.64" stroke="#a3402c" stroke-width="1.0" opacity="0.85" stroke-linecap="butt"/><rect x="582.04" y="282.59" width="2.4" height="12.32" fill="#a3402c" rx="0.6"/><line x1="587.52" y1="274.83" x2="587.52" y2="294.45" stroke="#3c6b4c" stroke-width="1.0" opacity="0.85" stroke-linecap="butt"/><rect x="586.32" y="274.83" width="2.4" height="16.88" fill="#3c6b4c" rx="0.6"/><line x1="591.8" y1="256.59" x2="591.8" y2="268.9" stroke="#3c6b4c" stroke-width="1.0" opacity="0.85" stroke-linecap="butt"/><rect x="590.6" y="265.26" width="2.4" height="3.65" fill="#3c6b4c" rx="0.6"/><line x1="596.08" y1="267.54" x2="596.08" y2="280.76" stroke="#3c6b4c" stroke-width="1.0" opacity="0.85" stroke-linecap="butt"/><rect x="594.88" y="269.36" width="2.4" height="8.67" fill="#3c6b4c" rx="0.6"/><line x1="600.36" y1="270.27" x2="600.36" y2="285.33" stroke="#a3402c" stroke-width="1.0" opacity="0.85" stroke-linecap="butt"/><rect x="599.16" y="271.19" width="2.4" height="9.58" fill="#a3402c" rx="0.6"/><line x1="604.64" y1="268.9" x2="604.64" y2="281.22" stroke="#a3402c" stroke-width="1.0" opacity="0.85" stroke-linecap="butt"/><rect x="603.45" y="278.94" width="2.4" height="2.28" fill="#a3402c" rx="0.6"/><line x1="608.93" y1="273.01" x2="608.93" y2="284.41" stroke="#3c6b4c" stroke-width="1.0" opacity="0.85" stroke-linecap="butt"/><rect x="607.73" y="279.85" width="2.4" height="1.1" fill="#3c6b4c" rx="0.6"/><line x1="613.21" y1="277.57" x2="613.21" y2="292.62" stroke="#a3402c" stroke-width="1.0" opacity="0.85" stroke-linecap="butt"/><rect x="612.01" y="278.48" width="2.4" height="12.77" fill="#a3402c" rx="0.6"/><line x1="617.49" y1="291.71" x2="617.49" y2="302.66" stroke="#a3402c" stroke-width="1.0" opacity="0.85" stroke-linecap="butt"/><rect x="616.29" y="292.62" width="2.4" height="2.74" fill="#a3402c" rx="0.6"/><line x1="621.77" y1="267.54" x2="621.77" y2="296.73" stroke="#3c6b4c" stroke-width="1.0" opacity="0.85" stroke-linecap="butt"/><rect x="620.57" y="270.73" width="2.4" height="25.54" fill="#3c6b4c" rx="0.6"/><line x1="626.05" y1="266.62" x2="626.05" y2="279.4" stroke="#a3402c" stroke-width="1.0" opacity="0.85" stroke-linecap="butt"/><rect x="624.85" y="272.1" width="2.4" height="1.1" fill="#a3402c" rx="0.6"/><line x1="630.34" y1="268.45" x2="630.34" y2="274.38" stroke="#3c6b4c" stroke-width="1.0" opacity="0.85" stroke-linecap="butt"/><rect x="629.14" y="272.1" width="2.4" height="1.1" fill="#3c6b4c" rx="0.6"/><line x1="634.62" y1="270.27" x2="634.62" y2="278.03" stroke="#a3402c" stroke-width="1.0" opacity="0.85" stroke-linecap="butt"/><rect x="633.42" y="272.1" width="2.4" height="5.93" fill="#a3402c" rx="0.6"/><line x1="638.9" y1="272.1" x2="638.9" y2="282.59" stroke="#3c6b4c" stroke-width="1.0" opacity="0.85" stroke-linecap="butt"/><rect x="637.7" y="278.94" width="2.4" height="1.1" fill="#3c6b4c" rx="0.6"/><line x1="643.18" y1="267.08" x2="643.18" y2="280.31" stroke="#3c6b4c" stroke-width="1.0" opacity="0.85" stroke-linecap="butt"/><rect x="641.98" y="272.1" width="2.4" height="7.3" fill="#3c6b4c" rx="0.6"/><line x1="647.46" y1="264.34" x2="647.46" y2="281.22" stroke="#a3402c" stroke-width="1.0" opacity="0.85" stroke-linecap="butt"/><rect x="646.26" y="269.82" width="2.4" height="9.12" fill="#a3402c" rx="0.6"/><line x1="651.74" y1="269.82" x2="651.74" y2="280.31" stroke="#a3402c" stroke-width="1.0" opacity="0.85" stroke-linecap="butt"/><rect x="650.55" y="278.03" width="2.4" height="1.1" fill="#a3402c" rx="0.6"/><line x1="656.03" y1="257.5" x2="656.03" y2="272.55" stroke="#a3402c" stroke-width="1.0" opacity="0.85" stroke-linecap="butt"/><rect x="654.83" y="260.69" width="2.4" height="8.67" fill="#a3402c" rx="0.6"/><line x1="660.31" y1="266.17" x2="660.31" y2="275.29" stroke="#a3402c" stroke-width="1.0" opacity="0.85" stroke-linecap="butt"/><rect x="659.11" y="269.36" width="2.4" height="5.02" fill="#a3402c" rx="0.6"/><line x1="664.59" y1="232.87" x2="664.59" y2="272.1" stroke="#3c6b4c" stroke-width="1.0" opacity="0.85" stroke-linecap="butt"/><rect x="663.39" y="254.76" width="2.4" height="17.33" fill="#3c6b4c" rx="0.6"/><line x1="668.87" y1="248.83" x2="668.87" y2="264.34" stroke="#a3402c" stroke-width="1.0" opacity="0.85" stroke-linecap="butt"/><rect x="667.67" y="253.4" width="2.4" height="8.67" fill="#a3402c" rx="0.6"/><line x1="673.15" y1="257.96" x2="673.15" y2="264.34" stroke="#3c6b4c" stroke-width="1.0" opacity="0.85" stroke-linecap="butt"/><rect x="671.96" y="260.24" width="2.4" height="1.1" fill="#3c6b4c" rx="0.6"/><line x1="677.44" y1="259.78" x2="677.44" y2="271.64" stroke="#a3402c" stroke-width="1.0" opacity="0.85" stroke-linecap="butt"/><rect x="676.24" y="259.78" width="2.4" height="7.3" fill="#a3402c" rx="0.6"/><line x1="681.72" y1="255.68" x2="681.72" y2="266.62" stroke="#3c6b4c" stroke-width="1.0" opacity="0.85" stroke-linecap="butt"/><rect x="680.52" y="262.06" width="2.4" height="4.11" fill="#3c6b4c" rx="0.6"/><line x1="686" y1="257.5" x2="686" y2="278.03" stroke="#3c6b4c" stroke-width="1.0" opacity="0.85" stroke-linecap="butt"/><rect x="684.8" y="260.69" width="2.4" height="5.47" fill="#3c6b4c" rx="0.6"/><rect x="48" y="275.56" width="638" height="16.08" fill="#3c6b4c" opacity="0.06000644326610232"/><rect x="48" y="264.27" width="638" height="11.29" fill="#3c6b4c" opacity="0.06000644326610232"/><rect x="48" y="276.69" width="638" height="18.62" fill="#3c6b4c" opacity="0.06001211651827273"/><rect x="48" y="315.24" width="638" height="25.93" fill="#3c6b4c" opacity="0.060019233773852314"/><rect x="48" y="297.03" width="638" height="18.21" fill="#3c6b4c" opacity="0.060019233773852314"/><rect x="48" y="368.57" width="638" height="7.38" fill="#3c6b4c" opacity="0.06033501602718527"/><rect x="48" y="370.71" width="638" height="14.26" fill="#3c6b4c" opacity="0.060342776765387594"/><rect x="48" y="360.69" width="638" height="10.01" fill="#3c6b4c" opacity="0.060342776765387594"/><rect x="48" y="329.4" width="638" height="8.75" fill="#3c6b4c" opacity="0.060353500870152677"/><rect x="48" y="338.15" width="638" height="6.14" fill="#3c6b4c" opacity="0.060353500870152677"/><rect x="48" y="292.28" width="638" height="34.32" fill="#3c6b4c" opacity="0.06078749421306387"/><rect x="48" y="268.17" width="638" height="24.11" fill="#3c6b4c" opacity="0.06078749421306387"/><rect x="48" y="279.98" width="638" height="0.6" fill="#3c6b4c" opacity="0.06082266423693023"/><rect x="48" y="266.24" width="638" height="11.5" fill="#3c6b4c" opacity="0.06113120278448857"/><rect x="48" y="301.82" width="638" height="24.55" fill="#3c6b4c" opacity="0.06548442824620156"/><rect x="48" y="284.58" width="638" height="17.24" fill="#3c6b4c" opacity="0.06548442824620156"/><rect x="48" y="278.48" width="638" height="12.49" fill="#3c6b4c" opacity="0.08829160307882716"/><rect x="48" y="368.1" width="638" height="13.04" fill="#3c6b4c" opacity="0.4343905749619967"/><rect x="48" y="329.74" width="638" height="14" fill="#3c6b4c" opacity="0.4343905749619967"/><rect x="48" y="311.73" width="638" height="0.6" fill="#3c6b4c" opacity="0.46"/><rect x="462" y="296.59" width="220" height="20" fill="#3c6b4c" rx="10.0"/><text x="572" y="310.01" fill="#ffffff" font-size="9.5" text-anchor="middle" font-family="'IBM Plex Mono', ui-monospace, monospace" font-weight="700">DİPTE OLASI: 0.03 | 4 kaynak</text><rect x="50" y="392" width="311.6" height="16" fill="#faf6ec" opacity="0.85"/><text x="54" y="404" fill="#8c7d5f" font-size="9" text-anchor="start" font-family="'Source Serif 4', Georgia, serif">Dönüş kaynakları: structure.golden_zone, structure.price_structure</text></svg><svg x="716.0" y="0.0" width="180.0" height="440.0" viewBox="0 0 180.0 440.0"><rect width="180.0" height="440.0" fill="#faf6ec"/><rect x="6" y="334.83" width="0.14" height="1.11" fill="#3c6b4c" opacity="0.35" rx="0"/><rect x="6" y="333.29" width="147.58" height="1.11" fill="#3c6b4c" opacity="0.35" rx="0"/><rect x="6" y="331.75" width="147.58" height="1.11" fill="#3c6b4c" opacity="0.35" rx="0"/><rect x="6" y="330.21" width="147.58" height="1.11" fill="#3c6b4c" opacity="0.35" rx="0"/><rect x="6" y="328.68" width="147.72" height="1.11" fill="#3c6b4c" opacity="0.35" rx="0"/><rect x="6" y="327.14" width="147.72" height="1.11" fill="#3c6b4c" opacity="0.35" rx="0"/><rect x="6" y="325.6" width="147.58" height="1.11" fill="#3c6b4c" opacity="0.35" rx="0"/><rect x="6" y="324.06" width="147.58" height="1.11" fill="#3c6b4c" opacity="0.35" rx="0"/><rect x="6" y="322.52" width="147.58" height="1.11" fill="#3c6b4c" opacity="0.35" rx="0"/><rect x="6" y="320.98" width="147.58" height="1.11" fill="#3c6b4c" opacity="0.35" rx="0"/><rect x="6" y="319.44" width="147.58" height="1.11" fill="#3c6b4c" opacity="0.35" rx="0"/><rect x="6" y="317.91" width="2.62" height="1.11" fill="#3c6b4c" opacity="0.35" rx="0"/><rect x="6" y="316.37" width="2.48" height="1.11" fill="#3c6b4c" opacity="0.35" rx="0"/><rect x="6" y="314.83" width="2.48" height="1.11" fill="#3c6b4c" opacity="0.35" rx="0"/><rect x="6" y="313.29" width="2.48" height="1.11" fill="#3c6b4c" opacity="0.35" rx="0"/><rect x="6" y="311.75" width="2.48" height="1.11" fill="#3c6b4c" opacity="0.35" rx="0"/><rect x="6" y="310.21" width="2.48" height="1.11" fill="#3c6b4c" opacity="0.35" rx="0"/><rect x="6" y="308.68" width="2.48" height="1.11" fill="#3c6b4c" opacity="0.35" rx="0"/><rect x="6" y="307.14" width="2.49" height="1.11" fill="#3c6b4c" opacity="0.35" rx="0"/><rect x="6" y="305.6" width="2.49" height="1.11" fill="#3c6b4c" opacity="0.35" rx="0"/><rect x="6" y="304.06" width="2.48" height="1.11" fill="#3c6b4c" opacity="0.35" rx="0"/><rect x="6" y="302.52" width="160" height="1.11" fill="#3c6b4c" opacity="0.35" rx="0"/><rect x="6" y="300.98" width="160" height="1.11" fill="#3c6b4c" opacity="0.35" rx="0"/><rect x="6" y="299.45" width="2.48" height="1.11" fill="#3c6b4c" opacity="0.35" rx="0"/><rect x="6" y="297.91" width="2.48" height="1.11" fill="#3c6b4c" opacity="0.35" rx="0"/><rect x="6" y="296.37" width="2.48" height="1.11" fill="#3c6b4c" opacity="0.35" rx="0"/><rect x="6" y="294.83" width="2.48" height="1.11" fill="#3c6b4c" opacity="0.35" rx="0"/><rect x="6" y="293.29" width="4.64" height="1.11" fill="#3c6b4c" opacity="0.35" rx="0"/><rect x="6" y="291.75" width="4.64" height="1.11" fill="#3c6b4c" opacity="0.35" rx="0"/><rect x="6" y="290.22" width="2.48" height="1.11" fill="#3c6b4c" opacity="0.35" rx="0"/><rect x="6" y="288.68" width="2.48" height="1.11" fill="#3c6b4c" opacity="0.35" rx="0"/><rect x="6" y="287.14" width="2.48" height="1.11" fill="#3c6b4c" opacity="0.35" rx="0"/><rect x="6" y="285.6" width="2.47" height="1.11" fill="#3c6b4c" opacity="0.35" rx="0"/><rect x="6" y="284.06" width="2.79" height="1.11" fill="#3c6b4c" opacity="0.35" rx="0"/><rect x="6" y="282.52" width="13.93" height="1.11" fill="#3c6b4c" opacity="0.35" rx="0"/><rect x="6" y="280.99" width="13.62" height="1.11" fill="#3c6b4c" opacity="0.35" rx="0"/><rect x="6" y="279.45" width="13.62" height="1.11" fill="#3c6b4c" opacity="0.35" rx="0"/><rect x="6" y="277.91" width="13.62" height="1.11" fill="#3c6b4c" opacity="0.35" rx="0"/><rect x="6" y="276.37" width="13.62" height="1.11" fill="#3c6b4c" opacity="0.35" rx="0"/><rect x="6" y="274.83" width="13.62" height="1.11" fill="#3c6b4c" opacity="0.35" rx="0"/><rect x="6" y="273.29" width="11.46" height="1.11" fill="#3c6b4c" opacity="0.35" rx="0"/><rect x="6" y="271.75" width="11.78" height="1.11" fill="#3c6b4c" opacity="0.35" rx="0"/><rect x="6" y="270.22" width="12.23" height="1.11" fill="#3c6b4c" opacity="0.35" rx="0"/><rect x="6" y="268.68" width="11.91" height="1.11" fill="#3c6b4c" opacity="0.35" rx="0"/><rect x="6" y="267.14" width="0.77" height="1.11" fill="#3c6b4c" opacity="0.35" rx="0"/><rect x="6" y="265.6" width="0.76" height="1.11" fill="#3c6b4c" opacity="0.35" rx="0"/><rect x="6" y="264.06" width="0.76" height="1.11" fill="#3c6b4c" opacity="0.35" rx="0"/><rect x="6" y="262.52" width="0.76" height="1.11" fill="#3c6b4c" opacity="0.35" rx="0"/><rect x="6" y="260.99" width="0.76" height="1.11" fill="#3c6b4c" opacity="0.35" rx="0"/><rect x="6" y="259.45" width="0.76" height="1.11" fill="#3c6b4c" opacity="0.35" rx="0"/><rect x="6" y="257.91" width="0.45" height="1.11" fill="#3c6b4c" opacity="0.35" rx="0"/><rect x="6" y="256.37" width="0" height="1.11" fill="#3c6b4c" opacity="0.35" rx="0"/><rect x="6" y="254.83" width="0" height="1.11" fill="#3c6b4c" opacity="0.35" rx="0"/><text x="6" y="12" fill="#8c7d5f" font-size="9.5" text-anchor="start" font-family="'Source Serif 4', Georgia, serif" font-weight="600">Yoğunluk Profili</text></svg></svg>