<svg xmlns="http://www.w3.org/2000/svg" viewBox="0 0 780.0 516.0" width="780.0" height="516.0"><rect width="780.0" height="516.0" fill="#090b0f"/><svg x="0.0" y="0.0" width="780.0" height="400.0" viewBox="0 0 780.0 400.0"><rect width="780.0" height="400.0" fill="#0d1015"/><line x1="48" y1="227.33" x2="764" y2="227.33" stroke="#161a21" stroke-width="1" stroke-linecap="butt"/><text x="38" y="230.83" fill="#6d7480" font-size="10" text-anchor="end" font-family="'JetBrains Mono', ui-monospace, monospace">300.0</text><line x1="48" y1="62.42" x2="764" y2="62.42" stroke="#161a21" stroke-width="1" stroke-linecap="butt"/><text x="38" y="65.92" fill="#6d7480" font-size="10" text-anchor="end" font-family="'JetBrains Mono', ui-monospace, monospace">350.0</text><text x="48" y="394" fill="#6d7480" font-size="10" text-anchor="middle" font-family="'Inter', -apple-system, sans-serif">Jan &apos;26</text><text x="225.8" y="394" fill="#6d7480" font-size="10" text-anchor="middle" font-family="'Inter', -apple-system, sans-serif">Mar &apos;26</text><text x="403.6" y="394" fill="#6d7480" font-size="10" text-anchor="middle" font-family="'Inter', -apple-system, sans-serif">May &apos;26</text><text x="586.2" y="394" fill="#6d7480" font-size="10" text-anchor="middle" font-family="'Inter', -apple-system, sans-serif">Jul &apos;26</text><text x="764" y="394" fill="#6d7480" font-size="10" text-anchor="middle" font-family="'Inter', -apple-system, sans-serif">Sep &apos;26</text><line x1="48" y1="203.42" x2="48" y2="233.93" stroke="#22d67f" stroke-width="1.0" opacity="0.95" stroke-linecap="butt"/><rect x="46.65" y="219.91" width="2.69" height="7.42" fill="#22d67f" rx="0.6"/><line x1="52.81" y1="200.12" x2="52.81" y2="232.28" stroke="#22d67f" stroke-width="1.0" opacity="0.95" stroke-linecap="butt"/><rect x="51.46" y="214.14" width="2.69" height="5.77" fill="#22d67f" rx="0.6"/><line x1="57.61" y1="194.35" x2="57.61" y2="233.93" stroke="#22d67f" stroke-width="1.0" opacity="0.95" stroke-linecap="butt"/><rect x="56.27" y="208.37" width="2.69" height="18.14" fill="#22d67f" rx="0.6"/><line x1="62.42" y1="163.84" x2="62.42" y2="200.95" stroke="#22d67f" stroke-width="1.0" opacity="0.95" stroke-linecap="butt"/><rect x="61.07" y="165.49" width="2.69" height="35.46" fill="#22d67f" rx="0.6"/><line x1="67.22" y1="152.3" x2="67.22" y2="177.86" stroke="#22d67f" stroke-width="1.0" opacity="0.95" stroke-linecap="butt"/><rect x="65.88" y="159.72" width="2.69" height="1.65" fill="#22d67f" rx="0.6"/><line x1="72.03" y1="154.77" x2="72.03" y2="174.56" stroke="#ff5c5c" stroke-width="1.0" opacity="0.95" stroke-linecap="butt"/><rect x="70.68" y="166.31" width="2.69" height="4.95" fill="#ff5c5c" rx="0.6"/><line x1="76.83" y1="146.52" x2="76.83" y2="188.58" stroke="#22d67f" stroke-width="1.0" opacity="0.95" stroke-linecap="butt"/><rect x="75.49" y="153.12" width="2.69" height="18.14" fill="#22d67f" rx="0.6"/><line x1="81.64" y1="129.21" x2="81.64" y2="155.6" stroke="#22d67f" stroke-width="1.0" opacity="0.95" stroke-linecap="butt"/><rect x="80.29" y="130.03" width="2.69" height="9.9" fill="#22d67f" rx="0.6"/><line x1="86.44" y1="117.66" x2="86.44" y2="135.81" stroke="#22d67f" stroke-width="1.0" opacity="0.95" stroke-linecap="butt"/><rect x="85.1" y="118.49" width="2.69" height="13.19" fill="#22d67f" rx="0.6"/><line x1="91.25" y1="102.82" x2="91.25" y2="131.68" stroke="#22d67f" stroke-width="1.0" opacity="0.95" stroke-linecap="butt"/><rect x="89.9" y="125.09" width="2.69" height="1.65" fill="#22d67f" rx="0.6"/><line x1="96.05" y1="91.28" x2="96.05" y2="125.09" stroke="#22d67f" stroke-width="1.0" opacity="0.95" stroke-linecap="butt"/><rect x="94.71" y="105.3" width="2.69" height="15.67" fill="#22d67f" rx="0.6"/><line x1="100.86" y1="58.29" x2="100.86" y2="104.47" stroke="#22d67f" stroke-width="1.0" opacity="0.95" stroke-linecap="butt"/><rect x="99.51" y="69.84" width="2.69" height="33.81" fill="#22d67f" rx="0.6"/><line x1="105.66" y1="54.17" x2="105.66" y2="78.91" stroke="#ff5c5c" stroke-width="1.0" opacity="0.95" stroke-linecap="butt"/><rect x="104.32" y="63.24" width="2.69" height="6.6" fill="#ff5c5c" rx="0.6"/><line x1="110.47" y1="59.94" x2="110.47" y2="85.51" stroke="#ff5c5c" stroke-width="1.0" opacity="0.95" stroke-linecap="butt"/><rect x="109.12" y="74.79" width="2.69" height="4.12" fill="#ff5c5c" rx="0.6"/><line x1="115.28" y1="62.42" x2="115.28" y2="145.7" stroke="#ff5c5c" stroke-width="1.0" opacity="0.95" stroke-linecap="butt"/><rect x="113.93" y="76.43" width="2.69" height="57.72" fill="#ff5c5c" rx="0.6"/><line x1="120.08" y1="125.09" x2="120.08" y2="193.53" stroke="#ff5c5c" stroke-width="1.0" opacity="0.95" stroke-linecap="butt"/><rect x="118.74" y="126.73" width="2.69" height="59.37" fill="#ff5c5c" rx="0.6"/><line x1="124.89" y1="159.72" x2="124.89" y2="181.98" stroke="#22d67f" stroke-width="1.0" opacity="0.95" stroke-linecap="butt"/><rect x="123.54" y="159.72" width="2.69" height="19.79" fill="#22d67f" rx="0.6"/><line x1="129.69" y1="141.58" x2="129.69" y2="177.03" stroke="#ff5c5c" stroke-width="1.0" opacity="0.95" stroke-linecap="butt"/><rect x="128.35" y="142.4" width="2.69" height="32.98" fill="#ff5c5c" rx="0.6"/><line x1="134.5" y1="174.56" x2="134.5" y2="203.42" stroke="#ff5c5c" stroke-width="1.0" opacity="0.95" stroke-linecap="butt"/><rect x="133.15" y="175.39" width="2.69" height="23.91" fill="#ff5c5c" rx="0.6"/><line x1="139.3" y1="191.05" x2="139.3" y2="209.19" stroke="#ff5c5c" stroke-width="1.0" opacity="0.95" stroke-linecap="butt"/><rect x="137.96" y="196.82" width="2.69" height="7.42" fill="#ff5c5c" rx="0.6"/><line x1="144.11" y1="173.74" x2="144.11" y2="219.09" stroke="#22d67f" stroke-width="1.0" opacity="0.95" stroke-linecap="butt"/><rect x="142.76" y="189.4" width="2.69" height="12.37" fill="#22d67f" rx="0.6"/><line x1="148.91" y1="181.16" x2="148.91" y2="215.79" stroke="#ff5c5c" stroke-width="1.0" opacity="0.95" stroke-linecap="butt"/><rect x="147.57" y="183.63" width="2.69" height="18.97" fill="#ff5c5c" rx="0.6"/><line x1="153.72" y1="252.07" x2="153.72" y2="285.88" stroke="#22d67f" stroke-width="1.0" opacity="0.95" stroke-linecap="butt"/><rect x="152.37" y="263.62" width="2.69" height="21.44" fill="#22d67f" rx="0.6"/><line x1="158.52" y1="243" x2="158.52" y2="276.81" stroke="#22d67f" stroke-width="1.0" opacity="0.95" stroke-linecap="butt"/><rect x="157.18" y="270.21" width="2.69" height="3.3" fill="#22d67f" rx="0.6"/><line x1="163.33" y1="253.72" x2="163.33" y2="286.7" stroke="#ff5c5c" stroke-width="1.0" opacity="0.95" stroke-linecap="butt"/><rect x="161.98" y="266.91" width="2.69" height="1.1" fill="#ff5c5c" rx="0.6"/><line x1="168.13" y1="243" x2="168.13" y2="280.93" stroke="#ff5c5c" stroke-width="1.0" opacity="0.95" stroke-linecap="butt"/><rect x="166.79" y="249.6" width="2.69" height="29.69" fill="#ff5c5c" rx="0.6"/><line x1="172.94" y1="273.51" x2="172.94" y2="306.49" stroke="#ff5c5c" stroke-width="1.0" opacity="0.95" stroke-linecap="butt"/><rect x="171.59" y="280.11" width="2.69" height="23.91" fill="#ff5c5c" rx="0.6"/><line x1="177.74" y1="286.7" x2="177.74" y2="347.72" stroke="#22d67f" stroke-width="1.0" opacity="0.95" stroke-linecap="butt"/><rect x="176.4" y="286.7" width="2.69" height="49.48" fill="#22d67f" rx="0.6"/><line x1="182.55" y1="237.23" x2="182.55" y2="264.44" stroke="#22d67f" stroke-width="1.0" opacity="0.95" stroke-linecap="butt"/><rect x="181.2" y="237.23" width="2.69" height="9.9" fill="#22d67f" rx="0.6"/><line x1="187.36" y1="239.7" x2="187.36" y2="261.97" stroke="#ff5c5c" stroke-width="1.0" opacity="0.95" stroke-linecap="butt"/><rect x="186.01" y="240.53" width="2.69" height="4.12" fill="#ff5c5c" rx="0.6"/><line x1="192.16" y1="234.76" x2="192.16" y2="262.79" stroke="#22d67f" stroke-width="1.0" opacity="0.95" stroke-linecap="butt"/><rect x="190.82" y="251.25" width="2.69" height="9.07" fill="#22d67f" rx="0.6"/><line x1="196.97" y1="248.77" x2="196.97" y2="271.04" stroke="#22d67f" stroke-width="1.0" opacity="0.95" stroke-linecap="butt"/><rect x="195.62" y="252.9" width="2.69" height="3.3" fill="#22d67f" rx="0.6"/><line x1="201.77" y1="248.77" x2="201.77" y2="266.09" stroke="#ff5c5c" stroke-width="1.0" opacity="0.95" stroke-linecap="butt"/><rect x="200.43" y="252.07" width="2.69" height="8.25" fill="#ff5c5c" rx="0.6"/><line x1="206.58" y1="240.53" x2="206.58" y2="257.02" stroke="#22d67f" stroke-width="1.0" opacity="0.95" stroke-linecap="butt"/><rect x="205.23" y="244.65" width="2.69" height="12.37" fill="#22d67f" rx="0.6"/><line x1="211.38" y1="233.93" x2="211.38" y2="262.79" stroke="#ff5c5c" stroke-width="1.0" opacity="0.95" stroke-linecap="butt"/><rect x="210.04" y="236.4" width="2.69" height="21.44" fill="#ff5c5c" rx="0.6"/><line x1="216.19" y1="255.37" x2="216.19" y2="267.74" stroke="#22d67f" stroke-width="1.0" opacity="0.95" stroke-linecap="butt"/><rect x="214.84" y="261.97" width="2.69" height="1.65" fill="#22d67f" rx="0.6"/><line x1="220.99" y1="239.7" x2="220.99" y2="294.95" stroke="#22d67f" stroke-width="1.0" opacity="0.95" stroke-linecap="butt"/><rect x="219.65" y="242.18" width="2.69" height="47" fill="#22d67f" rx="0.6"/><line x1="225.8" y1="238.88" x2="225.8" y2="257.84" stroke="#ff5c5c" stroke-width="1.0" opacity="0.95" stroke-linecap="butt"/><rect x="224.45" y="252.9" width="2.69" height="4.12" fill="#ff5c5c" rx="0.6"/><line x1="230.6" y1="228.98" x2="230.6" y2="251.25" stroke="#ff5c5c" stroke-width="1.0" opacity="0.95" stroke-linecap="butt"/><rect x="229.26" y="241.35" width="2.69" height="4.12" fill="#ff5c5c" rx="0.6"/><line x1="235.41" y1="238.88" x2="235.41" y2="254.55" stroke="#22d67f" stroke-width="1.0" opacity="0.95" stroke-linecap="butt"/><rect x="234.06" y="248.77" width="2.69" height="3.3" fill="#22d67f" rx="0.6"/><line x1="240.21" y1="242.18" x2="240.21" y2="258.67" stroke="#ff5c5c" stroke-width="1.0" opacity="0.95" stroke-linecap="butt"/><rect x="238.87" y="243.83" width="2.69" height="3.3" fill="#ff5c5c" rx="0.6"/><line x1="245.02" y1="248.77" x2="245.02" y2="264.44" stroke="#ff5c5c" stroke-width="1.0" opacity="0.95" stroke-linecap="butt"/><rect x="243.67" y="252.07" width="2.69" height="12.37" fill="#ff5c5c" rx="0.6"/><line x1="249.83" y1="244.65" x2="249.83" y2="262.79" stroke="#22d67f" stroke-width="1.0" opacity="0.95" stroke-linecap="butt"/><rect x="248.48" y="246.3" width="2.69" height="14.02" fill="#22d67f" rx="0.6"/><line x1="254.63" y1="201.77" x2="254.63" y2="235.58" stroke="#ff5c5c" stroke-width="1.0" opacity="0.95" stroke-linecap="butt"/><rect x="253.29" y="206.72" width="2.69" height="27.21" fill="#ff5c5c" rx="0.6"/><line x1="259.44" y1="225.69" x2="259.44" y2="256.19" stroke="#22d67f" stroke-width="1.0" opacity="0.95" stroke-linecap="butt"/><rect x="258.09" y="228.16" width="2.69" height="23.91" fill="#22d67f" rx="0.6"/><line x1="264.24" y1="228.16" x2="264.24" y2="243.83" stroke="#ff5c5c" stroke-width="1.0" opacity="0.95" stroke-linecap="butt"/><rect x="262.9" y="229.81" width="2.69" height="10.72" fill="#ff5c5c" rx="0.6"/><line x1="269.05" y1="223.21" x2="269.05" y2="238.88" stroke="#22d67f" stroke-width="1.0" opacity="0.95" stroke-linecap="butt"/><rect x="267.7" y="236.4" width="2.69" height="1.65" fill="#22d67f" rx="0.6"/><line x1="273.85" y1="229.81" x2="273.85" y2="254.55" stroke="#ff5c5c" stroke-width="1.0" opacity="0.95" stroke-linecap="butt"/><rect x="272.51" y="240.53" width="2.69" height="13.19" fill="#ff5c5c" rx="0.6"/><line x1="278.66" y1="158.07" x2="278.66" y2="202.6" stroke="#22d67f" stroke-width="1.0" opacity="0.95" stroke-linecap="butt"/><rect x="277.31" y="171.26" width="2.69" height="27.21" fill="#22d67f" rx="0.6"/><line x1="283.46" y1="153.95" x2="283.46" y2="183.63" stroke="#22d67f" stroke-width="1.0" opacity="0.95" stroke-linecap="butt"/><rect x="282.12" y="163.02" width="2.69" height="11.54" fill="#22d67f" rx="0.6"/><line x1="288.27" y1="144.05" x2="288.27" y2="158.07" stroke="#22d67f" stroke-width="1.0" opacity="0.95" stroke-linecap="butt"/><rect x="286.92" y="150.65" width="2.69" height="2.47" fill="#22d67f" rx="0.6"/><line x1="293.07" y1="165.49" x2="293.07" y2="180.33" stroke="#22d67f" stroke-width="1.0" opacity="0.95" stroke-linecap="butt"/><rect x="291.73" y="172.09" width="2.69" height="2.47" fill="#22d67f" rx="0.6"/><line x1="297.88" y1="139.93" x2="297.88" y2="163.02" stroke="#22d67f" stroke-width="1.0" opacity="0.95" stroke-linecap="butt"/><rect x="296.53" y="148.17" width="2.69" height="14.02" fill="#22d67f" rx="0.6"/><line x1="302.68" y1="139.1" x2="302.68" y2="166.31" stroke="#ff5c5c" stroke-width="1.0" opacity="0.95" stroke-linecap="butt"/><rect x="301.34" y="139.93" width="2.69" height="23.91" fill="#ff5c5c" rx="0.6"/><line x1="307.49" y1="146.52" x2="307.49" y2="176.21" stroke="#ff5c5c" stroke-width="1.0" opacity="0.95" stroke-linecap="butt"/><rect x="306.14" y="151.47" width="2.69" height="18.97" fill="#ff5c5c" rx="0.6"/><line x1="312.3" y1="111.89" x2="312.3" y2="168.79" stroke="#22d67f" stroke-width="1.0" opacity="0.95" stroke-linecap="butt"/><rect x="310.95" y="131.68" width="2.69" height="36.28" fill="#22d67f" rx="0.6"/><line x1="317.1" y1="130.86" x2="317.1" y2="157.24" stroke="#22d67f" stroke-width="1.0" opacity="0.95" stroke-linecap="butt"/><rect x="315.76" y="134.16" width="2.69" height="22.26" fill="#22d67f" rx="0.6"/><line x1="321.91" y1="113.54" x2="321.91" y2="138.28" stroke="#ff5c5c" stroke-width="1.0" opacity="0.95" stroke-linecap="butt"/><rect x="320.56" y="131.68" width="2.69" height="6.6" fill="#ff5c5c" rx="0.6"/><line x1="326.71" y1="124.26" x2="326.71" y2="163.02" stroke="#ff5c5c" stroke-width="1.0" opacity="0.95" stroke-linecap="butt"/><rect x="325.37" y="130.03" width="2.69" height="19.79" fill="#ff5c5c" rx="0.6"/><line x1="331.52" y1="140.75" x2="331.52" y2="164.67" stroke="#22d67f" stroke-width="1.0" opacity="0.95" stroke-linecap="butt"/><rect x="330.17" y="144.88" width="2.69" height="6.6" fill="#22d67f" rx="0.6"/><line x1="336.32" y1="139.1" x2="336.32" y2="160.54" stroke="#ff5c5c" stroke-width="1.0" opacity="0.95" stroke-linecap="butt"/><rect x="334.98" y="146.52" width="2.69" height="13.19" fill="#ff5c5c" rx="0.6"/><line x1="341.13" y1="160.54" x2="341.13" y2="177.03" stroke="#ff5c5c" stroke-width="1.0" opacity="0.95" stroke-linecap="butt"/><rect x="339.78" y="163.02" width="2.69" height="12.37" fill="#ff5c5c" rx="0.6"/><line x1="345.93" y1="168.79" x2="345.93" y2="184.46" stroke="#ff5c5c" stroke-width="1.0" opacity="0.95" stroke-linecap="butt"/><rect x="344.59" y="172.09" width="2.69" height="7.42" fill="#ff5c5c" rx="0.6"/><line x1="350.74" y1="189.4" x2="350.74" y2="210.02" stroke="#ff5c5c" stroke-width="1.0" opacity="0.95" stroke-linecap="butt"/><rect x="349.39" y="194.35" width="2.69" height="5.77" fill="#ff5c5c" rx="0.6"/><line x1="355.54" y1="191.88" x2="355.54" y2="225.69" stroke="#ff5c5c" stroke-width="1.0" opacity="0.95" stroke-linecap="butt"/><rect x="354.2" y="199.3" width="2.69" height="25.56" fill="#ff5c5c" rx="0.6"/><line x1="360.35" y1="213.32" x2="360.35" y2="233.11" stroke="#22d67f" stroke-width="1.0" opacity="0.95" stroke-linecap="butt"/><rect x="359" y="224.04" width="2.69" height="1.1" fill="#22d67f" rx="0.6"/><line x1="365.15" y1="173.74" x2="365.15" y2="211.67" stroke="#22d67f" stroke-width="1.0" opacity="0.95" stroke-linecap="butt"/><rect x="363.81" y="195.18" width="2.69" height="9.07" fill="#22d67f" rx="0.6"/><line x1="369.96" y1="177.03" x2="369.96" y2="190.23" stroke="#22d67f" stroke-width="1.0" opacity="0.95" stroke-linecap="butt"/><rect x="368.61" y="186.1" width="2.69" height="2.47" fill="#22d67f" rx="0.6"/><line x1="374.77" y1="178.68" x2="374.77" y2="205.07" stroke="#22d67f" stroke-width="1.0" opacity="0.95" stroke-linecap="butt"/><rect x="373.42" y="191.05" width="2.69" height="3.3" fill="#22d67f" rx="0.6"/><line x1="379.57" y1="196" x2="379.57" y2="206.72" stroke="#22d67f" stroke-width="1.0" opacity="0.95" stroke-linecap="butt"/><rect x="378.22" y="199.3" width="2.69" height="1.1" fill="#22d67f" rx="0.6"/><line x1="384.38" y1="194.35" x2="384.38" y2="210.02" stroke="#ff5c5c" stroke-width="1.0" opacity="0.95" stroke-linecap="butt"/><rect x="383.03" y="200.95" width="2.69" height="7.42" fill="#ff5c5c" rx="0.6"/><line x1="389.18" y1="194.35" x2="389.18" y2="214.14" stroke="#ff5c5c" stroke-width="1.0" opacity="0.95" stroke-linecap="butt"/><rect x="387.84" y="201.77" width="2.69" height="12.37" fill="#ff5c5c" rx="0.6"/><line x1="393.99" y1="199.3" x2="393.99" y2="210.02" stroke="#22d67f" stroke-width="1.0" opacity="0.95" stroke-linecap="butt"/><rect x="392.64" y="208.37" width="2.69" height="1.65" fill="#22d67f" rx="0.6"/><line x1="398.79" y1="213.32" x2="398.79" y2="232.28" stroke="#ff5c5c" stroke-width="1.0" opacity="0.95" stroke-linecap="butt"/><rect x="397.45" y="215.79" width="2.69" height="11.54" fill="#ff5c5c" rx="0.6"/><line x1="403.6" y1="224.04" x2="403.6" y2="245.48" stroke="#ff5c5c" stroke-width="1.0" opacity="0.95" stroke-linecap="butt"/><rect x="402.25" y="228.98" width="2.69" height="16.49" fill="#ff5c5c" rx="0.6"/><line x1="408.4" y1="226.51" x2="408.4" y2="261.14" stroke="#22d67f" stroke-width="1.0" opacity="0.95" stroke-linecap="butt"/><rect x="407.06" y="243.83" width="2.69" height="9.9" fill="#22d67f" rx="0.6"/><line x1="413.21" y1="241.35" x2="413.21" y2="315.57" stroke="#ff5c5c" stroke-width="1.0" opacity="0.95" stroke-linecap="butt"/><rect x="411.86" y="243.83" width="2.69" height="69.27" fill="#ff5c5c" rx="0.6"/><line x1="418.01" y1="259.49" x2="418.01" y2="321.34" stroke="#22d67f" stroke-width="1.0" opacity="0.95" stroke-linecap="butt"/><rect x="416.67" y="266.91" width="2.69" height="46.18" fill="#22d67f" rx="0.6"/><line x1="422.82" y1="225.69" x2="422.82" y2="240.53" stroke="#ff5c5c" stroke-width="1.0" opacity="0.95" stroke-linecap="butt"/><rect x="421.47" y="230.63" width="2.69" height="4.95" fill="#ff5c5c" rx="0.6"/><line x1="427.62" y1="233.93" x2="427.62" y2="243" stroke="#ff5c5c" stroke-width="1.0" opacity="0.95" stroke-linecap="butt"/><rect x="426.28" y="235.58" width="2.69" height="2.47" fill="#ff5c5c" rx="0.6"/><line x1="432.43" y1="238.05" x2="432.43" y2="238.05" stroke="#22d67f" stroke-width="1.0" opacity="0.95" stroke-linecap="butt"/><rect x="431.08" y="238.05" width="2.69" height="1.1" fill="#22d67f" rx="0.6"/><line x1="437.23" y1="238.05" x2="437.23" y2="238.05" stroke="#22d67f" stroke-width="1.0" opacity="0.95" stroke-linecap="butt"/><rect x="435.89" y="238.05" width="2.69" height="1.1" fill="#22d67f" rx="0.6"/><line x1="442.04" y1="238.05" x2="442.04" y2="238.05" stroke="#22d67f" stroke-width="1.0" opacity="0.95" stroke-linecap="butt"/><rect x="440.69" y="238.05" width="2.69" height="1.1" fill="#22d67f" rx="0.6"/><line x1="446.85" y1="225.69" x2="446.85" y2="257.02" stroke="#ff5c5c" stroke-width="1.0" opacity="0.95" stroke-linecap="butt"/><rect x="445.5" y="232.28" width="2.69" height="23.09" fill="#ff5c5c" rx="0.6"/><line x1="451.65" y1="226.51" x2="451.65" y2="246.3" stroke="#22d67f" stroke-width="1.0" opacity="0.95" stroke-linecap="butt"/><rect x="450.31" y="227.33" width="2.69" height="18.14" fill="#22d67f" rx="0.6"/><line x1="456.46" y1="221.56" x2="456.46" y2="238.88" stroke="#ff5c5c" stroke-width="1.0" opacity="0.95" stroke-linecap="butt"/><rect x="455.11" y="236.4" width="2.69" height="1.1" fill="#ff5c5c" rx="0.6"/><line x1="461.26" y1="222.39" x2="461.26" y2="238.88" stroke="#22d67f" stroke-width="1.0" opacity="0.95" stroke-linecap="butt"/><rect x="459.92" y="228.16" width="2.69" height="2.47" fill="#22d67f" rx="0.6"/><line x1="466.07" y1="226.51" x2="466.07" y2="243" stroke="#ff5c5c" stroke-width="1.0" opacity="0.95" stroke-linecap="butt"/><rect x="464.72" y="228.16" width="2.69" height="9.07" fill="#ff5c5c" rx="0.6"/><line x1="470.87" y1="228.98" x2="470.87" y2="252.07" stroke="#22d67f" stroke-width="1.0" opacity="0.95" stroke-linecap="butt"/><rect x="469.53" y="236.4" width="2.69" height="12.37" fill="#22d67f" rx="0.6"/><line x1="475.68" y1="227.33" x2="475.68" y2="242.18" stroke="#ff5c5c" stroke-width="1.0" opacity="0.95" stroke-linecap="butt"/><rect x="474.33" y="232.28" width="2.69" height="5.77" fill="#ff5c5c" rx="0.6"/><line x1="480.48" y1="233.11" x2="480.48" y2="249.6" stroke="#ff5c5c" stroke-width="1.0" opacity="0.95" stroke-linecap="butt"/><rect x="479.14" y="240.53" width="2.69" height="1.65" fill="#ff5c5c" rx="0.6"/><line x1="485.29" y1="235.58" x2="485.29" y2="255.37" stroke="#ff5c5c" stroke-width="1.0" opacity="0.95" stroke-linecap="butt"/><rect x="483.94" y="240.53" width="2.69" height="9.07" fill="#ff5c5c" rx="0.6"/><line x1="490.09" y1="191.05" x2="490.09" y2="224.04" stroke="#22d67f" stroke-width="1.0" opacity="0.95" stroke-linecap="butt"/><rect x="488.75" y="201.77" width="2.69" height="22.26" fill="#22d67f" rx="0.6"/><line x1="494.9" y1="130.03" x2="494.9" y2="150.65" stroke="#ff5c5c" stroke-width="1.0" opacity="0.95" stroke-linecap="butt"/><rect x="493.55" y="131.68" width="2.69" height="10.72" fill="#ff5c5c" rx="0.6"/><line x1="499.7" y1="131.68" x2="499.7" y2="152.3" stroke="#22d67f" stroke-width="1.0" opacity="0.95" stroke-linecap="butt"/><rect x="498.36" y="139.93" width="2.69" height="4.95" fill="#22d67f" rx="0.6"/><line x1="504.51" y1="134.16" x2="504.51" y2="158.07" stroke="#ff5c5c" stroke-width="1.0" opacity="0.95" stroke-linecap="butt"/><rect x="503.16" y="136.63" width="2.69" height="18.97" fill="#ff5c5c" rx="0.6"/><line x1="509.32" y1="128.38" x2="509.32" y2="149" stroke="#22d67f" stroke-width="1.0" opacity="0.95" stroke-linecap="butt"/><rect x="507.97" y="133.33" width="2.69" height="14.84" fill="#22d67f" rx="0.6"/><line x1="514.12" y1="117.66" x2="514.12" y2="149" stroke="#22d67f" stroke-width="1.0" opacity="0.95" stroke-linecap="butt"/><rect x="512.78" y="139.1" width="2.69" height="9.07" fill="#22d67f" rx="0.6"/><line x1="518.93" y1="131.68" x2="518.93" y2="147.35" stroke="#ff5c5c" stroke-width="1.0" opacity="0.95" stroke-linecap="butt"/><rect x="517.58" y="133.33" width="2.69" height="12.37" fill="#ff5c5c" rx="0.6"/><line x1="523.73" y1="137.45" x2="523.73" y2="156.42" stroke="#22d67f" stroke-width="1.0" opacity="0.95" stroke-linecap="butt"/><rect x="522.39" y="144.88" width="2.69" height="4.95" fill="#22d67f" rx="0.6"/><line x1="528.54" y1="134.16" x2="528.54" y2="150.65" stroke="#ff5c5c" stroke-width="1.0" opacity="0.95" stroke-linecap="butt"/><rect x="527.19" y="144.05" width="2.69" height="1.65" fill="#ff5c5c" rx="0.6"/><line x1="533.34" y1="117.66" x2="533.34" y2="136.63" stroke="#22d67f" stroke-width="1.0" opacity="0.95" stroke-linecap="butt"/><rect x="532" y="133.33" width="2.69" height="3.3" fill="#22d67f" rx="0.6"/><line x1="538.15" y1="120.96" x2="538.15" y2="136.63" stroke="#22d67f" stroke-width="1.0" opacity="0.95" stroke-linecap="butt"/><rect x="536.8" y="125.91" width="2.69" height="7.42" fill="#22d67f" rx="0.6"/><line x1="542.95" y1="125.09" x2="542.95" y2="144.05" stroke="#ff5c5c" stroke-width="1.0" opacity="0.95" stroke-linecap="butt"/><rect x="541.61" y="125.91" width="2.69" height="5.77" fill="#ff5c5c" rx="0.6"/><line x1="547.76" y1="128.38" x2="547.76" y2="148.17" stroke="#ff5c5c" stroke-width="1.0" opacity="0.95" stroke-linecap="butt"/><rect x="546.41" y="130.03" width="2.69" height="11.54" fill="#ff5c5c" rx="0.6"/><line x1="552.56" y1="123.44" x2="552.56" y2="151.47" stroke="#22d67f" stroke-width="1.0" opacity="0.95" stroke-linecap="butt"/><rect x="551.22" y="133.33" width="2.69" height="9.07" fill="#22d67f" rx="0.6"/><line x1="557.37" y1="106.12" x2="557.37" y2="126.73" stroke="#22d67f" stroke-width="1.0" opacity="0.95" stroke-linecap="butt"/><rect x="556.02" y="117.66" width="2.69" height="9.07" fill="#22d67f" rx="0.6"/><line x1="562.17" y1="109.42" x2="562.17" y2="125.91" stroke="#ff5c5c" stroke-width="1.0" opacity="0.95" stroke-linecap="butt"/><rect x="560.83" y="111.07" width="2.69" height="4.12" fill="#ff5c5c" rx="0.6"/><line x1="566.98" y1="57.47" x2="566.98" y2="111.07" stroke="#22d67f" stroke-width="1.0" opacity="0.95" stroke-linecap="butt"/><rect x="565.63" y="72.31" width="2.69" height="33.81" fill="#22d67f" rx="0.6"/><line x1="571.79" y1="44.28" x2="571.79" y2="78.08" stroke="#22d67f" stroke-width="1.0" opacity="0.95" stroke-linecap="butt"/><rect x="570.44" y="68.19" width="2.69" height="7.42" fill="#22d67f" rx="0.6"/><line x1="576.59" y1="69.84" x2="576.59" y2="127.56" stroke="#ff5c5c" stroke-width="1.0" opacity="0.95" stroke-linecap="butt"/><rect x="575.25" y="83.03" width="2.69" height="38.76" fill="#ff5c5c" rx="0.6"/><line x1="581.4" y1="95.4" x2="581.4" y2="125.09" stroke="#22d67f" stroke-width="1.0" opacity="0.95" stroke-linecap="butt"/><rect x="580.05" y="101.17" width="2.69" height="14.84" fill="#22d67f" rx="0.6"/><line x1="586.2" y1="77.26" x2="586.2" y2="105.3" stroke="#22d67f" stroke-width="1.0" opacity="0.95" stroke-linecap="butt"/><rect x="584.86" y="80.56" width="2.69" height="21.44" fill="#22d67f" rx="0.6"/><line x1="591.01" y1="95.4" x2="591.01" y2="125.09" stroke="#ff5c5c" stroke-width="1.0" opacity="0.95" stroke-linecap="butt"/><rect x="589.66" y="102" width="2.69" height="14.84" fill="#ff5c5c" rx="0.6"/><line x1="595.81" y1="126.73" x2="595.81" y2="156.42" stroke="#ff5c5c" stroke-width="1.0" opacity="0.95" stroke-linecap="butt"/><rect x="594.47" y="127.56" width="2.69" height="14.02" fill="#ff5c5c" rx="0.6"/><line x1="600.62" y1="118.49" x2="600.62" y2="147.35" stroke="#22d67f" stroke-width="1.0" opacity="0.95" stroke-linecap="butt"/><rect x="599.27" y="128.38" width="2.69" height="13.19" fill="#22d67f" rx="0.6"/><line x1="605.42" y1="120.96" x2="605.42" y2="138.28" stroke="#22d67f" stroke-width="1.0" opacity="0.95" stroke-linecap="butt"/><rect x="604.08" y="130.03" width="2.69" height="1.1" fill="#22d67f" rx="0.6"/><line x1="610.23" y1="128.38" x2="610.23" y2="149" stroke="#ff5c5c" stroke-width="1.0" opacity="0.95" stroke-linecap="butt"/><rect x="608.88" y="132.51" width="2.69" height="2.47" fill="#ff5c5c" rx="0.6"/><line x1="615.03" y1="127.56" x2="615.03" y2="169.61" stroke="#ff5c5c" stroke-width="1.0" opacity="0.95" stroke-linecap="butt"/><rect x="613.69" y="128.38" width="2.69" height="41.23" fill="#ff5c5c" rx="0.6"/><line x1="619.84" y1="158.07" x2="619.84" y2="179.51" stroke="#22d67f" stroke-width="1.0" opacity="0.95" stroke-linecap="butt"/><rect x="618.49" y="158.07" width="2.69" height="12.37" fill="#22d67f" rx="0.6"/><line x1="624.64" y1="163.02" x2="624.64" y2="193.53" stroke="#ff5c5c" stroke-width="1.0" opacity="0.95" stroke-linecap="butt"/><rect x="623.3" y="167.14" width="2.69" height="18.14" fill="#ff5c5c" rx="0.6"/><line x1="629.45" y1="176.21" x2="629.45" y2="190.23" stroke="#ff5c5c" stroke-width="1.0" opacity="0.95" stroke-linecap="butt"/><rect x="628.1" y="186.93" width="2.69" height="1.1" fill="#ff5c5c" rx="0.6"/><line x1="634.26" y1="132.51" x2="634.26" y2="168.79" stroke="#ff5c5c" stroke-width="1.0" opacity="0.95" stroke-linecap="butt"/><rect x="632.91" y="161.37" width="2.69" height="6.6" fill="#ff5c5c" rx="0.6"/><line x1="639.06" y1="144.05" x2="639.06" y2="173.74" stroke="#ff5c5c" stroke-width="1.0" opacity="0.95" stroke-linecap="butt"/><rect x="637.71" y="163.02" width="2.69" height="1.65" fill="#ff5c5c" rx="0.6"/><line x1="643.87" y1="167.14" x2="643.87" y2="192.7" stroke="#ff5c5c" stroke-width="1.0" opacity="0.95" stroke-linecap="butt"/><rect x="642.52" y="169.61" width="2.69" height="14.02" fill="#ff5c5c" rx="0.6"/><line x1="648.67" y1="176.21" x2="648.67" y2="210.02" stroke="#ff5c5c" stroke-width="1.0" opacity="0.95" stroke-linecap="butt"/><rect x="647.33" y="191.05" width="2.69" height="9.07" fill="#ff5c5c" rx="0.6"/><line x1="653.48" y1="177.03" x2="653.48" y2="198.47" stroke="#22d67f" stroke-width="1.0" opacity="0.95" stroke-linecap="butt"/><rect x="652.13" y="181.16" width="2.69" height="6.6" fill="#22d67f" rx="0.6"/><line x1="658.28" y1="153.95" x2="658.28" y2="172.91" stroke="#ff5c5c" stroke-width="1.0" opacity="0.95" stroke-linecap="butt"/><rect x="656.94" y="159.72" width="2.69" height="11.54" fill="#ff5c5c" rx="0.6"/><line x1="663.09" y1="143.23" x2="663.09" y2="179.51" stroke="#22d67f" stroke-width="1.0" opacity="0.95" stroke-linecap="butt"/><rect x="661.74" y="149" width="2.69" height="22.26" fill="#22d67f" rx="0.6"/><line x1="667.89" y1="166.31" x2="667.89" y2="189.4" stroke="#ff5c5c" stroke-width="1.0" opacity="0.95" stroke-linecap="butt"/><rect x="666.55" y="166.31" width="2.69" height="14.84" fill="#ff5c5c" rx="0.6"/><line x1="672.7" y1="167.14" x2="672.7" y2="190.23" stroke="#ff5c5c" stroke-width="1.0" opacity="0.95" stroke-linecap="butt"/><rect x="671.35" y="178.68" width="2.69" height="11.54" fill="#ff5c5c" rx="0.6"/><line x1="677.5" y1="186.93" x2="677.5" y2="216.61" stroke="#ff5c5c" stroke-width="1.0" opacity="0.95" stroke-linecap="butt"/><rect x="676.16" y="187.75" width="2.69" height="18.97" fill="#ff5c5c" rx="0.6"/><line x1="682.31" y1="201.77" x2="682.31" y2="219.91" stroke="#ff5c5c" stroke-width="1.0" opacity="0.95" stroke-linecap="butt"/><rect x="680.96" y="204.25" width="2.69" height="13.19" fill="#ff5c5c" rx="0.6"/><line x1="687.11" y1="215.79" x2="687.11" y2="243" stroke="#ff5c5c" stroke-width="1.0" opacity="0.95" stroke-linecap="butt"/><rect x="685.77" y="219.09" width="2.69" height="4.95" fill="#ff5c5c" rx="0.6"/><line x1="691.92" y1="192.7" x2="691.92" y2="225.69" stroke="#22d67f" stroke-width="1.0" opacity="0.95" stroke-linecap="butt"/><rect x="690.57" y="198.47" width="2.69" height="25.56" fill="#22d67f" rx="0.6"/><line x1="696.72" y1="192.7" x2="696.72" y2="205.07" stroke="#ff5c5c" stroke-width="1.0" opacity="0.95" stroke-linecap="butt"/><rect x="695.38" y="198.47" width="2.69" height="2.47" fill="#ff5c5c" rx="0.6"/><line x1="701.53" y1="196" x2="701.53" y2="210.02" stroke="#ff5c5c" stroke-width="1.0" opacity="0.95" stroke-linecap="butt"/><rect x="700.18" y="199.3" width="2.69" height="10.72" fill="#ff5c5c" rx="0.6"/><line x1="706.34" y1="203.42" x2="706.34" y2="224.86" stroke="#ff5c5c" stroke-width="1.0" opacity="0.95" stroke-linecap="butt"/><rect x="704.99" y="207.54" width="2.69" height="16.49" fill="#ff5c5c" rx="0.6"/><line x1="711.14" y1="219.09" x2="711.14" y2="234.76" stroke="#22d67f" stroke-width="1.0" opacity="0.95" stroke-linecap="butt"/><rect x="709.8" y="225.69" width="2.69" height="6.6" fill="#22d67f" rx="0.6"/><line x1="715.95" y1="217.44" x2="715.95" y2="232.28" stroke="#22d67f" stroke-width="1.0" opacity="0.95" stroke-linecap="butt"/><rect x="714.6" y="223.21" width="2.69" height="5.77" fill="#22d67f" rx="0.6"/><line x1="720.75" y1="210.84" x2="720.75" y2="226.51" stroke="#ff5c5c" stroke-width="1.0" opacity="0.95" stroke-linecap="butt"/><rect x="719.41" y="220.74" width="2.69" height="2.47" fill="#ff5c5c" rx="0.6"/><line x1="725.56" y1="211.67" x2="725.56" y2="226.51" stroke="#ff5c5c" stroke-width="1.0" opacity="0.95" stroke-linecap="butt"/><rect x="724.21" y="220.74" width="2.69" height="3.3" fill="#ff5c5c" rx="0.6"/><line x1="730.36" y1="202.6" x2="730.36" y2="227.33" stroke="#ff5c5c" stroke-width="1.0" opacity="0.95" stroke-linecap="butt"/><rect x="729.02" y="213.32" width="2.69" height="12.37" fill="#ff5c5c" rx="0.6"/><line x1="735.17" y1="213.32" x2="735.17" y2="228.98" stroke="#22d67f" stroke-width="1.0" opacity="0.95" stroke-linecap="butt"/><rect x="733.82" y="219.09" width="2.69" height="4.12" fill="#22d67f" rx="0.6"/><line x1="739.97" y1="186.1" x2="739.97" y2="211.67" stroke="#22d67f" stroke-width="1.0" opacity="0.95" stroke-linecap="butt"/><rect x="738.63" y="199.3" width="2.69" height="8.25" fill="#22d67f" rx="0.6"/><line x1="744.78" y1="191.05" x2="744.78" y2="216.61" stroke="#ff5c5c" stroke-width="1.0" opacity="0.95" stroke-linecap="butt"/><rect x="743.43" y="196" width="2.69" height="7.42" fill="#ff5c5c" rx="0.6"/><line x1="749.58" y1="200.12" x2="749.58" y2="211.67" stroke="#22d67f" stroke-width="1.0" opacity="0.95" stroke-linecap="butt"/><rect x="748.24" y="202.6" width="2.69" height="1.65" fill="#22d67f" rx="0.6"/><line x1="754.39" y1="205.9" x2="754.39" y2="220.74" stroke="#ff5c5c" stroke-width="1.0" opacity="0.95" stroke-linecap="butt"/><rect x="753.04" y="209.19" width="2.69" height="10.72" fill="#ff5c5c" rx="0.6"/><line x1="759.19" y1="209.19" x2="759.19" y2="227.33" stroke="#ff5c5c" stroke-width="1.0" opacity="0.95" stroke-linecap="butt"/><rect x="757.85" y="219.91" width="2.69" height="2.47" fill="#ff5c5c" rx="0.6"/><line x1="764" y1="224.04" x2="764" y2="256.19" stroke="#ff5c5c" stroke-width="1.0" opacity="0.95" stroke-linecap="butt"/><rect x="762.65" y="228.98" width="2.69" height="26.39" fill="#ff5c5c" rx="0.6"/><line x1="518.93" y1="151.94" x2="764" y2="276.97" stroke="#f5b400" stroke-width="1.6" stroke-linecap="butt"/><line x1="518.93" y1="53.28" x2="764" y2="189.89" stroke="#f5b400" stroke-width="1.6" stroke-linecap="butt"/><text x="760" y="181.89" fill="#f5b400" font-size="9.5" text-anchor="end" font-family="'Inter', -apple-system, sans-serif" font-weight="700">Güncel Kanal</text><circle cx="571.79" cy="44.28" r="4.5" fill="none" stroke="#ff5c5c" stroke-width="2"/><circle cx="509.32" cy="133.33" r="4.5" fill="none" stroke="#22d67f" stroke-width="2"/><circle cx="648.67" cy="200.12" r="4.5" fill="none" stroke="#ff5c5c" stroke-width="2"/><circle cx="687.11" cy="243" r="4.5" fill="none" stroke="#22d67f" stroke-width="2"/></svg><svg x="0.0" y="416.0" width="780.0" height="100.0" viewBox="0 0 780.0 100.0"><rect width="780.0" height="100.0" fill="#0d1015"/><line x1="48" y1="23.71" x2="764" y2="23.71" stroke="#454b56" stroke-width="1" stroke-dasharray="2,3" opacity="0.5" stroke-linecap="butt"/><line x1="48" y1="72.29" x2="764" y2="72.29" stroke="#454b56" stroke-width="1" stroke-dasharray="2,3" opacity="0.5" stroke-linecap="butt"/><polyline points="48,34.31 52.81,33.92 57.61,33.89 62.42,18.05 67.22,20.72 72.03,29.71 76.83,25.91 81.64,21.19 86.44,21.75 91.25,28.55 96.05,25.23 100.86,17.26 105.66,22.54 110.47,30.29 115.28,53.45 120.08,73.58 124.89,65.04 129.69,71.05 134.5,77.83 139.3,77.6 144.11,72.15 148.91,74.72 153.72,82 158.52,82 163.33,78.89 168.13,77.86 172.94,78.94 177.74,72.94 182.55,62.47 187.36,62.74 192.16,62.75 196.97,61.84 201.77,61.98 206.58,57.77 211.38,59.28 216.19,59.03 220.99,54.14 225.8,56.39 230.6,53.16 235.41,53.03 240.21,51.71 245.02,54.22 249.83,48.94 254.63,45.13 259.44,43.07 264.24,45.12 269.05,43.23 273.85,46.75 278.66,25.77 283.46,24.89 288.27,22.94 293.07,28.95 297.88,24.66 302.68,29.53 307.49,31.96 312.3,25.5 317.1,28.34 321.91,31.06 326.71,34.97 331.52,35.52 336.32,39.82 341.13,44.01 345.93,45.9 350.74,51.51 355.54,58.63 360.35,60.35 365.15,53.98 369.96,52.39 374.77,55.35 379.57,59.26 384.38,62.93 389.18,65.28 393.99,64.43 398.79,71.13 403.6,74.79 408.4,71.94 413.21,82 418.01,70.85 422.82,60.88 427.62,60.39 432.43,59.58 437.23,58.72 442.04,57.81 446.85,61.44 451.65,52.66 456.46,54.71 461.26,51.27 466.07,52.93 470.87,51.83 475.68,51.26 480.48,51.5 485.29,52.63 490.09,36.24 494.9,17.5 499.7,18.84 504.51,25.27 509.32,20.8 514.12,24.1 518.93,27.21 523.73,27.49 528.54,29.73 533.34,28.59 538.15,29.01 542.95,32.46 547.76,36.62 552.56,36.12 557.37,34.03 562.17,35.34 566.98,27.38 571.79,29.15 576.59,44.38 581.4,40.88 586.2,37.48 591.01,49.35 595.81,57.95 600.62,55.3 605.42,56.65 610.23,58.83 615.03,69.59 619.84,66.83 624.64,74.69 629.45,74.44 634.26,68.23 639.06,66.96 643.87,71.48 648.67,74 653.48,67.56 658.28,64.07 663.09,57.51 667.89,64.99 672.7,66.04 677.5,68.55 682.31,69.25 687.11,68.82 691.92,61.06 696.72,60.37 701.53,61.34 706.34,63.37 711.14,62.15 715.95,59.87 720.75,58.25 725.56,56.8 730.36,55.49 735.17,50.59 739.97,38.83 744.78,39.66 749.58,38.16 754.39,45.1 759.19,44.86 764,60.24" fill="none" stroke="#35b8ff" stroke-width="1.5" stroke-linejoin="round"/><text x="48" y="11" fill="#6d7480" font-size="9.5" text-anchor="start" font-family="'Inter', -apple-system, sans-serif" font-weight="600">Kanal İçi Pozisyon</text></svg></svg>