<svg xmlns="http://www.w3.org/2000/svg" viewBox="0 0 986.0 532.0" width="986.0" height="532.0"><rect width="986.0" height="532.0" fill="#eef0f3"/><svg x="0.0" y="0.0" width="780.0" height="420.0" viewBox="0 0 780.0 420.0"><rect width="780.0" height="420.0" fill="#ffffff"/><line x1="48" y1="240.06" x2="764" y2="240.06" stroke="#eef1f4" stroke-width="1" stroke-linecap="butt"/><text x="38" y="243.56" fill="#838b98" font-size="10" text-anchor="end" font-family="'IBM Plex Mono', ui-monospace, monospace">300.0</text><line x1="48" y1="60.81" x2="764" y2="60.81" stroke="#eef1f4" stroke-width="1" stroke-linecap="butt"/><text x="38" y="64.31" fill="#838b98" font-size="10" text-anchor="end" font-family="'IBM Plex Mono', ui-monospace, monospace">350.0</text><text x="48" y="416" fill="#838b98" font-size="10" text-anchor="middle" font-family="'Inter', -apple-system, 'Segoe UI', sans-serif">Jan &apos;26</text><text x="225.8" y="416" fill="#838b98" font-size="10" text-anchor="middle" font-family="'Inter', -apple-system, 'Segoe UI', sans-serif">Mar &apos;26</text><text x="403.6" y="416" fill="#838b98" font-size="10" text-anchor="middle" font-family="'Inter', -apple-system, 'Segoe UI', sans-serif">May &apos;26</text><text x="586.2" y="416" fill="#838b98" font-size="10" text-anchor="middle" font-family="'Inter', -apple-system, 'Segoe UI', sans-serif">Jul &apos;26</text><text x="764" y="416" fill="#838b98" font-size="10" text-anchor="middle" font-family="'Inter', -apple-system, 'Segoe UI', sans-serif">Sep &apos;26</text><line x1="48" y1="214.07" x2="48" y2="247.23" stroke="#1f9d5c" stroke-width="1.0" opacity="0.9" stroke-linecap="butt"/><rect x="46.61" y="231.99" width="2.79" height="8.07" fill="#1f9d5c" rx="0.6"/><line x1="52.81" y1="210.48" x2="52.81" y2="245.44" stroke="#1f9d5c" stroke-width="1.0" opacity="0.9" stroke-linecap="butt"/><rect x="51.41" y="225.72" width="2.79" height="6.27" fill="#1f9d5c" rx="0.6"/><line x1="57.61" y1="204.21" x2="57.61" y2="247.23" stroke="#1f9d5c" stroke-width="1.0" opacity="0.9" stroke-linecap="butt"/><rect x="56.22" y="219.44" width="2.79" height="19.72" fill="#1f9d5c" rx="0.6"/><line x1="62.42" y1="171.05" x2="62.42" y2="211.38" stroke="#1f9d5c" stroke-width="1.0" opacity="0.9" stroke-linecap="butt"/><rect x="61.02" y="172.84" width="2.79" height="38.54" fill="#1f9d5c" rx="0.6"/><line x1="67.22" y1="158.5" x2="67.22" y2="186.28" stroke="#1f9d5c" stroke-width="1.0" opacity="0.9" stroke-linecap="butt"/><rect x="65.83" y="166.56" width="2.79" height="1.79" fill="#1f9d5c" rx="0.6"/><line x1="72.03" y1="161.19" x2="72.03" y2="182.7" stroke="#cf4a3e" stroke-width="1.0" opacity="0.9" stroke-linecap="butt"/><rect x="70.63" y="173.73" width="2.79" height="5.38" fill="#cf4a3e" rx="0.6"/><line x1="76.83" y1="152.22" x2="76.83" y2="197.93" stroke="#1f9d5c" stroke-width="1.0" opacity="0.9" stroke-linecap="butt"/><rect x="75.44" y="159.39" width="2.79" height="19.72" fill="#1f9d5c" rx="0.6"/><line x1="81.64" y1="133.4" x2="81.64" y2="162.08" stroke="#1f9d5c" stroke-width="1.0" opacity="0.9" stroke-linecap="butt"/><rect x="80.24" y="134.3" width="2.79" height="10.76" fill="#1f9d5c" rx="0.6"/><line x1="86.44" y1="120.86" x2="86.44" y2="140.57" stroke="#1f9d5c" stroke-width="1.0" opacity="0.9" stroke-linecap="butt"/><rect x="85.05" y="121.75" width="2.79" height="14.34" fill="#1f9d5c" rx="0.6"/><line x1="91.25" y1="104.72" x2="91.25" y2="136.09" stroke="#1f9d5c" stroke-width="1.0" opacity="0.9" stroke-linecap="butt"/><rect x="89.85" y="128.92" width="2.79" height="1.79" fill="#1f9d5c" rx="0.6"/><line x1="96.05" y1="92.17" x2="96.05" y2="128.92" stroke="#1f9d5c" stroke-width="1.0" opacity="0.9" stroke-linecap="butt"/><rect x="94.66" y="107.41" width="2.79" height="17.03" fill="#1f9d5c" rx="0.6"/><line x1="100.86" y1="56.32" x2="100.86" y2="106.51" stroke="#1f9d5c" stroke-width="1.0" opacity="0.9" stroke-linecap="butt"/><rect x="99.47" y="68.87" width="2.79" height="36.75" fill="#1f9d5c" rx="0.6"/><line x1="105.66" y1="51.84" x2="105.66" y2="78.73" stroke="#cf4a3e" stroke-width="1.0" opacity="0.9" stroke-linecap="butt"/><rect x="104.27" y="61.7" width="2.79" height="7.17" fill="#cf4a3e" rx="0.6"/><line x1="110.47" y1="58.12" x2="110.47" y2="85.9" stroke="#cf4a3e" stroke-width="1.0" opacity="0.9" stroke-linecap="butt"/><rect x="109.08" y="74.25" width="2.79" height="4.48" fill="#cf4a3e" rx="0.6"/><line x1="115.28" y1="60.81" x2="115.28" y2="151.33" stroke="#cf4a3e" stroke-width="1.0" opacity="0.9" stroke-linecap="butt"/><rect x="113.88" y="76.04" width="2.79" height="62.74" fill="#cf4a3e" rx="0.6"/><line x1="120.08" y1="128.92" x2="120.08" y2="203.31" stroke="#cf4a3e" stroke-width="1.0" opacity="0.9" stroke-linecap="butt"/><rect x="118.69" y="130.71" width="2.79" height="64.53" fill="#cf4a3e" rx="0.6"/><line x1="124.89" y1="166.56" x2="124.89" y2="190.76" stroke="#1f9d5c" stroke-width="1.0" opacity="0.9" stroke-linecap="butt"/><rect x="123.49" y="166.56" width="2.79" height="21.51" fill="#1f9d5c" rx="0.6"/><line x1="129.69" y1="146.85" x2="129.69" y2="185.39" stroke="#cf4a3e" stroke-width="1.0" opacity="0.9" stroke-linecap="butt"/><rect x="128.3" y="147.74" width="2.79" height="35.85" fill="#cf4a3e" rx="0.6"/><line x1="134.5" y1="182.7" x2="134.5" y2="214.07" stroke="#cf4a3e" stroke-width="1.0" opacity="0.9" stroke-linecap="butt"/><rect x="133.1" y="183.59" width="2.79" height="25.99" fill="#cf4a3e" rx="0.6"/><line x1="139.3" y1="200.62" x2="139.3" y2="220.34" stroke="#cf4a3e" stroke-width="1.0" opacity="0.9" stroke-linecap="butt"/><rect x="137.91" y="206.9" width="2.79" height="8.07" fill="#cf4a3e" rx="0.6"/><line x1="144.11" y1="181.8" x2="144.11" y2="231.1" stroke="#1f9d5c" stroke-width="1.0" opacity="0.9" stroke-linecap="butt"/><rect x="142.71" y="198.83" width="2.79" height="13.44" fill="#1f9d5c" rx="0.6"/><line x1="148.91" y1="189.87" x2="148.91" y2="227.51" stroke="#cf4a3e" stroke-width="1.0" opacity="0.9" stroke-linecap="butt"/><rect x="147.52" y="192.56" width="2.79" height="20.61" fill="#cf4a3e" rx="0.6"/><line x1="153.72" y1="266.95" x2="153.72" y2="303.69" stroke="#1f9d5c" stroke-width="1.0" opacity="0.9" stroke-linecap="butt"/><rect x="152.32" y="279.49" width="2.79" height="23.3" fill="#1f9d5c" rx="0.6"/><line x1="158.52" y1="257.09" x2="158.52" y2="293.83" stroke="#1f9d5c" stroke-width="1.0" opacity="0.9" stroke-linecap="butt"/><rect x="157.13" y="286.66" width="2.79" height="3.59" fill="#1f9d5c" rx="0.6"/><line x1="163.33" y1="268.74" x2="163.33" y2="304.59" stroke="#cf4a3e" stroke-width="1.0" opacity="0.9" stroke-linecap="butt"/><rect x="161.94" y="283.08" width="2.79" height="1.1" fill="#cf4a3e" rx="0.6"/><line x1="168.13" y1="257.09" x2="168.13" y2="298.32" stroke="#cf4a3e" stroke-width="1.0" opacity="0.9" stroke-linecap="butt"/><rect x="166.74" y="264.26" width="2.79" height="32.27" fill="#cf4a3e" rx="0.6"/><line x1="172.94" y1="290.25" x2="172.94" y2="326.1" stroke="#cf4a3e" stroke-width="1.0" opacity="0.9" stroke-linecap="butt"/><rect x="171.55" y="297.42" width="2.79" height="25.99" fill="#cf4a3e" rx="0.6"/><line x1="177.74" y1="304.59" x2="177.74" y2="370.91" stroke="#1f9d5c" stroke-width="1.0" opacity="0.9" stroke-linecap="butt"/><rect x="176.35" y="304.59" width="2.79" height="53.78" fill="#1f9d5c" rx="0.6"/><line x1="182.55" y1="250.81" x2="182.55" y2="280.39" stroke="#1f9d5c" stroke-width="1.0" opacity="0.9" stroke-linecap="butt"/><rect x="181.16" y="250.81" width="2.79" height="10.76" fill="#1f9d5c" rx="0.6"/><line x1="187.36" y1="253.5" x2="187.36" y2="277.7" stroke="#cf4a3e" stroke-width="1.0" opacity="0.9" stroke-linecap="butt"/><rect x="185.96" y="254.4" width="2.79" height="4.48" fill="#cf4a3e" rx="0.6"/><line x1="192.16" y1="248.12" x2="192.16" y2="278.6" stroke="#1f9d5c" stroke-width="1.0" opacity="0.9" stroke-linecap="butt"/><rect x="190.77" y="266.05" width="2.79" height="9.86" fill="#1f9d5c" rx="0.6"/><line x1="196.97" y1="263.36" x2="196.97" y2="287.56" stroke="#1f9d5c" stroke-width="1.0" opacity="0.9" stroke-linecap="butt"/><rect x="195.57" y="267.84" width="2.79" height="3.59" fill="#1f9d5c" rx="0.6"/><line x1="201.77" y1="263.36" x2="201.77" y2="282.18" stroke="#cf4a3e" stroke-width="1.0" opacity="0.9" stroke-linecap="butt"/><rect x="200.38" y="266.95" width="2.79" height="8.96" fill="#cf4a3e" rx="0.6"/><line x1="206.58" y1="254.4" x2="206.58" y2="272.32" stroke="#1f9d5c" stroke-width="1.0" opacity="0.9" stroke-linecap="butt"/><rect x="205.18" y="258.88" width="2.79" height="13.44" fill="#1f9d5c" rx="0.6"/><line x1="211.38" y1="247.23" x2="211.38" y2="278.6" stroke="#cf4a3e" stroke-width="1.0" opacity="0.9" stroke-linecap="butt"/><rect x="209.99" y="249.92" width="2.79" height="23.3" fill="#cf4a3e" rx="0.6"/><line x1="216.19" y1="270.53" x2="216.19" y2="283.97" stroke="#1f9d5c" stroke-width="1.0" opacity="0.9" stroke-linecap="butt"/><rect x="214.79" y="277.7" width="2.79" height="1.79" fill="#1f9d5c" rx="0.6"/><line x1="220.99" y1="253.5" x2="220.99" y2="313.55" stroke="#1f9d5c" stroke-width="1.0" opacity="0.9" stroke-linecap="butt"/><rect x="219.6" y="256.19" width="2.79" height="51.09" fill="#1f9d5c" rx="0.6"/><line x1="225.8" y1="252.61" x2="225.8" y2="273.22" stroke="#cf4a3e" stroke-width="1.0" opacity="0.9" stroke-linecap="butt"/><rect x="224.41" y="267.84" width="2.79" height="4.48" fill="#cf4a3e" rx="0.6"/><line x1="230.6" y1="241.85" x2="230.6" y2="266.05" stroke="#cf4a3e" stroke-width="1.0" opacity="0.9" stroke-linecap="butt"/><rect x="229.21" y="255.29" width="2.79" height="4.48" fill="#cf4a3e" rx="0.6"/><line x1="235.41" y1="252.61" x2="235.41" y2="269.63" stroke="#1f9d5c" stroke-width="1.0" opacity="0.9" stroke-linecap="butt"/><rect x="234.02" y="263.36" width="2.79" height="3.59" fill="#1f9d5c" rx="0.6"/><line x1="240.21" y1="256.19" x2="240.21" y2="274.12" stroke="#cf4a3e" stroke-width="1.0" opacity="0.9" stroke-linecap="butt"/><rect x="238.82" y="257.98" width="2.79" height="3.59" fill="#cf4a3e" rx="0.6"/><line x1="245.02" y1="263.36" x2="245.02" y2="280.39" stroke="#cf4a3e" stroke-width="1.0" opacity="0.9" stroke-linecap="butt"/><rect x="243.63" y="266.95" width="2.79" height="13.44" fill="#cf4a3e" rx="0.6"/><line x1="249.83" y1="258.88" x2="249.83" y2="278.6" stroke="#1f9d5c" stroke-width="1.0" opacity="0.9" stroke-linecap="butt"/><rect x="248.43" y="260.67" width="2.79" height="15.24" fill="#1f9d5c" rx="0.6"/><line x1="254.63" y1="212.27" x2="254.63" y2="249.02" stroke="#cf4a3e" stroke-width="1.0" opacity="0.9" stroke-linecap="butt"/><rect x="253.24" y="217.65" width="2.79" height="29.58" fill="#cf4a3e" rx="0.6"/><line x1="259.44" y1="238.27" x2="259.44" y2="271.43" stroke="#1f9d5c" stroke-width="1.0" opacity="0.9" stroke-linecap="butt"/><rect x="258.04" y="240.95" width="2.79" height="25.99" fill="#1f9d5c" rx="0.6"/><line x1="264.24" y1="240.95" x2="264.24" y2="257.98" stroke="#cf4a3e" stroke-width="1.0" opacity="0.9" stroke-linecap="butt"/><rect x="262.85" y="242.75" width="2.79" height="11.65" fill="#cf4a3e" rx="0.6"/><line x1="269.05" y1="235.58" x2="269.05" y2="252.61" stroke="#1f9d5c" stroke-width="1.0" opacity="0.9" stroke-linecap="butt"/><rect x="267.65" y="249.92" width="2.79" height="1.79" fill="#1f9d5c" rx="0.6"/><line x1="273.85" y1="242.75" x2="273.85" y2="269.63" stroke="#cf4a3e" stroke-width="1.0" opacity="0.9" stroke-linecap="butt"/><rect x="272.46" y="254.4" width="2.79" height="14.34" fill="#cf4a3e" rx="0.6"/><line x1="278.66" y1="164.77" x2="278.66" y2="213.17" stroke="#1f9d5c" stroke-width="1.0" opacity="0.9" stroke-linecap="butt"/><rect x="277.26" y="179.11" width="2.79" height="29.58" fill="#1f9d5c" rx="0.6"/><line x1="283.46" y1="160.29" x2="283.46" y2="192.56" stroke="#1f9d5c" stroke-width="1.0" opacity="0.9" stroke-linecap="butt"/><rect x="282.07" y="170.15" width="2.79" height="12.55" fill="#1f9d5c" rx="0.6"/><line x1="288.27" y1="149.54" x2="288.27" y2="164.77" stroke="#1f9d5c" stroke-width="1.0" opacity="0.9" stroke-linecap="butt"/><rect x="286.87" y="156.71" width="2.79" height="2.69" fill="#1f9d5c" rx="0.6"/><line x1="293.07" y1="172.84" x2="293.07" y2="188.97" stroke="#1f9d5c" stroke-width="1.0" opacity="0.9" stroke-linecap="butt"/><rect x="291.68" y="180.01" width="2.79" height="2.69" fill="#1f9d5c" rx="0.6"/><line x1="297.88" y1="145.05" x2="297.88" y2="170.15" stroke="#1f9d5c" stroke-width="1.0" opacity="0.9" stroke-linecap="butt"/><rect x="296.49" y="154.02" width="2.79" height="15.24" fill="#1f9d5c" rx="0.6"/><line x1="302.68" y1="144.16" x2="302.68" y2="173.73" stroke="#cf4a3e" stroke-width="1.0" opacity="0.9" stroke-linecap="butt"/><rect x="301.29" y="145.05" width="2.79" height="25.99" fill="#cf4a3e" rx="0.6"/><line x1="307.49" y1="152.22" x2="307.49" y2="184.49" stroke="#cf4a3e" stroke-width="1.0" opacity="0.9" stroke-linecap="butt"/><rect x="306.1" y="157.6" width="2.79" height="20.61" fill="#cf4a3e" rx="0.6"/><line x1="312.3" y1="114.58" x2="312.3" y2="176.42" stroke="#1f9d5c" stroke-width="1.0" opacity="0.9" stroke-linecap="butt"/><rect x="310.9" y="136.09" width="2.79" height="39.44" fill="#1f9d5c" rx="0.6"/><line x1="317.1" y1="135.2" x2="317.1" y2="163.88" stroke="#1f9d5c" stroke-width="1.0" opacity="0.9" stroke-linecap="butt"/><rect x="315.71" y="138.78" width="2.79" height="24.2" fill="#1f9d5c" rx="0.6"/><line x1="321.91" y1="116.37" x2="321.91" y2="143.26" stroke="#cf4a3e" stroke-width="1.0" opacity="0.9" stroke-linecap="butt"/><rect x="320.51" y="136.09" width="2.79" height="7.17" fill="#cf4a3e" rx="0.6"/><line x1="326.71" y1="128.03" x2="326.71" y2="170.15" stroke="#cf4a3e" stroke-width="1.0" opacity="0.9" stroke-linecap="butt"/><rect x="325.32" y="134.3" width="2.79" height="21.51" fill="#cf4a3e" rx="0.6"/><line x1="331.52" y1="145.95" x2="331.52" y2="171.94" stroke="#1f9d5c" stroke-width="1.0" opacity="0.9" stroke-linecap="butt"/><rect x="330.12" y="150.43" width="2.79" height="7.17" fill="#1f9d5c" rx="0.6"/><line x1="336.32" y1="144.16" x2="336.32" y2="167.46" stroke="#cf4a3e" stroke-width="1.0" opacity="0.9" stroke-linecap="butt"/><rect x="334.93" y="152.22" width="2.79" height="14.34" fill="#cf4a3e" rx="0.6"/><line x1="341.13" y1="167.46" x2="341.13" y2="185.39" stroke="#cf4a3e" stroke-width="1.0" opacity="0.9" stroke-linecap="butt"/><rect x="339.73" y="170.15" width="2.79" height="13.44" fill="#cf4a3e" rx="0.6"/><line x1="345.93" y1="176.42" x2="345.93" y2="193.45" stroke="#cf4a3e" stroke-width="1.0" opacity="0.9" stroke-linecap="butt"/><rect x="344.54" y="180.01" width="2.79" height="8.07" fill="#cf4a3e" rx="0.6"/><line x1="350.74" y1="198.83" x2="350.74" y2="221.24" stroke="#cf4a3e" stroke-width="1.0" opacity="0.9" stroke-linecap="butt"/><rect x="349.34" y="204.21" width="2.79" height="6.27" fill="#cf4a3e" rx="0.6"/><line x1="355.54" y1="201.52" x2="355.54" y2="238.27" stroke="#cf4a3e" stroke-width="1.0" opacity="0.9" stroke-linecap="butt"/><rect x="354.15" y="209.59" width="2.79" height="27.78" fill="#cf4a3e" rx="0.6"/><line x1="360.35" y1="224.82" x2="360.35" y2="246.33" stroke="#1f9d5c" stroke-width="1.0" opacity="0.9" stroke-linecap="butt"/><rect x="358.96" y="236.47" width="2.79" height="1.1" fill="#1f9d5c" rx="0.6"/><line x1="365.15" y1="181.8" x2="365.15" y2="223.03" stroke="#1f9d5c" stroke-width="1.0" opacity="0.9" stroke-linecap="butt"/><rect x="363.76" y="205.1" width="2.79" height="9.86" fill="#1f9d5c" rx="0.6"/><line x1="369.96" y1="185.39" x2="369.96" y2="199.73" stroke="#1f9d5c" stroke-width="1.0" opacity="0.9" stroke-linecap="butt"/><rect x="368.57" y="195.24" width="2.79" height="2.69" fill="#1f9d5c" rx="0.6"/><line x1="374.77" y1="187.18" x2="374.77" y2="215.86" stroke="#1f9d5c" stroke-width="1.0" opacity="0.9" stroke-linecap="butt"/><rect x="373.37" y="200.62" width="2.79" height="3.59" fill="#1f9d5c" rx="0.6"/><line x1="379.57" y1="206" x2="379.57" y2="217.65" stroke="#1f9d5c" stroke-width="1.0" opacity="0.9" stroke-linecap="butt"/><rect x="378.18" y="209.59" width="2.79" height="1.1" fill="#1f9d5c" rx="0.6"/><line x1="384.38" y1="204.21" x2="384.38" y2="221.24" stroke="#cf4a3e" stroke-width="1.0" opacity="0.9" stroke-linecap="butt"/><rect x="382.98" y="211.38" width="2.79" height="8.07" fill="#cf4a3e" rx="0.6"/><line x1="389.18" y1="204.21" x2="389.18" y2="225.72" stroke="#cf4a3e" stroke-width="1.0" opacity="0.9" stroke-linecap="butt"/><rect x="387.79" y="212.27" width="2.79" height="13.44" fill="#cf4a3e" rx="0.6"/><line x1="393.99" y1="209.59" x2="393.99" y2="221.24" stroke="#1f9d5c" stroke-width="1.0" opacity="0.9" stroke-linecap="butt"/><rect x="392.59" y="219.44" width="2.79" height="1.79" fill="#1f9d5c" rx="0.6"/><line x1="398.79" y1="224.82" x2="398.79" y2="245.44" stroke="#cf4a3e" stroke-width="1.0" opacity="0.9" stroke-linecap="butt"/><rect x="397.4" y="227.51" width="2.79" height="12.55" fill="#cf4a3e" rx="0.6"/><line x1="403.6" y1="236.47" x2="403.6" y2="259.78" stroke="#cf4a3e" stroke-width="1.0" opacity="0.9" stroke-linecap="butt"/><rect x="402.2" y="241.85" width="2.79" height="17.93" fill="#cf4a3e" rx="0.6"/><line x1="408.4" y1="239.16" x2="408.4" y2="276.8" stroke="#1f9d5c" stroke-width="1.0" opacity="0.9" stroke-linecap="butt"/><rect x="407.01" y="257.98" width="2.79" height="10.76" fill="#1f9d5c" rx="0.6"/><line x1="413.21" y1="255.29" x2="413.21" y2="335.96" stroke="#cf4a3e" stroke-width="1.0" opacity="0.9" stroke-linecap="butt"/><rect x="411.81" y="257.98" width="2.79" height="75.29" fill="#cf4a3e" rx="0.6"/><line x1="418.01" y1="275.01" x2="418.01" y2="342.23" stroke="#1f9d5c" stroke-width="1.0" opacity="0.9" stroke-linecap="butt"/><rect x="416.62" y="283.08" width="2.79" height="50.19" fill="#1f9d5c" rx="0.6"/><line x1="422.82" y1="238.27" x2="422.82" y2="254.4" stroke="#cf4a3e" stroke-width="1.0" opacity="0.9" stroke-linecap="butt"/><rect x="421.43" y="243.64" width="2.79" height="5.38" fill="#cf4a3e" rx="0.6"/><line x1="427.62" y1="247.23" x2="427.62" y2="257.09" stroke="#cf4a3e" stroke-width="1.0" opacity="0.9" stroke-linecap="butt"/><rect x="426.23" y="249.02" width="2.79" height="2.69" fill="#cf4a3e" rx="0.6"/><line x1="432.43" y1="251.71" x2="432.43" y2="251.71" stroke="#1f9d5c" stroke-width="1.0" opacity="0.9" stroke-linecap="butt"/><rect x="431.04" y="251.71" width="2.79" height="1.1" fill="#1f9d5c" rx="0.6"/><line x1="437.23" y1="251.71" x2="437.23" y2="251.71" stroke="#1f9d5c" stroke-width="1.0" opacity="0.9" stroke-linecap="butt"/><rect x="435.84" y="251.71" width="2.79" height="1.1" fill="#1f9d5c" rx="0.6"/><line x1="442.04" y1="251.71" x2="442.04" y2="251.71" stroke="#1f9d5c" stroke-width="1.0" opacity="0.9" stroke-linecap="butt"/><rect x="440.65" y="251.71" width="2.79" height="1.1" fill="#1f9d5c" rx="0.6"/><line x1="446.85" y1="238.27" x2="446.85" y2="272.32" stroke="#cf4a3e" stroke-width="1.0" opacity="0.9" stroke-linecap="butt"/><rect x="445.45" y="245.44" width="2.79" height="25.1" fill="#cf4a3e" rx="0.6"/><line x1="451.65" y1="239.16" x2="451.65" y2="260.67" stroke="#1f9d5c" stroke-width="1.0" opacity="0.9" stroke-linecap="butt"/><rect x="450.26" y="240.06" width="2.79" height="19.72" fill="#1f9d5c" rx="0.6"/><line x1="456.46" y1="233.78" x2="456.46" y2="252.61" stroke="#cf4a3e" stroke-width="1.0" opacity="0.9" stroke-linecap="butt"/><rect x="455.06" y="249.92" width="2.79" height="1.1" fill="#cf4a3e" rx="0.6"/><line x1="461.26" y1="234.68" x2="461.26" y2="252.61" stroke="#1f9d5c" stroke-width="1.0" opacity="0.9" stroke-linecap="butt"/><rect x="459.87" y="240.95" width="2.79" height="2.69" fill="#1f9d5c" rx="0.6"/><line x1="466.07" y1="239.16" x2="466.07" y2="257.09" stroke="#cf4a3e" stroke-width="1.0" opacity="0.9" stroke-linecap="butt"/><rect x="464.67" y="240.95" width="2.79" height="9.86" fill="#cf4a3e" rx="0.6"/><line x1="470.87" y1="241.85" x2="470.87" y2="266.95" stroke="#1f9d5c" stroke-width="1.0" opacity="0.9" stroke-linecap="butt"/><rect x="469.48" y="249.92" width="2.79" height="13.44" fill="#1f9d5c" rx="0.6"/><line x1="475.68" y1="240.06" x2="475.68" y2="256.19" stroke="#cf4a3e" stroke-width="1.0" opacity="0.9" stroke-linecap="butt"/><rect x="474.28" y="245.44" width="2.79" height="6.27" fill="#cf4a3e" rx="0.6"/><line x1="480.48" y1="246.33" x2="480.48" y2="264.26" stroke="#cf4a3e" stroke-width="1.0" opacity="0.9" stroke-linecap="butt"/><rect x="479.09" y="254.4" width="2.79" height="1.79" fill="#cf4a3e" rx="0.6"/><line x1="485.29" y1="249.02" x2="485.29" y2="270.53" stroke="#cf4a3e" stroke-width="1.0" opacity="0.9" stroke-linecap="butt"/><rect x="483.9" y="254.4" width="2.79" height="9.86" fill="#cf4a3e" rx="0.6"/><line x1="490.09" y1="200.62" x2="490.09" y2="236.47" stroke="#1f9d5c" stroke-width="1.0" opacity="0.9" stroke-linecap="butt"/><rect x="488.7" y="212.27" width="2.79" height="24.2" fill="#1f9d5c" rx="0.6"/><line x1="494.9" y1="134.3" x2="494.9" y2="156.71" stroke="#cf4a3e" stroke-width="1.0" opacity="0.9" stroke-linecap="butt"/><rect x="493.51" y="136.09" width="2.79" height="11.65" fill="#cf4a3e" rx="0.6"/><line x1="499.7" y1="136.09" x2="499.7" y2="158.5" stroke="#1f9d5c" stroke-width="1.0" opacity="0.9" stroke-linecap="butt"/><rect x="498.31" y="145.05" width="2.79" height="5.38" fill="#1f9d5c" rx="0.6"/><line x1="504.51" y1="138.78" x2="504.51" y2="164.77" stroke="#cf4a3e" stroke-width="1.0" opacity="0.9" stroke-linecap="butt"/><rect x="503.12" y="141.47" width="2.79" height="20.61" fill="#cf4a3e" rx="0.6"/><line x1="509.32" y1="132.51" x2="509.32" y2="154.91" stroke="#1f9d5c" stroke-width="1.0" opacity="0.9" stroke-linecap="butt"/><rect x="507.92" y="137.88" width="2.79" height="16.13" fill="#1f9d5c" rx="0.6"/><line x1="514.12" y1="120.86" x2="514.12" y2="154.91" stroke="#1f9d5c" stroke-width="1.0" opacity="0.9" stroke-linecap="butt"/><rect x="512.73" y="144.16" width="2.79" height="9.86" fill="#1f9d5c" rx="0.6"/><line x1="518.93" y1="136.09" x2="518.93" y2="153.12" stroke="#cf4a3e" stroke-width="1.0" opacity="0.9" stroke-linecap="butt"/><rect x="517.53" y="137.88" width="2.79" height="13.44" fill="#cf4a3e" rx="0.6"/><line x1="523.73" y1="142.37" x2="523.73" y2="162.98" stroke="#1f9d5c" stroke-width="1.0" opacity="0.9" stroke-linecap="butt"/><rect x="522.34" y="150.43" width="2.79" height="5.38" fill="#1f9d5c" rx="0.6"/><line x1="528.54" y1="138.78" x2="528.54" y2="156.71" stroke="#cf4a3e" stroke-width="1.0" opacity="0.9" stroke-linecap="butt"/><rect x="527.14" y="149.54" width="2.79" height="1.79" fill="#cf4a3e" rx="0.6"/><line x1="533.34" y1="120.86" x2="533.34" y2="141.47" stroke="#1f9d5c" stroke-width="1.0" opacity="0.9" stroke-linecap="butt"/><rect x="531.95" y="137.88" width="2.79" height="3.59" fill="#1f9d5c" rx="0.6"/><line x1="538.15" y1="124.44" x2="538.15" y2="141.47" stroke="#1f9d5c" stroke-width="1.0" opacity="0.9" stroke-linecap="butt"/><rect x="536.75" y="129.82" width="2.79" height="8.07" fill="#1f9d5c" rx="0.6"/><line x1="542.95" y1="128.92" x2="542.95" y2="149.54" stroke="#cf4a3e" stroke-width="1.0" opacity="0.9" stroke-linecap="butt"/><rect x="541.56" y="129.82" width="2.79" height="6.27" fill="#cf4a3e" rx="0.6"/><line x1="547.76" y1="132.51" x2="547.76" y2="154.02" stroke="#cf4a3e" stroke-width="1.0" opacity="0.9" stroke-linecap="butt"/><rect x="546.36" y="134.3" width="2.79" height="12.55" fill="#cf4a3e" rx="0.6"/><line x1="552.56" y1="127.13" x2="552.56" y2="157.6" stroke="#1f9d5c" stroke-width="1.0" opacity="0.9" stroke-linecap="butt"/><rect x="551.17" y="137.88" width="2.79" height="9.86" fill="#1f9d5c" rx="0.6"/><line x1="557.37" y1="108.31" x2="557.37" y2="130.71" stroke="#1f9d5c" stroke-width="1.0" opacity="0.9" stroke-linecap="butt"/><rect x="555.98" y="120.86" width="2.79" height="9.86" fill="#1f9d5c" rx="0.6"/><line x1="562.17" y1="111.89" x2="562.17" y2="129.82" stroke="#cf4a3e" stroke-width="1.0" opacity="0.9" stroke-linecap="butt"/><rect x="560.78" y="113.68" width="2.79" height="4.48" fill="#cf4a3e" rx="0.6"/><line x1="566.98" y1="55.43" x2="566.98" y2="113.68" stroke="#1f9d5c" stroke-width="1.0" opacity="0.9" stroke-linecap="butt"/><rect x="565.59" y="71.56" width="2.79" height="36.75" fill="#1f9d5c" rx="0.6"/><line x1="571.79" y1="41.09" x2="571.79" y2="77.83" stroke="#1f9d5c" stroke-width="1.0" opacity="0.9" stroke-linecap="butt"/><rect x="570.39" y="67.08" width="2.79" height="8.07" fill="#1f9d5c" rx="0.6"/><line x1="576.59" y1="68.87" x2="576.59" y2="131.61" stroke="#cf4a3e" stroke-width="1.0" opacity="0.9" stroke-linecap="butt"/><rect x="575.2" y="83.21" width="2.79" height="42.12" fill="#cf4a3e" rx="0.6"/><line x1="581.4" y1="96.66" x2="581.4" y2="128.92" stroke="#1f9d5c" stroke-width="1.0" opacity="0.9" stroke-linecap="butt"/><rect x="580" y="102.93" width="2.79" height="16.13" fill="#1f9d5c" rx="0.6"/><line x1="586.2" y1="76.94" x2="586.2" y2="107.41" stroke="#1f9d5c" stroke-width="1.0" opacity="0.9" stroke-linecap="butt"/><rect x="584.81" y="80.52" width="2.79" height="23.3" fill="#1f9d5c" rx="0.6"/><line x1="591.01" y1="96.66" x2="591.01" y2="128.92" stroke="#cf4a3e" stroke-width="1.0" opacity="0.9" stroke-linecap="butt"/><rect x="589.61" y="103.83" width="2.79" height="16.13" fill="#cf4a3e" rx="0.6"/><line x1="595.81" y1="130.71" x2="595.81" y2="162.98" stroke="#cf4a3e" stroke-width="1.0" opacity="0.9" stroke-linecap="butt"/><rect x="594.42" y="131.61" width="2.79" height="15.24" fill="#cf4a3e" rx="0.6"/><line x1="600.62" y1="121.75" x2="600.62" y2="153.12" stroke="#1f9d5c" stroke-width="1.0" opacity="0.9" stroke-linecap="butt"/><rect x="599.22" y="132.51" width="2.79" height="14.34" fill="#1f9d5c" rx="0.6"/><line x1="605.42" y1="124.44" x2="605.42" y2="143.26" stroke="#1f9d5c" stroke-width="1.0" opacity="0.9" stroke-linecap="butt"/><rect x="604.03" y="134.3" width="2.79" height="1.1" fill="#1f9d5c" rx="0.6"/><line x1="610.23" y1="132.51" x2="610.23" y2="154.91" stroke="#cf4a3e" stroke-width="1.0" opacity="0.9" stroke-linecap="butt"/><rect x="608.83" y="136.99" width="2.79" height="2.69" fill="#cf4a3e" rx="0.6"/><line x1="615.03" y1="131.61" x2="615.03" y2="177.32" stroke="#cf4a3e" stroke-width="1.0" opacity="0.9" stroke-linecap="butt"/><rect x="613.64" y="132.51" width="2.79" height="44.81" fill="#cf4a3e" rx="0.6"/><line x1="619.84" y1="164.77" x2="619.84" y2="188.07" stroke="#1f9d5c" stroke-width="1.0" opacity="0.9" stroke-linecap="butt"/><rect x="618.45" y="164.77" width="2.79" height="13.44" fill="#1f9d5c" rx="0.6"/><line x1="624.64" y1="170.15" x2="624.64" y2="203.31" stroke="#cf4a3e" stroke-width="1.0" opacity="0.9" stroke-linecap="butt"/><rect x="623.25" y="174.63" width="2.79" height="19.72" fill="#cf4a3e" rx="0.6"/><line x1="629.45" y1="184.49" x2="629.45" y2="199.73" stroke="#cf4a3e" stroke-width="1.0" opacity="0.9" stroke-linecap="butt"/><rect x="628.06" y="196.14" width="2.79" height="1.1" fill="#cf4a3e" rx="0.6"/><line x1="634.26" y1="136.99" x2="634.26" y2="176.42" stroke="#cf4a3e" stroke-width="1.0" opacity="0.9" stroke-linecap="butt"/><rect x="632.86" y="168.36" width="2.79" height="7.17" fill="#cf4a3e" rx="0.6"/><line x1="639.06" y1="149.54" x2="639.06" y2="181.8" stroke="#cf4a3e" stroke-width="1.0" opacity="0.9" stroke-linecap="butt"/><rect x="637.67" y="170.15" width="2.79" height="1.79" fill="#cf4a3e" rx="0.6"/><line x1="643.87" y1="174.63" x2="643.87" y2="202.41" stroke="#cf4a3e" stroke-width="1.0" opacity="0.9" stroke-linecap="butt"/><rect x="642.47" y="177.32" width="2.79" height="15.24" fill="#cf4a3e" rx="0.6"/><line x1="648.67" y1="184.49" x2="648.67" y2="221.24" stroke="#cf4a3e" stroke-width="1.0" opacity="0.9" stroke-linecap="butt"/><rect x="647.28" y="200.62" width="2.79" height="9.86" fill="#cf4a3e" rx="0.6"/><line x1="653.48" y1="185.39" x2="653.48" y2="208.69" stroke="#1f9d5c" stroke-width="1.0" opacity="0.9" stroke-linecap="butt"/><rect x="652.08" y="189.87" width="2.79" height="7.17" fill="#1f9d5c" rx="0.6"/><line x1="658.28" y1="160.29" x2="658.28" y2="180.9" stroke="#cf4a3e" stroke-width="1.0" opacity="0.9" stroke-linecap="butt"/><rect x="656.89" y="166.56" width="2.79" height="12.55" fill="#cf4a3e" rx="0.6"/><line x1="663.09" y1="148.64" x2="663.09" y2="188.07" stroke="#1f9d5c" stroke-width="1.0" opacity="0.9" stroke-linecap="butt"/><rect x="661.69" y="154.91" width="2.79" height="24.2" fill="#1f9d5c" rx="0.6"/><line x1="667.89" y1="173.73" x2="667.89" y2="198.83" stroke="#cf4a3e" stroke-width="1.0" opacity="0.9" stroke-linecap="butt"/><rect x="666.5" y="173.73" width="2.79" height="16.13" fill="#cf4a3e" rx="0.6"/><line x1="672.7" y1="174.63" x2="672.7" y2="199.73" stroke="#cf4a3e" stroke-width="1.0" opacity="0.9" stroke-linecap="butt"/><rect x="671.3" y="187.18" width="2.79" height="12.55" fill="#cf4a3e" rx="0.6"/><line x1="677.5" y1="196.14" x2="677.5" y2="228.41" stroke="#cf4a3e" stroke-width="1.0" opacity="0.9" stroke-linecap="butt"/><rect x="676.11" y="197.04" width="2.79" height="20.61" fill="#cf4a3e" rx="0.6"/><line x1="682.31" y1="212.27" x2="682.31" y2="231.99" stroke="#cf4a3e" stroke-width="1.0" opacity="0.9" stroke-linecap="butt"/><rect x="680.92" y="214.96" width="2.79" height="14.34" fill="#cf4a3e" rx="0.6"/><line x1="687.11" y1="227.51" x2="687.11" y2="257.09" stroke="#cf4a3e" stroke-width="1.0" opacity="0.9" stroke-linecap="butt"/><rect x="685.72" y="231.1" width="2.79" height="5.38" fill="#cf4a3e" rx="0.6"/><line x1="691.92" y1="202.41" x2="691.92" y2="238.27" stroke="#1f9d5c" stroke-width="1.0" opacity="0.9" stroke-linecap="butt"/><rect x="690.53" y="208.69" width="2.79" height="27.78" fill="#1f9d5c" rx="0.6"/><line x1="696.72" y1="202.41" x2="696.72" y2="215.86" stroke="#cf4a3e" stroke-width="1.0" opacity="0.9" stroke-linecap="butt"/><rect x="695.33" y="208.69" width="2.79" height="2.69" fill="#cf4a3e" rx="0.6"/><line x1="701.53" y1="206" x2="701.53" y2="221.24" stroke="#cf4a3e" stroke-width="1.0" opacity="0.9" stroke-linecap="butt"/><rect x="700.14" y="209.59" width="2.79" height="11.65" fill="#cf4a3e" rx="0.6"/><line x1="706.34" y1="214.07" x2="706.34" y2="237.37" stroke="#cf4a3e" stroke-width="1.0" opacity="0.9" stroke-linecap="butt"/><rect x="704.94" y="218.55" width="2.79" height="17.93" fill="#cf4a3e" rx="0.6"/><line x1="711.14" y1="231.1" x2="711.14" y2="248.12" stroke="#1f9d5c" stroke-width="1.0" opacity="0.9" stroke-linecap="butt"/><rect x="709.75" y="238.27" width="2.79" height="7.17" fill="#1f9d5c" rx="0.6"/><line x1="715.95" y1="229.3" x2="715.95" y2="245.44" stroke="#1f9d5c" stroke-width="1.0" opacity="0.9" stroke-linecap="butt"/><rect x="714.55" y="235.58" width="2.79" height="6.27" fill="#1f9d5c" rx="0.6"/><line x1="720.75" y1="222.13" x2="720.75" y2="239.16" stroke="#cf4a3e" stroke-width="1.0" opacity="0.9" stroke-linecap="butt"/><rect x="719.36" y="232.89" width="2.79" height="2.69" fill="#cf4a3e" rx="0.6"/><line x1="725.56" y1="223.03" x2="725.56" y2="239.16" stroke="#cf4a3e" stroke-width="1.0" opacity="0.9" stroke-linecap="butt"/><rect x="724.16" y="232.89" width="2.79" height="3.59" fill="#cf4a3e" rx="0.6"/><line x1="730.36" y1="213.17" x2="730.36" y2="240.06" stroke="#cf4a3e" stroke-width="1.0" opacity="0.9" stroke-linecap="butt"/><rect x="728.97" y="224.82" width="2.79" height="13.44" fill="#cf4a3e" rx="0.6"/><line x1="735.17" y1="224.82" x2="735.17" y2="241.85" stroke="#1f9d5c" stroke-width="1.0" opacity="0.9" stroke-linecap="butt"/><rect x="733.77" y="231.1" width="2.79" height="4.48" fill="#1f9d5c" rx="0.6"/><line x1="739.97" y1="195.24" x2="739.97" y2="223.03" stroke="#1f9d5c" stroke-width="1.0" opacity="0.9" stroke-linecap="butt"/><rect x="738.58" y="209.59" width="2.79" height="8.96" fill="#1f9d5c" rx="0.6"/><line x1="744.78" y1="200.62" x2="744.78" y2="228.41" stroke="#cf4a3e" stroke-width="1.0" opacity="0.9" stroke-linecap="butt"/><rect x="743.38" y="206" width="2.79" height="8.07" fill="#cf4a3e" rx="0.6"/><line x1="749.58" y1="210.48" x2="749.58" y2="223.03" stroke="#1f9d5c" stroke-width="1.0" opacity="0.9" stroke-linecap="butt"/><rect x="748.19" y="213.17" width="2.79" height="1.79" fill="#1f9d5c" rx="0.6"/><line x1="754.39" y1="216.76" x2="754.39" y2="232.89" stroke="#cf4a3e" stroke-width="1.0" opacity="0.9" stroke-linecap="butt"/><rect x="753" y="220.34" width="2.79" height="11.65" fill="#cf4a3e" rx="0.6"/><line x1="759.19" y1="220.34" x2="759.19" y2="240.06" stroke="#cf4a3e" stroke-width="1.0" opacity="0.9" stroke-linecap="butt"/><rect x="757.8" y="231.99" width="2.79" height="2.69" fill="#cf4a3e" rx="0.6"/><line x1="764" y1="236.47" x2="764" y2="271.43" stroke="#cf4a3e" stroke-width="1.0" opacity="0.9" stroke-linecap="butt"/><rect x="762.61" y="241.85" width="2.79" height="28.68" fill="#cf4a3e" rx="0.6"/><rect x="437.23" y="337.93" width="326.77" height="14.47" fill="#35618c" opacity="0.11"/><line x1="437.23" y1="352.4" x2="764" y2="352.4" stroke="#35618c" stroke-width="1" opacity="0.55" stroke-linecap="butt"/><line x1="437.23" y1="337.93" x2="764" y2="337.93" stroke="#35618c" stroke-width="1" opacity="0.55" stroke-linecap="butt"/><text x="443.23" y="331.93" fill="#35618c" font-size="9.5" text-anchor="start" font-family="'Inter', -apple-system, 'Segoe UI', sans-serif" opacity="0.85">Destek Bölgesi</text><line x1="60" y1="138.07" x2="764" y2="138.07" stroke="#aeb4bf" stroke-width="1" stroke-dasharray="2,3" opacity="0.75" stroke-linecap="butt"/><text x="760" y="134.07" fill="#838b98" font-size="9.5" text-anchor="end" font-family="'IBM Plex Mono', ui-monospace, monospace" font-weight="500">VAH</text><line x1="60" y1="255.84" x2="764" y2="255.84" stroke="#b8892f" stroke-width="1.6" opacity="0.75" stroke-linecap="butt"/><text x="760" y="251.84" fill="#b8892f" font-size="9.5" text-anchor="end" font-family="'IBM Plex Mono', ui-monospace, monospace" font-weight="700">POC</text><line x1="60" y1="276.62" x2="764" y2="276.62" stroke="#aeb4bf" stroke-width="1" stroke-dasharray="2,3" opacity="0.75" stroke-linecap="butt"/><text x="760" y="272.62" fill="#838b98" font-size="9.5" text-anchor="end" font-family="'IBM Plex Mono', ui-monospace, monospace" font-weight="500">VAL</text><circle cx="312.3" cy="114.58" r="2.6" fill="#161a20"/><circle cx="418.01" cy="342.23" r="2.6" fill="#161a20"/><circle cx="571.79" cy="41.09" r="2.6" fill="#161a20"/><circle cx="648.67" cy="221.24" r="2.6" fill="#161a20"/><circle cx="663.09" cy="148.64" r="2.6" fill="#161a20"/><circle cx="687.11" cy="257.09" r="2.6" fill="#161a20"/><text x="312.3" y="107.58" fill="#838b98" font-size="10" text-anchor="middle" font-family="'IBM Plex Mono', ui-monospace, monospace" font-weight="600">LH</text><text x="418.01" y="357.23" fill="#838b98" font-size="10" text-anchor="middle" font-family="'IBM Plex Mono', ui-monospace, monospace" font-weight="600">HL</text><text x="571.79" y="34.09" fill="#838b98" font-size="10" text-anchor="middle" font-family="'IBM Plex Mono', ui-monospace, monospace" font-weight="600">HH</text><text x="648.67" y="236.24" fill="#838b98" font-size="10" text-anchor="middle" font-family="'IBM Plex Mono', ui-monospace, monospace" font-weight="600">HL</text><text x="663.09" y="141.64" fill="#838b98" font-size="10" text-anchor="middle" font-family="'IBM Plex Mono', ui-monospace, monospace" font-weight="600">LH</text><text x="687.11" y="272.09" fill="#838b98" font-size="10" text-anchor="middle" font-family="'IBM Plex Mono', ui-monospace, monospace" font-weight="600">LL</text></svg><svg x="0.0" y="436.0" width="780.0" height="96.0" viewBox="0 0 780.0 96.0"><rect width="780.0" height="96.0" fill="#ffffff"/><line x1="48" y1="26.14" x2="764" y2="26.14" stroke="#c0554a" stroke-width="1" stroke-dasharray="3,3" opacity="0.5" stroke-linecap="butt"/><line x1="48" y1="63.86" x2="764" y2="63.86" stroke="#1f9d5c" stroke-width="1" stroke-dasharray="3,3" opacity="0.5" stroke-linecap="butt"/><polyline points="48,31.75 52.81,30.52 57.61,29.28 62.42,22 67.22,21.22 72.03,25.86 76.83,23.07 81.64,20.04 86.44,18.69 91.25,21.34 96.05,18.89 100.86,15.36 105.66,15.36 110.47,19 115.28,36.34 120.08,47.14 124.89,42.42 129.69,45.29 134.5,49.35 139.3,50.16 144.11,47.14 148.91,49.5 153.72,58.31 158.52,59.1 163.33,58.53 168.13,60.04 172.94,63.07 177.74,58.74 182.55,48.42 187.36,49.59 192.16,50.64 196.97,50.92 201.77,52.21 206.58,48.6 211.38,51.07 216.19,51.84 220.99,47.08 225.8,50.08 230.6,47.32 235.41,48.04 240.21,47.61 245.02,51.53 249.83,46.68 254.63,43.64 259.44,42.25 264.24,45.52 269.05,44.42 273.85,48.91 278.66,32.31 283.46,31.14 288.27,29.41 293.07,34.95 297.88,31.39 302.68,35.24 307.49,36.83 312.3,30.98 317.1,31.6 321.91,32.69 326.71,35.75 331.52,34.87 336.32,38.87 341.13,42.78 345.93,43.79 350.74,48.57 355.54,53.51 360.35,53.29 365.15,45.94 369.96,43.88 374.77,45.06 379.57,47.06 384.38,49.21 389.18,50.57 393.99,48.83 398.79,53.35 403.6,57.12 408.4,56.56 413.21,67.19 418.01,54.95 422.82,48.42 427.62,48.84 432.43,48.84 437.23,48.84 442.04,48.84 446.85,52.44 451.65,45.53 456.46,47.67 461.26,45.51 466.07,47.59 470.87,47.38 475.68,47.79 480.48,48.87 485.29,50.82 490.09,38.2 494.9,28.45 499.7,28.12 504.51,32.48 509.32,29.21 514.12,30.83 518.93,32.71 523.73,32.57 528.54,32.83 533.34,30.5 538.15,29.16 542.95,31.26 547.76,34.79 552.56,32.96 557.37,29.74 562.17,29.25 566.98,22.24 571.79,21.69 576.59,38.62 581.4,34.93 586.2,31.64 591.01,40.35 595.81,45.31 600.62,42.84 605.42,43.18 610.23,44.26 615.03,51.07 619.84,48.48 624.64,53.28 629.45,53.69 634.26,49 639.06,48.24 643.87,51.94 648.67,54.88 653.48,50.15 658.28,47.82 663.09,42.95 667.89,49.42 672.7,51.07 677.5,53.94 682.31,55.72 687.11,56.82 691.92,50.25 696.72,50.73 701.53,52.53 706.34,55.19 711.14,55.5 715.95,54.73 720.75,54.73 725.56,54.92 730.36,55.33 735.17,52.73 739.97,45.71 744.78,47.01 749.58,46.71 754.39,52.12 759.19,52.84 764,60.9" fill="none" stroke="#35618c" stroke-width="1.5" stroke-linejoin="round"/><text x="48" y="11" fill="#838b98" font-size="9.5" text-anchor="start" font-family="'Inter', -apple-system, 'Segoe UI', sans-serif" font-weight="600">RSI (14)</text></svg><svg x="796.0" y="0.0" width="190.0" height="420.0" viewBox="0 0 190.0 420.0"><rect width="190.0" height="420.0" fill="#ffffff"/><rect x="6" y="361.69" width="3.96" height="9.98" fill="#35618c" opacity="0.35" rx="2"/><rect x="6" y="347.83" width="26.25" height="9.98" fill="#35618c" opacity="0.35" rx="2"/><rect x="6" y="333.98" width="89.72" height="9.98" fill="#35618c" opacity="0.35" rx="2"/><rect x="6" y="320.12" width="38.78" height="9.98" fill="#35618c" opacity="0.35" rx="2"/><rect x="6" y="306.27" width="19.11" height="9.98" fill="#35618c" opacity="0.35" rx="2"/><rect x="6" y="292.41" width="33.44" height="9.98" fill="#35618c" opacity="0.35" rx="2"/><rect x="6" y="278.56" width="40.98" height="9.98" fill="#35618c" opacity="0.35" rx="2"/><rect x="6" y="264.7" width="123.24" height="9.98" fill="#35618c" opacity="0.35" rx="2"/><rect x="6" y="250.85" width="134" height="9.98" fill="#1f9d5c" opacity="0.85" rx="2"/><rect x="6" y="236.99" width="84.94" height="9.98" fill="#35618c" opacity="0.35" rx="2"/><rect x="6" y="223.14" width="101.91" height="9.98" fill="#35618c" opacity="0.35" rx="2"/><rect x="6" y="209.28" width="94.67" height="9.98" fill="#35618c" opacity="0.35" rx="2"/><rect x="6" y="195.43" width="62.6" height="9.98" fill="#35618c" opacity="0.35" rx="2"/><rect x="6" y="181.57" width="102.63" height="9.98" fill="#35618c" opacity="0.35" rx="2"/><rect x="6" y="167.72" width="107.43" height="9.98" fill="#1f9d5c" opacity="0.85" rx="2"/><rect x="6" y="153.87" width="76.35" height="9.98" fill="#35618c" opacity="0.35" rx="2"/><rect x="6" y="140.01" width="127.19" height="9.98" fill="#1f9d5c" opacity="0.85" rx="2"/><rect x="6" y="126.16" width="37.64" height="9.98" fill="#35618c" opacity="0.35" rx="2"/><rect x="6" y="112.3" width="39.57" height="9.98" fill="#35618c" opacity="0.35" rx="2"/><rect x="6" y="98.45" width="27" height="9.98" fill="#35618c" opacity="0.35" rx="2"/><rect x="6" y="84.59" width="5.65" height="9.98" fill="#35618c" opacity="0.35" rx="2"/><rect x="6" y="70.74" width="28.43" height="9.98" fill="#35618c" opacity="0.35" rx="2"/><rect x="6" y="56.88" width="15.21" height="9.98" fill="#35618c" opacity="0.35" rx="2"/><rect x="6" y="43.03" width="0" height="9.98" fill="#35618c" opacity="0.35" rx="2"/><polyline points="26.38,366.67 34.3,352.82 44.05,338.96 55.58,325.11 68.57,311.25 82.51,297.4 96.62,283.55 109.99,269.69 121.6,255.84 130.49,241.98 135.88,228.13 137.26,214.27 134.52,200.42 127.9,186.56 118.01,172.71 105.71,158.85 91.99,145 77.83,131.14 64.14,117.29 51.58,103.43 40.62,89.58 31.47,75.72 24.16,61.87 18.54,48.02" fill="none" stroke="#b8892f" stroke-width="1.6" opacity="0.9" stroke-linejoin="round"/><text x="6" y="12" fill="#838b98" font-size="9.5" text-anchor="start" font-family="'Inter', -apple-system, 'Segoe UI', sans-serif" font-weight="600">Hacim Profili</text></svg></svg>