<svg xmlns="http://www.w3.org/2000/svg" viewBox="0 0 780.0 460.0" width="780.0" height="460.0"><rect width="780.0" height="460.0" fill="#efe7d4"/><svg x="0.0" y="0.0" width="780.0" height="460.0" viewBox="0 0 780.0 460.0"><rect width="780.0" height="460.0" fill="#faf6ec"/><line x1="48" y1="332.23" x2="686" y2="332.23" stroke="#eadfc4" stroke-width="1" stroke-linecap="butt"/><text x="38" y="335.73" fill="#8c7d5f" font-size="10" text-anchor="end" font-family="'IBM Plex Mono', ui-monospace, monospace">40.0</text><line x1="48" y1="184.79" x2="686" y2="184.79" stroke="#eadfc4" stroke-width="1" stroke-linecap="butt"/><text x="38" y="188.29" fill="#8c7d5f" font-size="10" text-anchor="end" font-family="'IBM Plex Mono', ui-monospace, monospace">50.0</text><line x1="48" y1="37.36" x2="686" y2="37.36" stroke="#eadfc4" stroke-width="1" stroke-linecap="butt"/><text x="38" y="40.86" fill="#8c7d5f" font-size="10" text-anchor="end" font-family="'IBM Plex Mono', ui-monospace, monospace">60.0</text><text x="48" y="454" fill="#8c7d5f" font-size="10" text-anchor="middle" font-family="'Source Serif 4', Georgia, serif">Jan &apos;26</text><text x="206.43" y="454" fill="#8c7d5f" font-size="10" text-anchor="middle" font-family="'Source Serif 4', Georgia, serif">Mar &apos;26</text><text x="364.86" y="454" fill="#8c7d5f" font-size="10" text-anchor="middle" font-family="'Source Serif 4', Georgia, serif">May &apos;26</text><text x="527.57" y="454" fill="#8c7d5f" font-size="10" text-anchor="middle" font-family="'Source Serif 4', Georgia, serif">Jul &apos;26</text><text x="686" y="454" fill="#8c7d5f" font-size="10" text-anchor="middle" font-family="'Source Serif 4', Georgia, serif">Sep &apos;26</text><line x1="48" y1="288.88" x2="48" y2="327.51" stroke="#a3402c" stroke-width="1.0" opacity="0.85" stroke-linecap="butt"/><rect x="46.8" y="292.12" width="2.4" height="35.38" fill="#a3402c" rx="0.6"/><line x1="52.28" y1="325.15" x2="52.28" y2="344.02" stroke="#a3402c" stroke-width="1.0" opacity="0.85" stroke-linecap="butt"/><rect x="51.08" y="327.21" width="2.4" height="5.31" fill="#a3402c" rx="0.6"/><line x1="56.56" y1="324.86" x2="56.56" y2="343.43" stroke="#3c6b4c" stroke-width="1.0" opacity="0.85" stroke-linecap="butt"/><rect x="55.36" y="332.82" width="2.4" height="1.18" fill="#3c6b4c" rx="0.6"/><line x1="60.85" y1="324.86" x2="60.85" y2="337.24" stroke="#a3402c" stroke-width="1.0" opacity="0.85" stroke-linecap="butt"/><rect x="59.65" y="332.23" width="2.4" height="2.65" fill="#a3402c" rx="0.6"/><line x1="65.13" y1="309.52" x2="65.13" y2="334.88" stroke="#3c6b4c" stroke-width="1.0" opacity="0.85" stroke-linecap="butt"/><rect x="63.93" y="326.04" width="2.4" height="8.55" fill="#3c6b4c" rx="0.6"/><line x1="69.41" y1="316.89" x2="69.41" y2="335.18" stroke="#a3402c" stroke-width="1.0" opacity="0.85" stroke-linecap="butt"/><rect x="68.21" y="324.86" width="2.4" height="7.37" fill="#a3402c" rx="0.6"/><line x1="73.69" y1="327.8" x2="73.69" y2="346.97" stroke="#a3402c" stroke-width="1.0" opacity="0.85" stroke-linecap="butt"/><rect x="72.49" y="327.8" width="2.4" height="9.44" fill="#a3402c" rx="0.6"/><line x1="77.97" y1="311.88" x2="77.97" y2="338.42" stroke="#3c6b4c" stroke-width="1.0" opacity="0.85" stroke-linecap="butt"/><rect x="76.77" y="314.24" width="2.4" height="24.18" fill="#3c6b4c" rx="0.6"/><line x1="82.26" y1="310.41" x2="82.26" y2="326.62" stroke="#a3402c" stroke-width="1.0" opacity="0.85" stroke-linecap="butt"/><rect x="81.06" y="310.41" width="2.4" height="5.9" fill="#a3402c" rx="0.6"/><line x1="86.54" y1="311.88" x2="86.54" y2="325.15" stroke="#a3402c" stroke-width="1.0" opacity="0.85" stroke-linecap="butt"/><rect x="85.34" y="317.48" width="2.4" height="4.72" fill="#a3402c" rx="0.6"/><line x1="90.82" y1="303.62" x2="90.82" y2="321.91" stroke="#a3402c" stroke-width="1.0" opacity="0.85" stroke-linecap="butt"/><rect x="89.62" y="315.12" width="2.4" height="2.36" fill="#a3402c" rx="0.6"/><line x1="95.1" y1="310.7" x2="95.1" y2="323.68" stroke="#3c6b4c" stroke-width="1.0" opacity="0.85" stroke-linecap="butt"/><rect x="93.9" y="313.95" width="2.4" height="3.54" fill="#3c6b4c" rx="0.6"/><line x1="99.38" y1="288" x2="99.38" y2="312.77" stroke="#3c6b4c" stroke-width="1.0" opacity="0.85" stroke-linecap="butt"/><rect x="98.18" y="297.14" width="2.4" height="6.78" fill="#3c6b4c" rx="0.6"/><line x1="103.66" y1="282.1" x2="103.66" y2="303.92" stroke="#3c6b4c" stroke-width="1.0" opacity="0.85" stroke-linecap="butt"/><rect x="102.47" y="290.95" width="2.4" height="6.78" fill="#3c6b4c" rx="0.6"/><line x1="107.95" y1="273.25" x2="107.95" y2="297.14" stroke="#a3402c" stroke-width="1.0" opacity="0.85" stroke-linecap="butt"/><rect x="106.75" y="285.05" width="2.4" height="11.5" fill="#a3402c" rx="0.6"/><line x1="112.23" y1="289.47" x2="112.23" y2="319.84" stroke="#a3402c" stroke-width="1.0" opacity="0.85" stroke-linecap="butt"/><rect x="111.03" y="296.55" width="2.4" height="5.31" fill="#a3402c" rx="0.6"/><line x1="116.51" y1="295.37" x2="116.51" y2="321.32" stroke="#a3402c" stroke-width="1.0" opacity="0.85" stroke-linecap="butt"/><rect x="115.31" y="295.37" width="2.4" height="20.64" fill="#a3402c" rx="0.6"/><line x1="120.79" y1="261.46" x2="120.79" y2="311.29" stroke="#3c6b4c" stroke-width="1.0" opacity="0.85" stroke-linecap="butt"/><rect x="119.59" y="273.84" width="2.4" height="37.45" fill="#3c6b4c" rx="0.6"/><line x1="125.07" y1="273.84" x2="125.07" y2="307.16" stroke="#a3402c" stroke-width="1.0" opacity="0.85" stroke-linecap="butt"/><rect x="123.87" y="273.84" width="2.4" height="29.19" fill="#a3402c" rx="0.6"/><line x1="129.36" y1="301.86" x2="129.36" y2="323.38" stroke="#a3402c" stroke-width="1.0" opacity="0.85" stroke-linecap="butt"/><rect x="128.16" y="302.74" width="2.4" height="16.51" fill="#a3402c" rx="0.6"/><line x1="133.64" y1="307.16" x2="133.64" y2="343.14" stroke="#a3402c" stroke-width="1.0" opacity="0.85" stroke-linecap="butt"/><rect x="132.44" y="310.11" width="2.4" height="28.9" fill="#a3402c" rx="0.6"/><line x1="137.92" y1="320.73" x2="137.92" y2="356.11" stroke="#a3402c" stroke-width="1.0" opacity="0.85" stroke-linecap="butt"/><rect x="136.72" y="340.48" width="2.4" height="5.6" fill="#a3402c" rx="0.6"/><line x1="142.2" y1="366.14" x2="142.2" y2="403.59" stroke="#3c6b4c" stroke-width="1.0" opacity="0.85" stroke-linecap="butt"/><rect x="141" y="390.61" width="2.4" height="12.97" fill="#3c6b4c" rx="0.6"/><line x1="146.48" y1="373.21" x2="146.48" y2="392.68" stroke="#3c6b4c" stroke-width="1.0" opacity="0.85" stroke-linecap="butt"/><rect x="145.28" y="388.25" width="2.4" height="2.95" fill="#3c6b4c" rx="0.6"/><line x1="150.77" y1="377.05" x2="150.77" y2="390.02" stroke="#3c6b4c" stroke-width="1.0" opacity="0.85" stroke-linecap="butt"/><rect x="149.57" y="386.78" width="2.4" height="1.47" fill="#3c6b4c" rx="0.6"/><line x1="155.05" y1="363.19" x2="155.05" y2="383.83" stroke="#3c6b4c" stroke-width="1.0" opacity="0.85" stroke-linecap="butt"/><rect x="153.85" y="369.68" width="2.4" height="13.86" fill="#3c6b4c" rx="0.6"/><line x1="159.33" y1="364.66" x2="159.33" y2="382.06" stroke="#a3402c" stroke-width="1.0" opacity="0.85" stroke-linecap="butt"/><rect x="158.13" y="376.46" width="2.4" height="3.24" fill="#a3402c" rx="0.6"/><line x1="163.61" y1="358.18" x2="163.61" y2="395.62" stroke="#3c6b4c" stroke-width="1.0" opacity="0.85" stroke-linecap="butt"/><rect x="162.41" y="374.39" width="2.4" height="16.81" fill="#3c6b4c" rx="0.6"/><line x1="167.89" y1="358.77" x2="167.89" y2="374.1" stroke="#a3402c" stroke-width="1.0" opacity="0.85" stroke-linecap="butt"/><rect x="166.69" y="359.65" width="2.4" height="5.31" fill="#a3402c" rx="0.6"/><line x1="172.17" y1="355.52" x2="172.17" y2="373.51" stroke="#a3402c" stroke-width="1.0" opacity="0.85" stroke-linecap="butt"/><rect x="170.98" y="366.43" width="2.4" height="2.95" fill="#a3402c" rx="0.6"/><line x1="176.46" y1="347.86" x2="176.46" y2="371.45" stroke="#3c6b4c" stroke-width="1.0" opacity="0.85" stroke-linecap="butt"/><rect x="175.26" y="359.65" width="2.4" height="9.44" fill="#3c6b4c" rx="0.6"/><line x1="180.74" y1="349.92" x2="180.74" y2="370.86" stroke="#3c6b4c" stroke-width="1.0" opacity="0.85" stroke-linecap="butt"/><rect x="179.54" y="349.92" width="2.4" height="4.42" fill="#3c6b4c" rx="0.6"/><line x1="185.02" y1="341.07" x2="185.02" y2="363.48" stroke="#a3402c" stroke-width="1.0" opacity="0.85" stroke-linecap="butt"/><rect x="183.82" y="342.55" width="2.4" height="15.33" fill="#a3402c" rx="0.6"/><line x1="189.3" y1="350.21" x2="189.3" y2="364.66" stroke="#a3402c" stroke-width="1.0" opacity="0.85" stroke-linecap="butt"/><rect x="188.1" y="357.88" width="2.4" height="1.1" fill="#a3402c" rx="0.6"/><line x1="193.58" y1="357" x2="193.58" y2="385.3" stroke="#a3402c" stroke-width="1.0" opacity="0.85" stroke-linecap="butt"/><rect x="192.38" y="359.06" width="2.4" height="6.19" fill="#a3402c" rx="0.6"/><line x1="197.87" y1="361.71" x2="197.87" y2="369.09" stroke="#a3402c" stroke-width="1.0" opacity="0.85" stroke-linecap="butt"/><rect x="196.67" y="362.01" width="2.4" height="2.06" fill="#a3402c" rx="0.6"/><line x1="202.15" y1="357.88" x2="202.15" y2="393.56" stroke="#a3402c" stroke-width="1.0" opacity="0.85" stroke-linecap="butt"/><rect x="200.95" y="365.84" width="2.4" height="3.24" fill="#a3402c" rx="0.6"/><line x1="206.43" y1="313.95" x2="206.43" y2="381.77" stroke="#3c6b4c" stroke-width="1.0" opacity="0.85" stroke-linecap="butt"/><rect x="205.23" y="332.52" width="2.4" height="36.56" fill="#3c6b4c" rx="0.6"/><line x1="210.71" y1="318.96" x2="210.71" y2="369.38" stroke="#a3402c" stroke-width="1.0" opacity="0.85" stroke-linecap="butt"/><rect x="209.51" y="329.87" width="2.4" height="39.22" fill="#a3402c" rx="0.6"/><line x1="214.99" y1="314.54" x2="214.99" y2="373.8" stroke="#3c6b4c" stroke-width="1.0" opacity="0.85" stroke-linecap="butt"/><rect x="213.79" y="346.09" width="2.4" height="20.94" fill="#3c6b4c" rx="0.6"/><line x1="219.28" y1="331.93" x2="219.28" y2="364.37" stroke="#a3402c" stroke-width="1.0" opacity="0.85" stroke-linecap="butt"/><rect x="218.08" y="349.62" width="2.4" height="2.65" fill="#a3402c" rx="0.6"/><line x1="223.56" y1="318.37" x2="223.56" y2="358.77" stroke="#3c6b4c" stroke-width="1.0" opacity="0.85" stroke-linecap="butt"/><rect x="222.36" y="340.78" width="2.4" height="11.21" fill="#3c6b4c" rx="0.6"/><line x1="227.84" y1="329.28" x2="227.84" y2="350.8" stroke="#3c6b4c" stroke-width="1.0" opacity="0.85" stroke-linecap="butt"/><rect x="226.64" y="336.36" width="2.4" height="4.42" fill="#3c6b4c" rx="0.6"/><line x1="232.12" y1="277.97" x2="232.12" y2="332.82" stroke="#3c6b4c" stroke-width="1.0" opacity="0.85" stroke-linecap="butt"/><rect x="230.92" y="277.97" width="2.4" height="54.85" fill="#3c6b4c" rx="0.6"/><line x1="236.4" y1="258.51" x2="236.4" y2="298.61" stroke="#a3402c" stroke-width="1.0" opacity="0.85" stroke-linecap="butt"/><rect x="235.2" y="258.51" width="2.4" height="37.15" fill="#a3402c" rx="0.6"/><line x1="240.68" y1="288" x2="240.68" y2="313.65" stroke="#a3402c" stroke-width="1.0" opacity="0.85" stroke-linecap="butt"/><rect x="239.49" y="288" width="2.4" height="24.47" fill="#a3402c" rx="0.6"/><line x1="244.97" y1="281.51" x2="244.97" y2="337.24" stroke="#3c6b4c" stroke-width="1.0" opacity="0.85" stroke-linecap="butt"/><rect x="243.77" y="311.29" width="2.4" height="1.18" fill="#3c6b4c" rx="0.6"/><line x1="249.25" y1="262.93" x2="249.25" y2="329.28" stroke="#3c6b4c" stroke-width="1.0" opacity="0.85" stroke-linecap="butt"/><rect x="248.05" y="300.97" width="2.4" height="10.62" fill="#3c6b4c" rx="0.6"/><line x1="253.53" y1="260.28" x2="253.53" y2="286.82" stroke="#a3402c" stroke-width="1.0" opacity="0.85" stroke-linecap="butt"/><rect x="252.33" y="260.28" width="2.4" height="21.23" fill="#a3402c" rx="0.6"/><line x1="257.81" y1="236.69" x2="257.81" y2="281.51" stroke="#3c6b4c" stroke-width="1.0" opacity="0.85" stroke-linecap="butt"/><rect x="256.61" y="242.88" width="2.4" height="38.63" fill="#3c6b4c" rx="0.6"/><line x1="262.09" y1="175.21" x2="262.09" y2="242.88" stroke="#3c6b4c" stroke-width="1.0" opacity="0.85" stroke-linecap="butt"/><rect x="260.9" y="208.38" width="2.4" height="34.5" fill="#3c6b4c" rx="0.6"/><line x1="266.38" y1="164.15" x2="266.38" y2="242.29" stroke="#a3402c" stroke-width="1.0" opacity="0.85" stroke-linecap="butt"/><rect x="265.18" y="196.59" width="2.4" height="29.49" fill="#a3402c" rx="0.6"/><line x1="270.66" y1="171.52" x2="270.66" y2="225.19" stroke="#3c6b4c" stroke-width="1.0" opacity="0.85" stroke-linecap="butt"/><rect x="269.46" y="198.06" width="2.4" height="27.13" fill="#3c6b4c" rx="0.6"/><line x1="274.94" y1="177.42" x2="274.94" y2="233.15" stroke="#a3402c" stroke-width="1.0" opacity="0.85" stroke-linecap="butt"/><rect x="273.74" y="177.42" width="2.4" height="53.67" fill="#a3402c" rx="0.6"/><line x1="279.22" y1="232.56" x2="279.22" y2="267.36" stroke="#a3402c" stroke-width="1.0" opacity="0.85" stroke-linecap="butt"/><rect x="278.02" y="243.18" width="2.4" height="13.86" fill="#a3402c" rx="0.6"/><line x1="283.5" y1="233.74" x2="283.5" y2="263.82" stroke="#3c6b4c" stroke-width="1.0" opacity="0.85" stroke-linecap="butt"/><rect x="282.3" y="243.18" width="2.4" height="14.74" fill="#3c6b4c" rx="0.6"/><line x1="287.79" y1="243.18" x2="287.79" y2="266.77" stroke="#a3402c" stroke-width="1.0" opacity="0.85" stroke-linecap="butt"/><rect x="286.59" y="243.18" width="2.4" height="23.59" fill="#a3402c" rx="0.6"/><line x1="292.07" y1="255.56" x2="292.07" y2="280.04" stroke="#a3402c" stroke-width="1.0" opacity="0.85" stroke-linecap="butt"/><rect x="290.87" y="266.77" width="2.4" height="12.09" fill="#a3402c" rx="0.6"/><line x1="296.35" y1="267.65" x2="296.35" y2="286.23" stroke="#a3402c" stroke-width="1.0" opacity="0.85" stroke-linecap="butt"/><rect x="295.15" y="275.32" width="2.4" height="4.13" fill="#a3402c" rx="0.6"/><line x1="300.63" y1="236.98" x2="300.63" y2="283.57" stroke="#3c6b4c" stroke-width="1.0" opacity="0.85" stroke-linecap="butt"/><rect x="299.43" y="260.87" width="2.4" height="18.58" fill="#3c6b4c" rx="0.6"/><line x1="304.91" y1="236.39" x2="304.91" y2="262.93" stroke="#a3402c" stroke-width="1.0" opacity="0.85" stroke-linecap="butt"/><rect x="303.71" y="242.29" width="2.4" height="20.64" fill="#a3402c" rx="0.6"/><line x1="309.19" y1="243.77" x2="309.19" y2="276.79" stroke="#a3402c" stroke-width="1.0" opacity="0.85" stroke-linecap="butt"/><rect x="308" y="258.51" width="2.4" height="10.91" fill="#a3402c" rx="0.6"/><line x1="313.48" y1="253.2" x2="313.48" y2="273.84" stroke="#3c6b4c" stroke-width="1.0" opacity="0.85" stroke-linecap="butt"/><rect x="312.28" y="260.57" width="2.4" height="7.08" fill="#3c6b4c" rx="0.6"/><line x1="317.76" y1="257.04" x2="317.76" y2="288" stroke="#a3402c" stroke-width="1.0" opacity="0.85" stroke-linecap="butt"/><rect x="316.56" y="257.04" width="2.4" height="30.96" fill="#a3402c" rx="0.6"/><line x1="322.04" y1="281.51" x2="322.04" y2="300.68" stroke="#3c6b4c" stroke-width="1.0" opacity="0.85" stroke-linecap="butt"/><rect x="320.84" y="284.75" width="2.4" height="2.06" fill="#3c6b4c" rx="0.6"/><line x1="326.32" y1="266.47" x2="326.32" y2="292.12" stroke="#a3402c" stroke-width="1.0" opacity="0.85" stroke-linecap="butt"/><rect x="325.12" y="282.39" width="2.4" height="5.01" fill="#a3402c" rx="0.6"/><line x1="330.6" y1="236.69" x2="330.6" y2="286.82" stroke="#3c6b4c" stroke-width="1.0" opacity="0.85" stroke-linecap="butt"/><rect x="329.41" y="243.47" width="2.4" height="43.35" fill="#3c6b4c" rx="0.6"/><line x1="334.89" y1="237.57" x2="334.89" y2="269.12" stroke="#a3402c" stroke-width="1.0" opacity="0.85" stroke-linecap="butt"/><rect x="333.69" y="238.46" width="2.4" height="14.45" fill="#a3402c" rx="0.6"/><line x1="339.17" y1="247.01" x2="339.17" y2="262.93" stroke="#3c6b4c" stroke-width="1.0" opacity="0.85" stroke-linecap="butt"/><rect x="337.97" y="257.33" width="2.4" height="5.6" fill="#3c6b4c" rx="0.6"/><line x1="343.45" y1="241.7" x2="343.45" y2="260.28" stroke="#3c6b4c" stroke-width="1.0" opacity="0.85" stroke-linecap="butt"/><rect x="342.25" y="253.79" width="2.4" height="4.72" fill="#3c6b4c" rx="0.6"/><line x1="347.73" y1="187.15" x2="347.73" y2="226.07" stroke="#3c6b4c" stroke-width="1.0" opacity="0.85" stroke-linecap="butt"/><rect x="346.53" y="187.15" width="2.4" height="3.24" fill="#3c6b4c" rx="0.6"/><line x1="352.01" y1="155.3" x2="352.01" y2="230.5" stroke="#a3402c" stroke-width="1.0" opacity="0.85" stroke-linecap="butt"/><rect x="350.81" y="177.42" width="2.4" height="53.08" fill="#a3402c" rx="0.6"/><line x1="356.3" y1="190.1" x2="356.3" y2="230.5" stroke="#3c6b4c" stroke-width="1.0" opacity="0.85" stroke-linecap="butt"/><rect x="355.1" y="207.5" width="2.4" height="23" fill="#3c6b4c" rx="0.6"/><line x1="360.58" y1="203.07" x2="360.58" y2="234.92" stroke="#a3402c" stroke-width="1.0" opacity="0.85" stroke-linecap="butt"/><rect x="359.38" y="221.65" width="2.4" height="11.79" fill="#a3402c" rx="0.6"/><line x1="364.86" y1="218.11" x2="364.86" y2="251.14" stroke="#a3402c" stroke-width="1.0" opacity="0.85" stroke-linecap="butt"/><rect x="363.66" y="240.82" width="2.4" height="5.6" fill="#a3402c" rx="0.6"/><line x1="369.14" y1="178.89" x2="369.14" y2="255.56" stroke="#3c6b4c" stroke-width="1.0" opacity="0.85" stroke-linecap="butt"/><rect x="367.94" y="178.89" width="2.4" height="64.87" fill="#3c6b4c" rx="0.6"/><line x1="373.42" y1="152.36" x2="373.42" y2="253.2" stroke="#a3402c" stroke-width="1.0" opacity="0.85" stroke-linecap="butt"/><rect x="372.22" y="152.36" width="2.4" height="100.85" fill="#a3402c" rx="0.6"/><line x1="377.7" y1="229.32" x2="377.7" y2="285.93" stroke="#3c6b4c" stroke-width="1.0" opacity="0.85" stroke-linecap="butt"/><rect x="376.51" y="243.47" width="2.4" height="37.15" fill="#3c6b4c" rx="0.6"/><line x1="381.99" y1="234.62" x2="381.99" y2="253.2" stroke="#3c6b4c" stroke-width="1.0" opacity="0.85" stroke-linecap="butt"/><rect x="380.79" y="241.41" width="2.4" height="3.24" fill="#3c6b4c" rx="0.6"/><line x1="386.27" y1="216.34" x2="386.27" y2="244.06" stroke="#3c6b4c" stroke-width="1.0" opacity="0.85" stroke-linecap="butt"/><rect x="385.07" y="229.61" width="2.4" height="9.73" fill="#3c6b4c" rx="0.6"/><line x1="390.55" y1="229.61" x2="390.55" y2="229.61" stroke="#3c6b4c" stroke-width="1.0" opacity="0.85" stroke-linecap="butt"/><rect x="389.35" y="229.61" width="2.4" height="1.1" fill="#3c6b4c" rx="0.6"/><line x1="394.83" y1="229.61" x2="394.83" y2="229.61" stroke="#3c6b4c" stroke-width="1.0" opacity="0.85" stroke-linecap="butt"/><rect x="393.63" y="229.61" width="2.4" height="1.1" fill="#3c6b4c" rx="0.6"/><line x1="399.11" y1="229.61" x2="399.11" y2="229.61" stroke="#3c6b4c" stroke-width="1.0" opacity="0.85" stroke-linecap="butt"/><rect x="397.92" y="229.61" width="2.4" height="1.1" fill="#3c6b4c" rx="0.6"/><line x1="403.4" y1="189.51" x2="403.4" y2="227.25" stroke="#3c6b4c" stroke-width="1.0" opacity="0.85" stroke-linecap="butt"/><rect x="402.2" y="190.69" width="2.4" height="29.78" fill="#3c6b4c" rx="0.6"/><line x1="407.68" y1="176.68" x2="407.68" y2="209.86" stroke="#3c6b4c" stroke-width="1.0" opacity="0.85" stroke-linecap="butt"/><rect x="406.48" y="183.32" width="2.4" height="7.08" fill="#3c6b4c" rx="0.6"/><line x1="411.96" y1="173.73" x2="411.96" y2="213.69" stroke="#a3402c" stroke-width="1.0" opacity="0.85" stroke-linecap="butt"/><rect x="410.76" y="177.42" width="2.4" height="33.62" fill="#a3402c" rx="0.6"/><line x1="416.24" y1="170.05" x2="416.24" y2="224.89" stroke="#a3402c" stroke-width="1.0" opacity="0.85" stroke-linecap="butt"/><rect x="415.04" y="170.05" width="2.4" height="51.6" fill="#a3402c" rx="0.6"/><line x1="420.52" y1="202.19" x2="420.52" y2="239.64" stroke="#3c6b4c" stroke-width="1.0" opacity="0.85" stroke-linecap="butt"/><rect x="419.32" y="220.77" width="2.4" height="18.87" fill="#3c6b4c" rx="0.6"/><line x1="424.81" y1="195.11" x2="424.81" y2="238.16" stroke="#a3402c" stroke-width="1.0" opacity="0.85" stroke-linecap="butt"/><rect x="423.61" y="199.54" width="2.4" height="26.54" fill="#a3402c" rx="0.6"/><line x1="429.09" y1="188.92" x2="429.09" y2="234.92" stroke="#a3402c" stroke-width="1.0" opacity="0.85" stroke-linecap="butt"/><rect x="427.89" y="226.07" width="2.4" height="2.65" fill="#a3402c" rx="0.6"/><line x1="433.37" y1="211.92" x2="433.37" y2="264.7" stroke="#a3402c" stroke-width="1.0" opacity="0.85" stroke-linecap="butt"/><rect x="432.17" y="230.5" width="2.4" height="7.37" fill="#a3402c" rx="0.6"/><line x1="437.65" y1="227.55" x2="437.65" y2="255.27" stroke="#a3402c" stroke-width="1.0" opacity="0.85" stroke-linecap="butt"/><rect x="436.45" y="229.91" width="2.4" height="18.58" fill="#a3402c" rx="0.6"/><line x1="441.93" y1="208.38" x2="441.93" y2="241.11" stroke="#3c6b4c" stroke-width="1.0" opacity="0.85" stroke-linecap="butt"/><rect x="440.73" y="227.84" width="2.4" height="1.18" fill="#3c6b4c" rx="0.6"/><line x1="446.21" y1="158.99" x2="446.21" y2="231.38" stroke="#3c6b4c" stroke-width="1.0" opacity="0.85" stroke-linecap="butt"/><rect x="445.02" y="158.99" width="2.4" height="68.26" fill="#3c6b4c" rx="0.6"/><line x1="450.5" y1="127.29" x2="450.5" y2="193.64" stroke="#a3402c" stroke-width="1.0" opacity="0.85" stroke-linecap="butt"/><rect x="449.3" y="142.77" width="2.4" height="39.07" fill="#a3402c" rx="0.6"/><line x1="454.78" y1="181.11" x2="454.78" y2="208.09" stroke="#a3402c" stroke-width="1.0" opacity="0.85" stroke-linecap="butt"/><rect x="453.58" y="181.84" width="2.4" height="23.59" fill="#a3402c" rx="0.6"/><line x1="459.06" y1="165.63" x2="459.06" y2="205.43" stroke="#3c6b4c" stroke-width="1.0" opacity="0.85" stroke-linecap="butt"/><rect x="457.86" y="183.32" width="2.4" height="22.12" fill="#3c6b4c" rx="0.6"/><line x1="463.34" y1="109.6" x2="463.34" y2="206.91" stroke="#3c6b4c" stroke-width="1.0" opacity="0.85" stroke-linecap="butt"/><rect x="462.14" y="109.6" width="2.4" height="97.31" fill="#3c6b4c" rx="0.6"/><line x1="467.62" y1="60.21" x2="467.62" y2="128.77" stroke="#a3402c" stroke-width="1.0" opacity="0.85" stroke-linecap="butt"/><rect x="466.43" y="91.17" width="2.4" height="29.49" fill="#a3402c" rx="0.6"/><line x1="471.91" y1="83.8" x2="471.91" y2="150.88" stroke="#a3402c" stroke-width="1.0" opacity="0.85" stroke-linecap="butt"/><rect x="470.71" y="134.66" width="2.4" height="14.74" fill="#a3402c" rx="0.6"/><line x1="476.19" y1="109.6" x2="476.19" y2="149.41" stroke="#3c6b4c" stroke-width="1.0" opacity="0.85" stroke-linecap="butt"/><rect x="474.99" y="135.4" width="2.4" height="14.01" fill="#3c6b4c" rx="0.6"/><line x1="480.47" y1="113.29" x2="480.47" y2="187.45" stroke="#a3402c" stroke-width="1.0" opacity="0.85" stroke-linecap="butt"/><rect x="479.27" y="140.56" width="2.4" height="39.81" fill="#a3402c" rx="0.6"/><line x1="484.75" y1="147.93" x2="484.75" y2="190.69" stroke="#3c6b4c" stroke-width="1.0" opacity="0.85" stroke-linecap="butt"/><rect x="483.55" y="170.05" width="2.4" height="17.4" fill="#3c6b4c" rx="0.6"/><line x1="489.03" y1="148.67" x2="489.03" y2="201.6" stroke="#a3402c" stroke-width="1.0" opacity="0.85" stroke-linecap="butt"/><rect x="487.83" y="148.67" width="2.4" height="51.16" fill="#a3402c" rx="0.6"/><line x1="493.32" y1="157.52" x2="493.32" y2="200.71" stroke="#3c6b4c" stroke-width="1.0" opacity="0.85" stroke-linecap="butt"/><rect x="492.12" y="174.47" width="2.4" height="24.77" fill="#3c6b4c" rx="0.6"/><line x1="497.6" y1="142.04" x2="497.6" y2="187.15" stroke="#3c6b4c" stroke-width="1.0" opacity="0.85" stroke-linecap="butt"/><rect x="496.4" y="170.79" width="2.4" height="14.01" fill="#3c6b4c" rx="0.6"/><line x1="501.88" y1="96.33" x2="501.88" y2="176.68" stroke="#3c6b4c" stroke-width="1.0" opacity="0.85" stroke-linecap="butt"/><rect x="500.68" y="131.71" width="2.4" height="38.33" fill="#3c6b4c" rx="0.6"/><line x1="506.16" y1="97.8" x2="506.16" y2="136.88" stroke="#3c6b4c" stroke-width="1.0" opacity="0.85" stroke-linecap="butt"/><rect x="504.96" y="112.55" width="2.4" height="21.38" fill="#3c6b4c" rx="0.6"/><line x1="510.44" y1="48.41" x2="510.44" y2="126.55" stroke="#3c6b4c" stroke-width="1.0" opacity="0.85" stroke-linecap="butt"/><rect x="509.24" y="96.33" width="2.4" height="14.74" fill="#3c6b4c" rx="0.6"/><line x1="514.72" y1="72.74" x2="514.72" y2="153.83" stroke="#a3402c" stroke-width="1.0" opacity="0.85" stroke-linecap="butt"/><rect x="513.53" y="83.8" width="2.4" height="63.4" fill="#a3402c" rx="0.6"/><line x1="519.01" y1="69.79" x2="519.01" y2="140.56" stroke="#3c6b4c" stroke-width="1.0" opacity="0.85" stroke-linecap="butt"/><rect x="517.81" y="110.34" width="2.4" height="30.22" fill="#3c6b4c" rx="0.6"/><line x1="523.29" y1="81.59" x2="523.29" y2="148.67" stroke="#a3402c" stroke-width="1.0" opacity="0.85" stroke-linecap="butt"/><rect x="522.09" y="125.82" width="2.4" height="14.74" fill="#a3402c" rx="0.6"/><line x1="527.57" y1="108.13" x2="527.57" y2="150.88" stroke="#a3402c" stroke-width="1.0" opacity="0.85" stroke-linecap="butt"/><rect x="526.37" y="139.82" width="2.4" height="1.1" fill="#a3402c" rx="0.6"/><line x1="531.85" y1="128.03" x2="531.85" y2="176.68" stroke="#a3402c" stroke-width="1.0" opacity="0.85" stroke-linecap="butt"/><rect x="530.65" y="140.56" width="2.4" height="34.65" fill="#a3402c" rx="0.6"/><line x1="536.13" y1="142.04" x2="536.13" y2="177.42" stroke="#3c6b4c" stroke-width="1.0" opacity="0.85" stroke-linecap="butt"/><rect x="534.94" y="159.73" width="2.4" height="15.48" fill="#3c6b4c" rx="0.6"/><line x1="540.42" y1="126.55" x2="540.42" y2="166.36" stroke="#3c6b4c" stroke-width="1.0" opacity="0.85" stroke-linecap="butt"/><rect x="539.22" y="146.46" width="2.4" height="14.74" fill="#3c6b4c" rx="0.6"/><line x1="544.7" y1="124.34" x2="544.7" y2="174.47" stroke="#3c6b4c" stroke-width="1.0" opacity="0.85" stroke-linecap="butt"/><rect x="543.5" y="135.4" width="2.4" height="11.06" fill="#3c6b4c" rx="0.6"/><line x1="548.98" y1="91.17" x2="548.98" y2="161.2" stroke="#a3402c" stroke-width="1.0" opacity="0.85" stroke-linecap="butt"/><rect x="547.78" y="134.66" width="2.4" height="26.54" fill="#a3402c" rx="0.6"/><line x1="553.26" y1="140.56" x2="553.26" y2="164.15" stroke="#3c6b4c" stroke-width="1.0" opacity="0.85" stroke-linecap="butt"/><rect x="552.06" y="160.46" width="2.4" height="1.1" fill="#3c6b4c" rx="0.6"/><line x1="557.54" y1="152.36" x2="557.54" y2="195.41" stroke="#a3402c" stroke-width="1.0" opacity="0.85" stroke-linecap="butt"/><rect x="556.34" y="155.3" width="2.4" height="35.38" fill="#a3402c" rx="0.6"/><line x1="561.83" y1="181.84" x2="561.83" y2="206.91" stroke="#a3402c" stroke-width="1.0" opacity="0.85" stroke-linecap="butt"/><rect x="560.63" y="189.51" width="2.4" height="17.4" fill="#a3402c" rx="0.6"/><line x1="566.11" y1="189.21" x2="566.11" y2="218.7" stroke="#a3402c" stroke-width="1.0" opacity="0.85" stroke-linecap="butt"/><rect x="564.91" y="207.2" width="2.4" height="5.9" fill="#a3402c" rx="0.6"/><line x1="570.39" y1="201.01" x2="570.39" y2="219.29" stroke="#a3402c" stroke-width="1.0" opacity="0.85" stroke-linecap="butt"/><rect x="569.19" y="206.91" width="2.4" height="8.85" fill="#a3402c" rx="0.6"/><line x1="574.67" y1="206.91" x2="574.67" y2="251.14" stroke="#a3402c" stroke-width="1.0" opacity="0.85" stroke-linecap="butt"/><rect x="573.47" y="206.91" width="2.4" height="42.17" fill="#a3402c" rx="0.6"/><line x1="578.95" y1="239.93" x2="578.95" y2="257.04" stroke="#a3402c" stroke-width="1.0" opacity="0.85" stroke-linecap="butt"/><rect x="577.75" y="248.19" width="2.4" height="1.18" fill="#a3402c" rx="0.6"/><line x1="583.23" y1="244.95" x2="583.23" y2="269.42" stroke="#a3402c" stroke-width="1.0" opacity="0.85" stroke-linecap="butt"/><rect x="582.04" y="250.55" width="2.4" height="18.87" fill="#a3402c" rx="0.6"/><line x1="587.52" y1="261.75" x2="587.52" y2="280.62" stroke="#a3402c" stroke-width="1.0" opacity="0.85" stroke-linecap="butt"/><rect x="586.32" y="268.24" width="2.4" height="6.19" fill="#a3402c" rx="0.6"/><line x1="591.8" y1="265.29" x2="591.8" y2="280.62" stroke="#3c6b4c" stroke-width="1.0" opacity="0.85" stroke-linecap="butt"/><rect x="590.6" y="275.61" width="2.4" height="1.1" fill="#3c6b4c" rx="0.6"/><line x1="596.08" y1="214.28" x2="596.08" y2="275.32" stroke="#3c6b4c" stroke-width="1.0" opacity="0.85" stroke-linecap="butt"/><rect x="594.88" y="235.8" width="2.4" height="39.51" fill="#3c6b4c" rx="0.6"/><line x1="600.36" y1="206.02" x2="600.36" y2="260.57" stroke="#a3402c" stroke-width="1.0" opacity="0.85" stroke-linecap="butt"/><rect x="599.16" y="206.02" width="2.4" height="47.77" fill="#a3402c" rx="0.6"/><line x1="604.64" y1="243.77" x2="604.64" y2="276.2" stroke="#a3402c" stroke-width="1.0" opacity="0.85" stroke-linecap="butt"/><rect x="603.45" y="245.24" width="2.4" height="28.01" fill="#a3402c" rx="0.6"/><line x1="608.93" y1="254.97" x2="608.93" y2="272.37" stroke="#3c6b4c" stroke-width="1.0" opacity="0.85" stroke-linecap="butt"/><rect x="607.73" y="263.23" width="2.4" height="4.13" fill="#3c6b4c" rx="0.6"/><line x1="613.21" y1="239.64" x2="613.21" y2="259.98" stroke="#3c6b4c" stroke-width="1.0" opacity="0.85" stroke-linecap="butt"/><rect x="612.01" y="241.11" width="2.4" height="15.92" fill="#3c6b4c" rx="0.6"/><line x1="617.49" y1="230.2" x2="617.49" y2="249.37" stroke="#3c6b4c" stroke-width="1.0" opacity="0.85" stroke-linecap="butt"/><rect x="616.29" y="230.5" width="2.4" height="9.14" fill="#3c6b4c" rx="0.6"/><line x1="621.77" y1="220.18" x2="621.77" y2="259.1" stroke="#a3402c" stroke-width="1.0" opacity="0.85" stroke-linecap="butt"/><rect x="620.57" y="234.92" width="2.4" height="4.42" fill="#a3402c" rx="0.6"/><line x1="626.05" y1="230.5" x2="626.05" y2="264.11" stroke="#a3402c" stroke-width="1.0" opacity="0.85" stroke-linecap="butt"/><rect x="624.85" y="239.34" width="2.4" height="17.1" fill="#a3402c" rx="0.6"/><line x1="630.34" y1="251.14" x2="630.34" y2="265.88" stroke="#3c6b4c" stroke-width="1.0" opacity="0.85" stroke-linecap="butt"/><rect x="629.14" y="253.5" width="2.4" height="12.38" fill="#3c6b4c" rx="0.6"/><line x1="634.62" y1="233.15" x2="634.62" y2="258.8" stroke="#3c6b4c" stroke-width="1.0" opacity="0.85" stroke-linecap="butt"/><rect x="633.42" y="240.23" width="2.4" height="13.27" fill="#3c6b4c" rx="0.6"/><line x1="638.9" y1="231.09" x2="638.9" y2="258.21" stroke="#3c6b4c" stroke-width="1.0" opacity="0.85" stroke-linecap="butt"/><rect x="637.7" y="248.19" width="2.4" height="10.03" fill="#3c6b4c" rx="0.6"/><line x1="643.18" y1="273.55" x2="643.18" y2="301.27" stroke="#a3402c" stroke-width="1.0" opacity="0.85" stroke-linecap="butt"/><rect x="641.98" y="288" width="2.4" height="2.95" fill="#a3402c" rx="0.6"/><line x1="647.46" y1="284.75" x2="647.46" y2="302.74" stroke="#a3402c" stroke-width="1.0" opacity="0.85" stroke-linecap="butt"/><rect x="646.26" y="289.47" width="2.4" height="7.37" fill="#a3402c" rx="0.6"/><line x1="651.74" y1="286.82" x2="651.74" y2="316.89" stroke="#a3402c" stroke-width="1.0" opacity="0.85" stroke-linecap="butt"/><rect x="650.55" y="297.73" width="2.4" height="18.58" fill="#a3402c" rx="0.6"/><line x1="656.03" y1="312.18" x2="656.03" y2="339.6" stroke="#a3402c" stroke-width="1.0" opacity="0.85" stroke-linecap="butt"/><rect x="654.83" y="315.12" width="2.4" height="17.1" fill="#a3402c" rx="0.6"/><line x1="660.31" y1="296.84" x2="660.31" y2="332.52" stroke="#3c6b4c" stroke-width="1.0" opacity="0.85" stroke-linecap="butt"/><rect x="659.11" y="320.43" width="2.4" height="8.26" fill="#3c6b4c" rx="0.6"/><line x1="664.59" y1="315.12" x2="664.59" y2="327.51" stroke="#a3402c" stroke-width="1.0" opacity="0.85" stroke-linecap="butt"/><rect x="663.39" y="318.07" width="2.4" height="7.67" fill="#a3402c" rx="0.6"/><line x1="668.87" y1="322.79" x2="668.87" y2="332.23" stroke="#a3402c" stroke-width="1.0" opacity="0.85" stroke-linecap="butt"/><rect x="667.67" y="325.45" width="2.4" height="6.19" fill="#a3402c" rx="0.6"/><line x1="673.15" y1="328.98" x2="673.15" y2="336.65" stroke="#a3402c" stroke-width="1.0" opacity="0.85" stroke-linecap="butt"/><rect x="671.96" y="329.57" width="2.4" height="4.13" fill="#a3402c" rx="0.6"/><line x1="677.44" y1="329.28" x2="677.44" y2="357.29" stroke="#a3402c" stroke-width="1.0" opacity="0.85" stroke-linecap="butt"/><rect x="676.24" y="329.28" width="2.4" height="27.13" fill="#a3402c" rx="0.6"/><line x1="681.72" y1="340.78" x2="681.72" y2="359.95" stroke="#3c6b4c" stroke-width="1.0" opacity="0.85" stroke-linecap="butt"/><rect x="680.52" y="342.55" width="2.4" height="13.86" fill="#3c6b4c" rx="0.6"/><line x1="686" y1="339.89" x2="686" y2="359.95" stroke="#a3402c" stroke-width="1.0" opacity="0.85" stroke-linecap="butt"/><rect x="684.8" y="339.89" width="2.4" height="18.28" fill="#a3402c" rx="0.6"/><line x1="-1463.5" y1="337.54" x2="-1347.89" y2="494.7" stroke="#4d5c73" stroke-width="1.4" opacity="0.85" stroke-linecap="butt"/><line x1="-1347.89" y1="494.7" x2="-1313.64" y2="326.33" stroke="#4d5c73" stroke-width="1.4" opacity="0.85" stroke-linecap="butt"/><line x1="-1313.64" y1="326.33" x2="-1287.95" y2="426.59" stroke="#4d5c73" stroke-width="1.4" opacity="0.85" stroke-linecap="butt"/><line x1="-1287.95" y1="426.59" x2="-1275.1" y2="276.2" stroke="#4d5c73" stroke-width="1.4" opacity="0.85" stroke-linecap="butt"/><line x1="-1275.1" y1="276.2" x2="-1266.54" y2="352.57" stroke="#4d5c73" stroke-width="1.4" opacity="0.85" stroke-linecap="butt"/><line x1="-1266.54" y1="352.57" x2="-1262.26" y2="245.24" stroke="#4d5c73" stroke-width="1.4" opacity="0.85" stroke-linecap="butt"/><line x1="-1262.26" y1="245.24" x2="-1240.85" y2="354.34" stroke="#4d5c73" stroke-width="1.4" opacity="0.85" stroke-linecap="butt"/><line x1="-1240.85" y1="354.34" x2="-1236.56" y2="265.88" stroke="#4d5c73" stroke-width="1.4" opacity="0.85" stroke-linecap="butt"/><line x1="-1236.56" y1="265.88" x2="-1206.59" y2="373.21" stroke="#4d5c73" stroke-width="1.4" opacity="0.85" stroke-linecap="butt"/><line x1="-1206.59" y1="373.21" x2="-1180.9" y2="285.34" stroke="#4d5c73" stroke-width="1.4" opacity="0.85" stroke-linecap="butt"/><line x1="-1180.9" y1="285.34" x2="-1043.88" y2="420.39" stroke="#4d5c73" stroke-width="1.4" opacity="0.85" stroke-linecap="butt"/><line x1="-1043.88" y1="420.39" x2="-1035.32" y2="362.01" stroke="#4d5c73" stroke-width="1.4" opacity="0.85" stroke-linecap="butt"/><line x1="-1035.32" y1="362.01" x2="-962.52" y2="468.75" stroke="#4d5c73" stroke-width="1.4" opacity="0.85" stroke-linecap="butt"/><line x1="-962.52" y1="468.75" x2="-945.4" y2="409.19" stroke="#4d5c73" stroke-width="1.4" opacity="0.85" stroke-linecap="butt"/><line x1="-945.4" y1="409.19" x2="-919.7" y2="488.8" stroke="#4d5c73" stroke-width="1.4" opacity="0.85" stroke-linecap="butt"/><line x1="-919.7" y1="488.8" x2="-894.01" y2="424.23" stroke="#4d5c73" stroke-width="1.4" opacity="0.85" stroke-linecap="butt"/><line x1="-894.01" y1="424.23" x2="-864.04" y2="533.92" stroke="#4d5c73" stroke-width="1.4" opacity="0.85" stroke-linecap="butt"/><line x1="-864.04" y1="533.92" x2="-842.63" y2="460.79" stroke="#4d5c73" stroke-width="1.4" opacity="0.85" stroke-linecap="butt"/><line x1="-842.63" y1="460.79" x2="-829.79" y2="509.74" stroke="#4d5c73" stroke-width="1.4" opacity="0.85" stroke-linecap="butt"/><line x1="-829.79" y1="509.74" x2="-804.09" y2="299.79" stroke="#4d5c73" stroke-width="1.4" opacity="0.85" stroke-linecap="butt"/><line x1="-804.09" y1="299.79" x2="-765.56" y2="487.92" stroke="#4d5c73" stroke-width="1.4" opacity="0.85" stroke-linecap="butt"/><line x1="-765.56" y1="487.92" x2="-731.3" y2="390.91" stroke="#4d5c73" stroke-width="1.4" opacity="0.85" stroke-linecap="butt"/><line x1="-731.3" y1="390.91" x2="-701.33" y2="466.1" stroke="#4d5c73" stroke-width="1.4" opacity="0.85" stroke-linecap="butt"/><line x1="-701.33" y1="466.1" x2="-692.77" y2="407.42" stroke="#4d5c73" stroke-width="1.4" opacity="0.85" stroke-linecap="butt"/><line x1="-692.77" y1="407.42" x2="-671.36" y2="505.32" stroke="#4d5c73" stroke-width="1.4" opacity="0.85" stroke-linecap="butt"/><line x1="-671.36" y1="505.32" x2="-654.23" y2="457.25" stroke="#4d5c73" stroke-width="1.4" opacity="0.85" stroke-linecap="butt"/><line x1="-654.23" y1="457.25" x2="-641.38" y2="515.64" stroke="#4d5c73" stroke-width="1.4" opacity="0.85" stroke-linecap="butt"/><line x1="-641.38" y1="515.64" x2="-628.54" y2="465.21" stroke="#4d5c73" stroke-width="1.4" opacity="0.85" stroke-linecap="butt"/><line x1="-628.54" y1="465.21" x2="-615.69" y2="510.62" stroke="#4d5c73" stroke-width="1.4" opacity="0.85" stroke-linecap="butt"/><line x1="-615.69" y1="510.62" x2="-534.34" y2="276.2" stroke="#4d5c73" stroke-width="1.4" opacity="0.85" stroke-linecap="butt"/><line x1="-534.34" y1="276.2" x2="-495.8" y2="385.6" stroke="#4d5c73" stroke-width="1.4" opacity="0.85" stroke-linecap="butt"/><line x1="-495.8" y1="385.6" x2="-431.57" y2="280.62" stroke="#4d5c73" stroke-width="1.4" opacity="0.85" stroke-linecap="butt"/><line x1="-431.57" y1="280.62" x2="-375.91" y2="405.36" stroke="#4d5c73" stroke-width="1.4" opacity="0.85" stroke-linecap="butt"/><line x1="-375.91" y1="405.36" x2="-358.78" y2="296.55" stroke="#4d5c73" stroke-width="1.4" opacity="0.85" stroke-linecap="butt"/><line x1="-358.78" y1="296.55" x2="-247.45" y2="405.06" stroke="#4d5c73" stroke-width="1.4" opacity="0.85" stroke-linecap="butt"/><line x1="-247.45" y1="405.06" x2="-200.35" y2="279.74" stroke="#4d5c73" stroke-width="1.4" opacity="0.85" stroke-linecap="butt"/><line x1="-200.35" y1="279.74" x2="-178.94" y2="376.46" stroke="#4d5c73" stroke-width="1.4" opacity="0.85" stroke-linecap="butt"/><line x1="-178.94" y1="376.46" x2="-170.38" y2="288" stroke="#4d5c73" stroke-width="1.4" opacity="0.85" stroke-linecap="butt"/><line x1="-170.38" y1="288" x2="-148.97" y2="373.21" stroke="#4d5c73" stroke-width="1.4" opacity="0.85" stroke-linecap="butt"/><line x1="-148.97" y1="373.21" x2="-144.68" y2="303.62" stroke="#4d5c73" stroke-width="1.4" opacity="0.85" stroke-linecap="butt"/><line x1="-144.68" y1="303.62" x2="-136.12" y2="386.48" stroke="#4d5c73" stroke-width="1.4" opacity="0.85" stroke-linecap="butt"/><line x1="-136.12" y1="386.48" x2="-118.99" y2="316.01" stroke="#4d5c73" stroke-width="1.4" opacity="0.85" stroke-linecap="butt"/><line x1="-118.99" y1="316.01" x2="-46.2" y2="393.86" stroke="#4d5c73" stroke-width="1.4" opacity="0.85" stroke-linecap="butt"/><line x1="-46.2" y1="393.86" x2="39.44" y2="210.15" stroke="#4d5c73" stroke-width="1.4" opacity="0.85" stroke-linecap="butt"/><line x1="39.44" y1="210.15" x2="73.69" y2="346.97" stroke="#4d5c73" stroke-width="1.4" opacity="0.85" stroke-linecap="butt"/><line x1="73.69" y1="346.97" x2="107.95" y2="273.25" stroke="#4d5c73" stroke-width="1.4" opacity="0.85" stroke-linecap="butt"/><line x1="107.95" y1="273.25" x2="116.51" y2="321.32" stroke="#4d5c73" stroke-width="1.4" opacity="0.85" stroke-linecap="butt"/><line x1="116.51" y1="321.32" x2="120.79" y2="261.46" stroke="#4d5c73" stroke-width="1.4" opacity="0.85" stroke-linecap="butt"/><line x1="120.79" y1="261.46" x2="142.2" y2="403.59" stroke="#4d5c73" stroke-width="1.4" opacity="0.85" stroke-linecap="butt"/><line x1="142.2" y1="403.59" x2="185.02" y2="341.07" stroke="#4d5c73" stroke-width="1.4" opacity="0.85" stroke-linecap="butt"/><line x1="185.02" y1="341.07" x2="202.15" y2="393.56" stroke="#4d5c73" stroke-width="1.4" opacity="0.85" stroke-linecap="butt"/><line x1="202.15" y1="393.56" x2="236.4" y2="258.51" stroke="#4d5c73" stroke-width="1.4" opacity="0.85" stroke-linecap="butt"/><line x1="236.4" y1="258.51" x2="244.97" y2="337.24" stroke="#4d5c73" stroke-width="1.4" opacity="0.85" stroke-linecap="butt"/><line x1="244.97" y1="337.24" x2="266.38" y2="164.15" stroke="#4d5c73" stroke-width="1.4" opacity="0.85" stroke-linecap="butt"/><line x1="266.38" y1="164.15" x2="322.04" y2="300.68" stroke="#4d5c73" stroke-width="1.4" opacity="0.85" stroke-linecap="butt"/><line x1="322.04" y1="300.68" x2="352.01" y2="155.3" stroke="#4d5c73" stroke-width="1.4" opacity="0.85" stroke-linecap="butt"/><line x1="352.01" y1="155.3" x2="369.14" y2="255.56" stroke="#4d5c73" stroke-width="1.4" opacity="0.85" stroke-linecap="butt"/><line x1="369.14" y1="255.56" x2="373.42" y2="152.36" stroke="#4d5c73" stroke-width="1.4" opacity="0.85" stroke-linecap="butt"/><line x1="373.42" y1="152.36" x2="377.7" y2="285.93" stroke="#4d5c73" stroke-width="1.4" opacity="0.85" stroke-linecap="butt"/><line x1="377.7" y1="285.93" x2="416.24" y2="170.05" stroke="#4d5c73" stroke-width="1.4" opacity="0.85" stroke-linecap="butt"/><line x1="416.24" y1="170.05" x2="433.37" y2="264.7" stroke="#4d5c73" stroke-width="1.4" opacity="0.85" stroke-linecap="butt"/><line x1="433.37" y1="264.7" x2="467.62" y2="60.21" stroke="#4d5c73" stroke-width="1.4" opacity="0.85" stroke-linecap="butt"/><line x1="467.62" y1="60.21" x2="489.03" y2="201.6" stroke="#4d5c73" stroke-width="1.4" opacity="0.85" stroke-linecap="butt"/><line x1="489.03" y1="147.59" x2="686" y2="147.59" stroke="#d8c9a3" stroke-width="1" stroke-dasharray="2,3" opacity="0.5" stroke-linecap="butt"/><text x="696" y="151.09" fill="#c3b696" font-size="9.5" text-anchor="start" font-family="'IBM Plex Mono', ui-monospace, monospace" font-weight="400">0.382 · 52.52</text><line x1="489.03" y1="130.9" x2="686" y2="130.9" stroke="#d8c9a3" stroke-width="1" stroke-dasharray="2,3" opacity="0.5" stroke-linecap="butt"/><text x="696" y="134.4" fill="#c3b696" font-size="9.5" text-anchor="start" font-family="'IBM Plex Mono', ui-monospace, monospace" font-weight="400">0.500 · 53.66</text><line x1="489.03" y1="114.22" x2="686" y2="114.22" stroke="#b8802a" stroke-width="1" stroke-dasharray="2,3" opacity="0.85" stroke-linecap="butt"/><text x="696" y="117.72" fill="#b8802a" font-size="9.5" text-anchor="start" font-family="'IBM Plex Mono', ui-monospace, monospace" font-weight="700">0.618 · 54.79</text><line x1="489.03" y1="90.47" x2="686" y2="90.47" stroke="#b8802a" stroke-width="1" stroke-dasharray="2,3" opacity="0.85" stroke-linecap="butt"/><text x="696" y="93.97" fill="#b8802a" font-size="9.5" text-anchor="start" font-family="'IBM Plex Mono', ui-monospace, monospace" font-weight="700">0.786 · 56.40</text><line x1="489.03" y1="240.06" x2="686" y2="240.06" stroke="#d8c9a3" stroke-width="1" stroke-dasharray="2,3" opacity="0.5" stroke-linecap="butt"/><text x="696" y="243.56" fill="#c3b696" font-size="9.5" text-anchor="start" font-family="'IBM Plex Mono', ui-monospace, monospace" font-weight="400">1.272 · 46.25</text><line x1="489.03" y1="288.98" x2="686" y2="288.98" stroke="#d8c9a3" stroke-width="1" stroke-dasharray="2,3" opacity="0.5" stroke-linecap="butt"/><text x="696" y="292.48" fill="#c3b696" font-size="9.5" text-anchor="start" font-family="'IBM Plex Mono', ui-monospace, monospace" font-weight="400">1.618 · 42.93</text><circle cx="373.42" cy="152.36" r="2.6" fill="#2c2418"/><circle cx="377.7" cy="285.93" r="2.6" fill="#2c2418"/><circle cx="416.24" cy="170.05" r="2.6" fill="#2c2418"/><circle cx="433.37" cy="264.7" r="2.6" fill="#2c2418"/><circle cx="467.62" cy="60.21" r="2.6" fill="#2c2418"/><circle cx="489.03" cy="201.6" r="2.6" fill="#2c2418"/><text x="373.42" y="145.36" fill="#8c7d5f" font-size="10" text-anchor="middle" font-family="'IBM Plex Mono', ui-monospace, monospace" font-weight="600">HH</text><text x="377.7" y="300.93" fill="#8c7d5f" font-size="10" text-anchor="middle" font-family="'IBM Plex Mono', ui-monospace, monospace" font-weight="600">LL</text><text x="416.24" y="163.05" fill="#8c7d5f" font-size="10" text-anchor="middle" font-family="'IBM Plex Mono', ui-monospace, monospace" font-weight="600">LH</text><text x="433.37" y="279.7" fill="#8c7d5f" font-size="10" text-anchor="middle" font-family="'IBM Plex Mono', ui-monospace, monospace" font-weight="600">HL</text><text x="467.62" y="53.21" fill="#8c7d5f" font-size="10" text-anchor="middle" font-family="'IBM Plex Mono', ui-monospace, monospace" font-weight="600">HH</text><text x="489.03" y="216.6" fill="#8c7d5f" font-size="10" text-anchor="middle" font-family="'IBM Plex Mono', ui-monospace, monospace" font-weight="600">HL</text></svg></svg>