<svg xmlns="http://www.w3.org/2000/svg" viewBox="0 0 780.0 460.0" width="780.0" height="460.0"><rect width="780.0" height="460.0" fill="#090b0f"/><svg x="0.0" y="0.0" width="780.0" height="460.0" viewBox="0 0 780.0 460.0"><rect width="780.0" height="460.0" fill="#0d1015"/><line x1="48" y1="262.68" x2="686" y2="262.68" stroke="#161a21" stroke-width="1" stroke-linecap="butt"/><text x="38" y="266.18" fill="#6d7480" font-size="10" text-anchor="end" font-family="'JetBrains Mono', ui-monospace, monospace">300.0</text><line x1="48" y1="69.65" x2="686" y2="69.65" stroke="#161a21" stroke-width="1" stroke-linecap="butt"/><text x="38" y="73.15" fill="#6d7480" font-size="10" text-anchor="end" font-family="'JetBrains Mono', ui-monospace, monospace">350.0</text><text x="48" y="454" fill="#6d7480" font-size="10" text-anchor="middle" font-family="'Inter', -apple-system, sans-serif">Jan &apos;26</text><text x="206.43" y="454" fill="#6d7480" font-size="10" text-anchor="middle" font-family="'Inter', -apple-system, sans-serif">Mar &apos;26</text><text x="364.86" y="454" fill="#6d7480" font-size="10" text-anchor="middle" font-family="'Inter', -apple-system, sans-serif">May &apos;26</text><text x="527.57" y="454" fill="#6d7480" font-size="10" text-anchor="middle" font-family="'Inter', -apple-system, sans-serif">Jul &apos;26</text><text x="686" y="454" fill="#6d7480" font-size="10" text-anchor="middle" font-family="'Inter', -apple-system, sans-serif">Sep &apos;26</text><line x1="48" y1="234.69" x2="48" y2="270.4" stroke="#22d67f" stroke-width="1.0" opacity="0.95" stroke-linecap="butt"/><rect x="46.8" y="253.99" width="2.4" height="8.69" fill="#22d67f" rx="0.6"/><line x1="52.28" y1="230.83" x2="52.28" y2="268.47" stroke="#22d67f" stroke-width="1.0" opacity="0.95" stroke-linecap="butt"/><rect x="51.08" y="247.23" width="2.4" height="6.76" fill="#22d67f" rx="0.6"/><line x1="56.56" y1="224.07" x2="56.56" y2="270.4" stroke="#22d67f" stroke-width="1.0" opacity="0.95" stroke-linecap="butt"/><rect x="55.36" y="240.48" width="2.4" height="21.23" fill="#22d67f" rx="0.6"/><line x1="60.85" y1="188.36" x2="60.85" y2="231.79" stroke="#22d67f" stroke-width="1.0" opacity="0.95" stroke-linecap="butt"/><rect x="59.65" y="190.29" width="2.4" height="41.5" fill="#22d67f" rx="0.6"/><line x1="65.13" y1="174.85" x2="65.13" y2="204.77" stroke="#22d67f" stroke-width="1.0" opacity="0.95" stroke-linecap="butt"/><rect x="63.93" y="183.53" width="2.4" height="1.93" fill="#22d67f" rx="0.6"/><line x1="69.41" y1="177.74" x2="69.41" y2="200.91" stroke="#ff5c5c" stroke-width="1.0" opacity="0.95" stroke-linecap="butt"/><rect x="68.21" y="191.25" width="2.4" height="5.79" fill="#ff5c5c" rx="0.6"/><line x1="73.69" y1="168.09" x2="73.69" y2="217.31" stroke="#22d67f" stroke-width="1.0" opacity="0.95" stroke-linecap="butt"/><rect x="72.49" y="175.81" width="2.4" height="21.23" fill="#22d67f" rx="0.6"/><line x1="77.97" y1="147.82" x2="77.97" y2="178.71" stroke="#22d67f" stroke-width="1.0" opacity="0.95" stroke-linecap="butt"/><rect x="76.77" y="148.79" width="2.4" height="11.58" fill="#22d67f" rx="0.6"/><line x1="82.26" y1="134.31" x2="82.26" y2="155.54" stroke="#22d67f" stroke-width="1.0" opacity="0.95" stroke-linecap="butt"/><rect x="81.06" y="135.28" width="2.4" height="15.44" fill="#22d67f" rx="0.6"/><line x1="86.54" y1="116.94" x2="86.54" y2="150.72" stroke="#22d67f" stroke-width="1.0" opacity="0.95" stroke-linecap="butt"/><rect x="85.34" y="143" width="2.4" height="1.93" fill="#22d67f" rx="0.6"/><line x1="90.82" y1="103.43" x2="90.82" y2="143" stroke="#22d67f" stroke-width="1.0" opacity="0.95" stroke-linecap="butt"/><rect x="89.62" y="119.83" width="2.4" height="18.34" fill="#22d67f" rx="0.6"/><line x1="95.1" y1="64.82" x2="95.1" y2="118.87" stroke="#22d67f" stroke-width="1.0" opacity="0.95" stroke-linecap="butt"/><rect x="93.9" y="78.33" width="2.4" height="39.57" fill="#22d67f" rx="0.6"/><line x1="99.38" y1="60" x2="99.38" y2="88.95" stroke="#ff5c5c" stroke-width="1.0" opacity="0.95" stroke-linecap="butt"/><rect x="98.18" y="70.61" width="2.4" height="7.72" fill="#ff5c5c" rx="0.6"/><line x1="103.66" y1="66.75" x2="103.66" y2="96.67" stroke="#ff5c5c" stroke-width="1.0" opacity="0.95" stroke-linecap="butt"/><rect x="102.47" y="84.12" width="2.4" height="4.83" fill="#ff5c5c" rx="0.6"/><line x1="107.95" y1="69.65" x2="107.95" y2="167.13" stroke="#ff5c5c" stroke-width="1.0" opacity="0.95" stroke-linecap="butt"/><rect x="106.75" y="86.05" width="2.4" height="67.56" fill="#ff5c5c" rx="0.6"/><line x1="112.23" y1="143" x2="112.23" y2="223.1" stroke="#ff5c5c" stroke-width="1.0" opacity="0.95" stroke-linecap="butt"/><rect x="111.03" y="144.93" width="2.4" height="69.49" fill="#ff5c5c" rx="0.6"/><line x1="116.51" y1="183.53" x2="116.51" y2="209.59" stroke="#22d67f" stroke-width="1.0" opacity="0.95" stroke-linecap="butt"/><rect x="115.31" y="183.53" width="2.4" height="23.16" fill="#22d67f" rx="0.6"/><line x1="120.79" y1="162.3" x2="120.79" y2="203.8" stroke="#ff5c5c" stroke-width="1.0" opacity="0.95" stroke-linecap="butt"/><rect x="119.59" y="163.27" width="2.4" height="38.61" fill="#ff5c5c" rx="0.6"/><line x1="125.07" y1="200.91" x2="125.07" y2="234.69" stroke="#ff5c5c" stroke-width="1.0" opacity="0.95" stroke-linecap="butt"/><rect x="123.87" y="201.87" width="2.4" height="27.99" fill="#ff5c5c" rx="0.6"/><line x1="129.36" y1="220.21" x2="129.36" y2="241.44" stroke="#ff5c5c" stroke-width="1.0" opacity="0.95" stroke-linecap="butt"/><rect x="128.16" y="226.97" width="2.4" height="8.69" fill="#ff5c5c" rx="0.6"/><line x1="133.64" y1="199.94" x2="133.64" y2="253.02" stroke="#22d67f" stroke-width="1.0" opacity="0.95" stroke-linecap="butt"/><rect x="132.44" y="218.28" width="2.4" height="14.48" fill="#22d67f" rx="0.6"/><line x1="137.92" y1="208.63" x2="137.92" y2="249.16" stroke="#ff5c5c" stroke-width="1.0" opacity="0.95" stroke-linecap="butt"/><rect x="136.72" y="211.52" width="2.4" height="22.2" fill="#ff5c5c" rx="0.6"/><line x1="142.2" y1="291.63" x2="142.2" y2="331.2" stroke="#22d67f" stroke-width="1.0" opacity="0.95" stroke-linecap="butt"/><rect x="141" y="305.14" width="2.4" height="25.09" fill="#22d67f" rx="0.6"/><line x1="146.48" y1="281.01" x2="146.48" y2="320.58" stroke="#22d67f" stroke-width="1.0" opacity="0.95" stroke-linecap="butt"/><rect x="145.28" y="312.86" width="2.4" height="3.86" fill="#22d67f" rx="0.6"/><line x1="150.77" y1="293.56" x2="150.77" y2="332.17" stroke="#ff5c5c" stroke-width="1.0" opacity="0.95" stroke-linecap="butt"/><rect x="149.57" y="309" width="2.4" height="1.1" fill="#ff5c5c" rx="0.6"/><line x1="155.05" y1="281.01" x2="155.05" y2="325.41" stroke="#ff5c5c" stroke-width="1.0" opacity="0.95" stroke-linecap="butt"/><rect x="153.85" y="288.73" width="2.4" height="34.75" fill="#ff5c5c" rx="0.6"/><line x1="159.33" y1="316.72" x2="159.33" y2="355.33" stroke="#ff5c5c" stroke-width="1.0" opacity="0.95" stroke-linecap="butt"/><rect x="158.13" y="324.44" width="2.4" height="27.99" fill="#ff5c5c" rx="0.6"/><line x1="163.61" y1="332.17" x2="163.61" y2="403.59" stroke="#22d67f" stroke-width="1.0" opacity="0.95" stroke-linecap="butt"/><rect x="162.41" y="332.17" width="2.4" height="57.91" fill="#22d67f" rx="0.6"/><line x1="167.89" y1="274.26" x2="167.89" y2="306.11" stroke="#22d67f" stroke-width="1.0" opacity="0.95" stroke-linecap="butt"/><rect x="166.69" y="274.26" width="2.4" height="11.58" fill="#22d67f" rx="0.6"/><line x1="172.17" y1="277.15" x2="172.17" y2="303.21" stroke="#ff5c5c" stroke-width="1.0" opacity="0.95" stroke-linecap="butt"/><rect x="170.98" y="278.12" width="2.4" height="4.83" fill="#ff5c5c" rx="0.6"/><line x1="176.46" y1="271.36" x2="176.46" y2="304.18" stroke="#22d67f" stroke-width="1.0" opacity="0.95" stroke-linecap="butt"/><rect x="175.26" y="290.66" width="2.4" height="10.62" fill="#22d67f" rx="0.6"/><line x1="180.74" y1="287.77" x2="180.74" y2="313.83" stroke="#22d67f" stroke-width="1.0" opacity="0.95" stroke-linecap="butt"/><rect x="179.54" y="292.59" width="2.4" height="3.86" fill="#22d67f" rx="0.6"/><line x1="185.02" y1="287.77" x2="185.02" y2="308.04" stroke="#ff5c5c" stroke-width="1.0" opacity="0.95" stroke-linecap="butt"/><rect x="183.82" y="291.63" width="2.4" height="9.65" fill="#ff5c5c" rx="0.6"/><line x1="189.3" y1="278.12" x2="189.3" y2="297.42" stroke="#22d67f" stroke-width="1.0" opacity="0.95" stroke-linecap="butt"/><rect x="188.1" y="282.94" width="2.4" height="14.48" fill="#22d67f" rx="0.6"/><line x1="193.58" y1="270.4" x2="193.58" y2="304.18" stroke="#ff5c5c" stroke-width="1.0" opacity="0.95" stroke-linecap="butt"/><rect x="192.38" y="273.29" width="2.4" height="25.09" fill="#ff5c5c" rx="0.6"/><line x1="197.87" y1="295.49" x2="197.87" y2="309.97" stroke="#22d67f" stroke-width="1.0" opacity="0.95" stroke-linecap="butt"/><rect x="196.67" y="303.21" width="2.4" height="1.93" fill="#22d67f" rx="0.6"/><line x1="202.15" y1="277.15" x2="202.15" y2="341.82" stroke="#22d67f" stroke-width="1.0" opacity="0.95" stroke-linecap="butt"/><rect x="200.95" y="280.05" width="2.4" height="55.01" fill="#22d67f" rx="0.6"/><line x1="206.43" y1="276.19" x2="206.43" y2="298.39" stroke="#ff5c5c" stroke-width="1.0" opacity="0.95" stroke-linecap="butt"/><rect x="205.23" y="292.59" width="2.4" height="4.83" fill="#ff5c5c" rx="0.6"/><line x1="210.71" y1="264.61" x2="210.71" y2="290.66" stroke="#ff5c5c" stroke-width="1.0" opacity="0.95" stroke-linecap="butt"/><rect x="209.51" y="279.08" width="2.4" height="4.83" fill="#ff5c5c" rx="0.6"/><line x1="214.99" y1="276.19" x2="214.99" y2="294.53" stroke="#22d67f" stroke-width="1.0" opacity="0.95" stroke-linecap="butt"/><rect x="213.79" y="287.77" width="2.4" height="3.86" fill="#22d67f" rx="0.6"/><line x1="219.28" y1="280.05" x2="219.28" y2="299.35" stroke="#ff5c5c" stroke-width="1.0" opacity="0.95" stroke-linecap="butt"/><rect x="218.08" y="281.98" width="2.4" height="3.86" fill="#ff5c5c" rx="0.6"/><line x1="223.56" y1="287.77" x2="223.56" y2="306.11" stroke="#ff5c5c" stroke-width="1.0" opacity="0.95" stroke-linecap="butt"/><rect x="222.36" y="291.63" width="2.4" height="14.48" fill="#ff5c5c" rx="0.6"/><line x1="227.84" y1="282.94" x2="227.84" y2="304.18" stroke="#22d67f" stroke-width="1.0" opacity="0.95" stroke-linecap="butt"/><rect x="226.64" y="284.87" width="2.4" height="16.41" fill="#22d67f" rx="0.6"/><line x1="232.12" y1="232.76" x2="232.12" y2="272.33" stroke="#ff5c5c" stroke-width="1.0" opacity="0.95" stroke-linecap="butt"/><rect x="230.92" y="238.55" width="2.4" height="31.85" fill="#ff5c5c" rx="0.6"/><line x1="236.4" y1="260.75" x2="236.4" y2="296.46" stroke="#22d67f" stroke-width="1.0" opacity="0.95" stroke-linecap="butt"/><rect x="235.2" y="263.64" width="2.4" height="27.99" fill="#22d67f" rx="0.6"/><line x1="240.68" y1="263.64" x2="240.68" y2="281.98" stroke="#ff5c5c" stroke-width="1.0" opacity="0.95" stroke-linecap="butt"/><rect x="239.49" y="265.57" width="2.4" height="12.55" fill="#ff5c5c" rx="0.6"/><line x1="244.97" y1="257.85" x2="244.97" y2="276.19" stroke="#22d67f" stroke-width="1.0" opacity="0.95" stroke-linecap="butt"/><rect x="243.77" y="273.29" width="2.4" height="1.93" fill="#22d67f" rx="0.6"/><line x1="249.25" y1="265.57" x2="249.25" y2="294.53" stroke="#ff5c5c" stroke-width="1.0" opacity="0.95" stroke-linecap="butt"/><rect x="248.05" y="278.12" width="2.4" height="15.44" fill="#ff5c5c" rx="0.6"/><line x1="253.53" y1="181.6" x2="253.53" y2="233.72" stroke="#22d67f" stroke-width="1.0" opacity="0.95" stroke-linecap="butt"/><rect x="252.33" y="197.05" width="2.4" height="31.85" fill="#22d67f" rx="0.6"/><line x1="257.81" y1="176.78" x2="257.81" y2="211.52" stroke="#22d67f" stroke-width="1.0" opacity="0.95" stroke-linecap="butt"/><rect x="256.61" y="187.39" width="2.4" height="13.51" fill="#22d67f" rx="0.6"/><line x1="262.09" y1="165.2" x2="262.09" y2="181.6" stroke="#22d67f" stroke-width="1.0" opacity="0.95" stroke-linecap="butt"/><rect x="260.9" y="172.92" width="2.4" height="2.9" fill="#22d67f" rx="0.6"/><line x1="266.38" y1="190.29" x2="266.38" y2="207.66" stroke="#22d67f" stroke-width="1.0" opacity="0.95" stroke-linecap="butt"/><rect x="265.18" y="198.01" width="2.4" height="2.9" fill="#22d67f" rx="0.6"/><line x1="270.66" y1="160.37" x2="270.66" y2="187.39" stroke="#22d67f" stroke-width="1.0" opacity="0.95" stroke-linecap="butt"/><rect x="269.46" y="170.02" width="2.4" height="16.41" fill="#22d67f" rx="0.6"/><line x1="274.94" y1="159.41" x2="274.94" y2="191.25" stroke="#ff5c5c" stroke-width="1.0" opacity="0.95" stroke-linecap="butt"/><rect x="273.74" y="160.37" width="2.4" height="27.99" fill="#ff5c5c" rx="0.6"/><line x1="279.22" y1="168.09" x2="279.22" y2="202.84" stroke="#ff5c5c" stroke-width="1.0" opacity="0.95" stroke-linecap="butt"/><rect x="278.02" y="173.88" width="2.4" height="22.2" fill="#ff5c5c" rx="0.6"/><line x1="283.5" y1="127.56" x2="283.5" y2="194.15" stroke="#22d67f" stroke-width="1.0" opacity="0.95" stroke-linecap="butt"/><rect x="282.3" y="150.72" width="2.4" height="42.47" fill="#22d67f" rx="0.6"/><line x1="287.79" y1="149.75" x2="287.79" y2="180.64" stroke="#22d67f" stroke-width="1.0" opacity="0.95" stroke-linecap="butt"/><rect x="286.59" y="153.61" width="2.4" height="26.06" fill="#22d67f" rx="0.6"/><line x1="292.07" y1="129.49" x2="292.07" y2="158.44" stroke="#ff5c5c" stroke-width="1.0" opacity="0.95" stroke-linecap="butt"/><rect x="290.87" y="150.72" width="2.4" height="7.72" fill="#ff5c5c" rx="0.6"/><line x1="296.35" y1="142.03" x2="296.35" y2="187.39" stroke="#ff5c5c" stroke-width="1.0" opacity="0.95" stroke-linecap="butt"/><rect x="295.15" y="148.79" width="2.4" height="23.16" fill="#ff5c5c" rx="0.6"/><line x1="300.63" y1="161.34" x2="300.63" y2="189.32" stroke="#22d67f" stroke-width="1.0" opacity="0.95" stroke-linecap="butt"/><rect x="299.43" y="166.16" width="2.4" height="7.72" fill="#22d67f" rx="0.6"/><line x1="304.91" y1="159.41" x2="304.91" y2="184.5" stroke="#ff5c5c" stroke-width="1.0" opacity="0.95" stroke-linecap="butt"/><rect x="303.71" y="168.09" width="2.4" height="15.44" fill="#ff5c5c" rx="0.6"/><line x1="309.19" y1="184.5" x2="309.19" y2="203.8" stroke="#ff5c5c" stroke-width="1.0" opacity="0.95" stroke-linecap="butt"/><rect x="308" y="187.39" width="2.4" height="14.48" fill="#ff5c5c" rx="0.6"/><line x1="313.48" y1="194.15" x2="313.48" y2="212.49" stroke="#ff5c5c" stroke-width="1.0" opacity="0.95" stroke-linecap="butt"/><rect x="312.28" y="198.01" width="2.4" height="8.69" fill="#ff5c5c" rx="0.6"/><line x1="317.76" y1="218.28" x2="317.76" y2="242.41" stroke="#ff5c5c" stroke-width="1.0" opacity="0.95" stroke-linecap="butt"/><rect x="316.56" y="224.07" width="2.4" height="6.76" fill="#ff5c5c" rx="0.6"/><line x1="322.04" y1="221.17" x2="322.04" y2="260.75" stroke="#ff5c5c" stroke-width="1.0" opacity="0.95" stroke-linecap="butt"/><rect x="320.84" y="229.86" width="2.4" height="29.92" fill="#ff5c5c" rx="0.6"/><line x1="326.32" y1="246.27" x2="326.32" y2="269.43" stroke="#22d67f" stroke-width="1.0" opacity="0.95" stroke-linecap="butt"/><rect x="325.12" y="258.81" width="2.4" height="1.1" fill="#22d67f" rx="0.6"/><line x1="330.6" y1="199.94" x2="330.6" y2="244.34" stroke="#22d67f" stroke-width="1.0" opacity="0.95" stroke-linecap="butt"/><rect x="329.41" y="225.03" width="2.4" height="10.62" fill="#22d67f" rx="0.6"/><line x1="334.89" y1="203.8" x2="334.89" y2="219.24" stroke="#22d67f" stroke-width="1.0" opacity="0.95" stroke-linecap="butt"/><rect x="333.69" y="214.42" width="2.4" height="2.9" fill="#22d67f" rx="0.6"/><line x1="339.17" y1="205.73" x2="339.17" y2="236.62" stroke="#22d67f" stroke-width="1.0" opacity="0.95" stroke-linecap="butt"/><rect x="337.97" y="220.21" width="2.4" height="3.86" fill="#22d67f" rx="0.6"/><line x1="343.45" y1="226" x2="343.45" y2="238.55" stroke="#22d67f" stroke-width="1.0" opacity="0.95" stroke-linecap="butt"/><rect x="342.25" y="229.86" width="2.4" height="1.1" fill="#22d67f" rx="0.6"/><line x1="347.73" y1="224.07" x2="347.73" y2="242.41" stroke="#ff5c5c" stroke-width="1.0" opacity="0.95" stroke-linecap="butt"/><rect x="346.53" y="231.79" width="2.4" height="8.69" fill="#ff5c5c" rx="0.6"/><line x1="352.01" y1="224.07" x2="352.01" y2="247.23" stroke="#ff5c5c" stroke-width="1.0" opacity="0.95" stroke-linecap="butt"/><rect x="350.81" y="232.76" width="2.4" height="14.48" fill="#ff5c5c" rx="0.6"/><line x1="356.3" y1="229.86" x2="356.3" y2="242.41" stroke="#22d67f" stroke-width="1.0" opacity="0.95" stroke-linecap="butt"/><rect x="355.1" y="240.48" width="2.4" height="1.93" fill="#22d67f" rx="0.6"/><line x1="360.58" y1="246.27" x2="360.58" y2="268.47" stroke="#ff5c5c" stroke-width="1.0" opacity="0.95" stroke-linecap="butt"/><rect x="359.38" y="249.16" width="2.4" height="13.51" fill="#ff5c5c" rx="0.6"/><line x1="364.86" y1="258.81" x2="364.86" y2="283.91" stroke="#ff5c5c" stroke-width="1.0" opacity="0.95" stroke-linecap="butt"/><rect x="363.66" y="264.61" width="2.4" height="19.3" fill="#ff5c5c" rx="0.6"/><line x1="369.14" y1="261.71" x2="369.14" y2="302.25" stroke="#22d67f" stroke-width="1.0" opacity="0.95" stroke-linecap="butt"/><rect x="367.94" y="281.98" width="2.4" height="11.58" fill="#22d67f" rx="0.6"/><line x1="373.42" y1="279.08" x2="373.42" y2="365.95" stroke="#ff5c5c" stroke-width="1.0" opacity="0.95" stroke-linecap="butt"/><rect x="372.22" y="281.98" width="2.4" height="81.07" fill="#ff5c5c" rx="0.6"/><line x1="377.7" y1="300.32" x2="377.7" y2="372.7" stroke="#22d67f" stroke-width="1.0" opacity="0.95" stroke-linecap="butt"/><rect x="376.51" y="309" width="2.4" height="54.05" fill="#22d67f" rx="0.6"/><line x1="381.99" y1="260.75" x2="381.99" y2="278.12" stroke="#ff5c5c" stroke-width="1.0" opacity="0.95" stroke-linecap="butt"/><rect x="380.79" y="266.54" width="2.4" height="5.79" fill="#ff5c5c" rx="0.6"/><line x1="386.27" y1="270.4" x2="386.27" y2="281.01" stroke="#ff5c5c" stroke-width="1.0" opacity="0.95" stroke-linecap="butt"/><rect x="385.07" y="272.33" width="2.4" height="2.9" fill="#ff5c5c" rx="0.6"/><line x1="390.55" y1="275.22" x2="390.55" y2="275.22" stroke="#22d67f" stroke-width="1.0" opacity="0.95" stroke-linecap="butt"/><rect x="389.35" y="275.22" width="2.4" height="1.1" fill="#22d67f" rx="0.6"/><line x1="394.83" y1="275.22" x2="394.83" y2="275.22" stroke="#22d67f" stroke-width="1.0" opacity="0.95" stroke-linecap="butt"/><rect x="393.63" y="275.22" width="2.4" height="1.1" fill="#22d67f" rx="0.6"/><line x1="399.11" y1="275.22" x2="399.11" y2="275.22" stroke="#22d67f" stroke-width="1.0" opacity="0.95" stroke-linecap="butt"/><rect x="397.92" y="275.22" width="2.4" height="1.1" fill="#22d67f" rx="0.6"/><line x1="403.4" y1="260.75" x2="403.4" y2="297.42" stroke="#ff5c5c" stroke-width="1.0" opacity="0.95" stroke-linecap="butt"/><rect x="402.2" y="268.47" width="2.4" height="27.02" fill="#ff5c5c" rx="0.6"/><line x1="407.68" y1="261.71" x2="407.68" y2="284.87" stroke="#22d67f" stroke-width="1.0" opacity="0.95" stroke-linecap="butt"/><rect x="406.48" y="262.68" width="2.4" height="21.23" fill="#22d67f" rx="0.6"/><line x1="411.96" y1="255.92" x2="411.96" y2="276.19" stroke="#ff5c5c" stroke-width="1.0" opacity="0.95" stroke-linecap="butt"/><rect x="410.76" y="273.29" width="2.4" height="1.1" fill="#ff5c5c" rx="0.6"/><line x1="416.24" y1="256.88" x2="416.24" y2="276.19" stroke="#22d67f" stroke-width="1.0" opacity="0.95" stroke-linecap="butt"/><rect x="415.04" y="263.64" width="2.4" height="2.9" fill="#22d67f" rx="0.6"/><line x1="420.52" y1="261.71" x2="420.52" y2="281.01" stroke="#ff5c5c" stroke-width="1.0" opacity="0.95" stroke-linecap="butt"/><rect x="419.32" y="263.64" width="2.4" height="10.62" fill="#ff5c5c" rx="0.6"/><line x1="424.81" y1="264.61" x2="424.81" y2="291.63" stroke="#22d67f" stroke-width="1.0" opacity="0.95" stroke-linecap="butt"/><rect x="423.61" y="273.29" width="2.4" height="14.48" fill="#22d67f" rx="0.6"/><line x1="429.09" y1="262.68" x2="429.09" y2="280.05" stroke="#ff5c5c" stroke-width="1.0" opacity="0.95" stroke-linecap="butt"/><rect x="427.89" y="268.47" width="2.4" height="6.76" fill="#ff5c5c" rx="0.6"/><line x1="433.37" y1="269.43" x2="433.37" y2="288.73" stroke="#ff5c5c" stroke-width="1.0" opacity="0.95" stroke-linecap="butt"/><rect x="432.17" y="278.12" width="2.4" height="1.93" fill="#ff5c5c" rx="0.6"/><line x1="437.65" y1="272.33" x2="437.65" y2="295.49" stroke="#ff5c5c" stroke-width="1.0" opacity="0.95" stroke-linecap="butt"/><rect x="436.45" y="278.12" width="2.4" height="10.62" fill="#ff5c5c" rx="0.6"/><line x1="441.93" y1="220.21" x2="441.93" y2="258.81" stroke="#22d67f" stroke-width="1.0" opacity="0.95" stroke-linecap="butt"/><rect x="440.73" y="232.76" width="2.4" height="26.06" fill="#22d67f" rx="0.6"/><line x1="446.21" y1="148.79" x2="446.21" y2="172.92" stroke="#ff5c5c" stroke-width="1.0" opacity="0.95" stroke-linecap="butt"/><rect x="445.02" y="150.72" width="2.4" height="12.55" fill="#ff5c5c" rx="0.6"/><line x1="450.5" y1="150.72" x2="450.5" y2="174.85" stroke="#22d67f" stroke-width="1.0" opacity="0.95" stroke-linecap="butt"/><rect x="449.3" y="160.37" width="2.4" height="5.79" fill="#22d67f" rx="0.6"/><line x1="454.78" y1="153.61" x2="454.78" y2="181.6" stroke="#ff5c5c" stroke-width="1.0" opacity="0.95" stroke-linecap="butt"/><rect x="453.58" y="156.51" width="2.4" height="22.2" fill="#ff5c5c" rx="0.6"/><line x1="459.06" y1="146.86" x2="459.06" y2="170.99" stroke="#22d67f" stroke-width="1.0" opacity="0.95" stroke-linecap="butt"/><rect x="457.86" y="152.65" width="2.4" height="17.37" fill="#22d67f" rx="0.6"/><line x1="463.34" y1="134.31" x2="463.34" y2="170.99" stroke="#22d67f" stroke-width="1.0" opacity="0.95" stroke-linecap="butt"/><rect x="462.14" y="159.41" width="2.4" height="10.62" fill="#22d67f" rx="0.6"/><line x1="467.62" y1="150.72" x2="467.62" y2="169.06" stroke="#ff5c5c" stroke-width="1.0" opacity="0.95" stroke-linecap="butt"/><rect x="466.43" y="152.65" width="2.4" height="14.48" fill="#ff5c5c" rx="0.6"/><line x1="471.91" y1="157.47" x2="471.91" y2="179.67" stroke="#22d67f" stroke-width="1.0" opacity="0.95" stroke-linecap="butt"/><rect x="470.71" y="166.16" width="2.4" height="5.79" fill="#22d67f" rx="0.6"/><line x1="476.19" y1="153.61" x2="476.19" y2="172.92" stroke="#ff5c5c" stroke-width="1.0" opacity="0.95" stroke-linecap="butt"/><rect x="474.99" y="165.2" width="2.4" height="1.93" fill="#ff5c5c" rx="0.6"/><line x1="480.47" y1="134.31" x2="480.47" y2="156.51" stroke="#22d67f" stroke-width="1.0" opacity="0.95" stroke-linecap="butt"/><rect x="479.27" y="152.65" width="2.4" height="3.86" fill="#22d67f" rx="0.6"/><line x1="484.75" y1="138.17" x2="484.75" y2="156.51" stroke="#22d67f" stroke-width="1.0" opacity="0.95" stroke-linecap="butt"/><rect x="483.55" y="143.96" width="2.4" height="8.69" fill="#22d67f" rx="0.6"/><line x1="489.03" y1="143" x2="489.03" y2="165.2" stroke="#ff5c5c" stroke-width="1.0" opacity="0.95" stroke-linecap="butt"/><rect x="487.83" y="143.96" width="2.4" height="6.76" fill="#ff5c5c" rx="0.6"/><line x1="493.32" y1="146.86" x2="493.32" y2="170.02" stroke="#ff5c5c" stroke-width="1.0" opacity="0.95" stroke-linecap="butt"/><rect x="492.12" y="148.79" width="2.4" height="13.51" fill="#ff5c5c" rx="0.6"/><line x1="497.6" y1="141.07" x2="497.6" y2="173.88" stroke="#22d67f" stroke-width="1.0" opacity="0.95" stroke-linecap="butt"/><rect x="496.4" y="152.65" width="2.4" height="10.62" fill="#22d67f" rx="0.6"/><line x1="501.88" y1="120.8" x2="501.88" y2="144.93" stroke="#22d67f" stroke-width="1.0" opacity="0.95" stroke-linecap="butt"/><rect x="500.68" y="134.31" width="2.4" height="10.62" fill="#22d67f" rx="0.6"/><line x1="506.16" y1="124.66" x2="506.16" y2="143.96" stroke="#ff5c5c" stroke-width="1.0" opacity="0.95" stroke-linecap="butt"/><rect x="504.96" y="126.59" width="2.4" height="4.83" fill="#ff5c5c" rx="0.6"/><line x1="510.44" y1="63.86" x2="510.44" y2="126.59" stroke="#22d67f" stroke-width="1.0" opacity="0.95" stroke-linecap="butt"/><rect x="509.24" y="81.23" width="2.4" height="39.57" fill="#22d67f" rx="0.6"/><line x1="514.72" y1="48.41" x2="514.72" y2="87.98" stroke="#22d67f" stroke-width="1.0" opacity="0.95" stroke-linecap="butt"/><rect x="513.53" y="76.4" width="2.4" height="8.69" fill="#22d67f" rx="0.6"/><line x1="519.01" y1="78.33" x2="519.01" y2="145.89" stroke="#ff5c5c" stroke-width="1.0" opacity="0.95" stroke-linecap="butt"/><rect x="517.81" y="93.78" width="2.4" height="45.36" fill="#ff5c5c" rx="0.6"/><line x1="523.29" y1="108.25" x2="523.29" y2="143" stroke="#22d67f" stroke-width="1.0" opacity="0.95" stroke-linecap="butt"/><rect x="522.09" y="115.01" width="2.4" height="17.37" fill="#22d67f" rx="0.6"/><line x1="527.57" y1="87.02" x2="527.57" y2="119.83" stroke="#22d67f" stroke-width="1.0" opacity="0.95" stroke-linecap="butt"/><rect x="526.37" y="90.88" width="2.4" height="25.09" fill="#22d67f" rx="0.6"/><line x1="531.85" y1="108.25" x2="531.85" y2="143" stroke="#ff5c5c" stroke-width="1.0" opacity="0.95" stroke-linecap="butt"/><rect x="530.65" y="115.97" width="2.4" height="17.37" fill="#ff5c5c" rx="0.6"/><line x1="536.13" y1="144.93" x2="536.13" y2="179.67" stroke="#ff5c5c" stroke-width="1.0" opacity="0.95" stroke-linecap="butt"/><rect x="534.94" y="145.89" width="2.4" height="16.41" fill="#ff5c5c" rx="0.6"/><line x1="540.42" y1="135.28" x2="540.42" y2="169.06" stroke="#22d67f" stroke-width="1.0" opacity="0.95" stroke-linecap="butt"/><rect x="539.22" y="146.86" width="2.4" height="15.44" fill="#22d67f" rx="0.6"/><line x1="544.7" y1="138.17" x2="544.7" y2="158.44" stroke="#22d67f" stroke-width="1.0" opacity="0.95" stroke-linecap="butt"/><rect x="543.5" y="148.79" width="2.4" height="1.1" fill="#22d67f" rx="0.6"/><line x1="548.98" y1="146.86" x2="548.98" y2="170.99" stroke="#ff5c5c" stroke-width="1.0" opacity="0.95" stroke-linecap="butt"/><rect x="547.78" y="151.68" width="2.4" height="2.9" fill="#ff5c5c" rx="0.6"/><line x1="553.26" y1="145.89" x2="553.26" y2="195.12" stroke="#ff5c5c" stroke-width="1.0" opacity="0.95" stroke-linecap="butt"/><rect x="552.06" y="146.86" width="2.4" height="48.26" fill="#ff5c5c" rx="0.6"/><line x1="557.54" y1="181.6" x2="557.54" y2="206.7" stroke="#22d67f" stroke-width="1.0" opacity="0.95" stroke-linecap="butt"/><rect x="556.34" y="181.6" width="2.4" height="14.48" fill="#22d67f" rx="0.6"/><line x1="561.83" y1="187.39" x2="561.83" y2="223.1" stroke="#ff5c5c" stroke-width="1.0" opacity="0.95" stroke-linecap="butt"/><rect x="560.63" y="192.22" width="2.4" height="21.23" fill="#ff5c5c" rx="0.6"/><line x1="566.11" y1="202.84" x2="566.11" y2="219.24" stroke="#ff5c5c" stroke-width="1.0" opacity="0.95" stroke-linecap="butt"/><rect x="564.91" y="215.38" width="2.4" height="1.1" fill="#ff5c5c" rx="0.6"/><line x1="570.39" y1="151.68" x2="570.39" y2="194.15" stroke="#ff5c5c" stroke-width="1.0" opacity="0.95" stroke-linecap="butt"/><rect x="569.19" y="185.46" width="2.4" height="7.72" fill="#ff5c5c" rx="0.6"/><line x1="574.67" y1="165.2" x2="574.67" y2="199.94" stroke="#ff5c5c" stroke-width="1.0" opacity="0.95" stroke-linecap="butt"/><rect x="573.47" y="187.39" width="2.4" height="1.93" fill="#ff5c5c" rx="0.6"/><line x1="578.95" y1="192.22" x2="578.95" y2="222.14" stroke="#ff5c5c" stroke-width="1.0" opacity="0.95" stroke-linecap="butt"/><rect x="577.75" y="195.12" width="2.4" height="16.41" fill="#ff5c5c" rx="0.6"/><line x1="583.23" y1="202.84" x2="583.23" y2="242.41" stroke="#ff5c5c" stroke-width="1.0" opacity="0.95" stroke-linecap="butt"/><rect x="582.04" y="220.21" width="2.4" height="10.62" fill="#ff5c5c" rx="0.6"/><line x1="587.52" y1="203.8" x2="587.52" y2="228.9" stroke="#22d67f" stroke-width="1.0" opacity="0.95" stroke-linecap="butt"/><rect x="586.32" y="208.63" width="2.4" height="7.72" fill="#22d67f" rx="0.6"/><line x1="591.8" y1="176.78" x2="591.8" y2="198.98" stroke="#ff5c5c" stroke-width="1.0" opacity="0.95" stroke-linecap="butt"/><rect x="590.6" y="183.53" width="2.4" height="13.51" fill="#ff5c5c" rx="0.6"/><line x1="596.08" y1="164.23" x2="596.08" y2="206.7" stroke="#22d67f" stroke-width="1.0" opacity="0.95" stroke-linecap="butt"/><rect x="594.88" y="170.99" width="2.4" height="26.06" fill="#22d67f" rx="0.6"/><line x1="600.36" y1="191.25" x2="600.36" y2="218.28" stroke="#ff5c5c" stroke-width="1.0" opacity="0.95" stroke-linecap="butt"/><rect x="599.16" y="191.25" width="2.4" height="17.37" fill="#ff5c5c" rx="0.6"/><line x1="604.64" y1="192.22" x2="604.64" y2="219.24" stroke="#ff5c5c" stroke-width="1.0" opacity="0.95" stroke-linecap="butt"/><rect x="603.45" y="205.73" width="2.4" height="13.51" fill="#ff5c5c" rx="0.6"/><line x1="608.93" y1="215.38" x2="608.93" y2="250.13" stroke="#ff5c5c" stroke-width="1.0" opacity="0.95" stroke-linecap="butt"/><rect x="607.73" y="216.35" width="2.4" height="22.2" fill="#ff5c5c" rx="0.6"/><line x1="613.21" y1="232.76" x2="613.21" y2="253.99" stroke="#ff5c5c" stroke-width="1.0" opacity="0.95" stroke-linecap="butt"/><rect x="612.01" y="235.65" width="2.4" height="15.44" fill="#ff5c5c" rx="0.6"/><line x1="617.49" y1="249.16" x2="617.49" y2="281.01" stroke="#ff5c5c" stroke-width="1.0" opacity="0.95" stroke-linecap="butt"/><rect x="616.29" y="253.02" width="2.4" height="5.79" fill="#ff5c5c" rx="0.6"/><line x1="621.77" y1="222.14" x2="621.77" y2="260.75" stroke="#22d67f" stroke-width="1.0" opacity="0.95" stroke-linecap="butt"/><rect x="620.57" y="228.9" width="2.4" height="29.92" fill="#22d67f" rx="0.6"/><line x1="626.05" y1="222.14" x2="626.05" y2="236.62" stroke="#ff5c5c" stroke-width="1.0" opacity="0.95" stroke-linecap="butt"/><rect x="624.85" y="228.9" width="2.4" height="2.9" fill="#ff5c5c" rx="0.6"/><line x1="630.34" y1="226" x2="630.34" y2="242.41" stroke="#ff5c5c" stroke-width="1.0" opacity="0.95" stroke-linecap="butt"/><rect x="629.14" y="229.86" width="2.4" height="12.55" fill="#ff5c5c" rx="0.6"/><line x1="634.62" y1="234.69" x2="634.62" y2="259.78" stroke="#ff5c5c" stroke-width="1.0" opacity="0.95" stroke-linecap="butt"/><rect x="633.42" y="239.51" width="2.4" height="19.3" fill="#ff5c5c" rx="0.6"/><line x1="638.9" y1="253.02" x2="638.9" y2="271.36" stroke="#22d67f" stroke-width="1.0" opacity="0.95" stroke-linecap="butt"/><rect x="637.7" y="260.75" width="2.4" height="7.72" fill="#22d67f" rx="0.6"/><line x1="643.18" y1="251.09" x2="643.18" y2="268.47" stroke="#22d67f" stroke-width="1.0" opacity="0.95" stroke-linecap="butt"/><rect x="641.98" y="257.85" width="2.4" height="6.76" fill="#22d67f" rx="0.6"/><line x1="647.46" y1="243.37" x2="647.46" y2="261.71" stroke="#ff5c5c" stroke-width="1.0" opacity="0.95" stroke-linecap="butt"/><rect x="646.26" y="254.95" width="2.4" height="2.9" fill="#ff5c5c" rx="0.6"/><line x1="651.74" y1="244.34" x2="651.74" y2="261.71" stroke="#ff5c5c" stroke-width="1.0" opacity="0.95" stroke-linecap="butt"/><rect x="650.55" y="254.95" width="2.4" height="3.86" fill="#ff5c5c" rx="0.6"/><line x1="656.03" y1="233.72" x2="656.03" y2="262.68" stroke="#ff5c5c" stroke-width="1.0" opacity="0.95" stroke-linecap="butt"/><rect x="654.83" y="246.27" width="2.4" height="14.48" fill="#ff5c5c" rx="0.6"/><line x1="660.31" y1="246.27" x2="660.31" y2="264.61" stroke="#22d67f" stroke-width="1.0" opacity="0.95" stroke-linecap="butt"/><rect x="659.11" y="253.02" width="2.4" height="4.83" fill="#22d67f" rx="0.6"/><line x1="664.59" y1="214.42" x2="664.59" y2="244.34" stroke="#22d67f" stroke-width="1.0" opacity="0.95" stroke-linecap="butt"/><rect x="663.39" y="229.86" width="2.4" height="9.65" fill="#22d67f" rx="0.6"/><line x1="668.87" y1="220.21" x2="668.87" y2="250.13" stroke="#ff5c5c" stroke-width="1.0" opacity="0.95" stroke-linecap="butt"/><rect x="667.67" y="226" width="2.4" height="8.69" fill="#ff5c5c" rx="0.6"/><line x1="673.15" y1="230.83" x2="673.15" y2="244.34" stroke="#22d67f" stroke-width="1.0" opacity="0.95" stroke-linecap="butt"/><rect x="671.96" y="233.72" width="2.4" height="1.93" fill="#22d67f" rx="0.6"/><line x1="677.44" y1="237.58" x2="677.44" y2="254.95" stroke="#ff5c5c" stroke-width="1.0" opacity="0.95" stroke-linecap="butt"/><rect x="676.24" y="241.44" width="2.4" height="12.55" fill="#ff5c5c" rx="0.6"/><line x1="681.72" y1="241.44" x2="681.72" y2="262.68" stroke="#ff5c5c" stroke-width="1.0" opacity="0.95" stroke-linecap="butt"/><rect x="680.52" y="253.99" width="2.4" height="2.9" fill="#ff5c5c" rx="0.6"/><line x1="686" y1="258.81" x2="686" y2="296.46" stroke="#ff5c5c" stroke-width="1.0" opacity="0.95" stroke-linecap="butt"/><rect x="684.8" y="264.61" width="2.4" height="30.88" fill="#ff5c5c" rx="0.6"/><line x1="-1476.35" y1="252.68" x2="-1343.61" y2="449.73" stroke="#35b8ff" stroke-width="1.4" opacity="0.85" stroke-linecap="butt"/><line x1="-1343.61" y1="449.73" x2="-1300.79" y2="364.87" stroke="#35b8ff" stroke-width="1.4" opacity="0.85" stroke-linecap="butt"/><line x1="-1300.79" y1="364.87" x2="-1287.95" y2="413.9" stroke="#35b8ff" stroke-width="1.4" opacity="0.85" stroke-linecap="butt"/><line x1="-1287.95" y1="413.9" x2="-1249.41" y2="313.02" stroke="#35b8ff" stroke-width="1.4" opacity="0.85" stroke-linecap="butt"/><line x1="-1249.41" y1="313.02" x2="-1236.56" y2="404.47" stroke="#35b8ff" stroke-width="1.4" opacity="0.85" stroke-linecap="butt"/><line x1="-1236.56" y1="404.47" x2="-1223.72" y2="288.5" stroke="#35b8ff" stroke-width="1.4" opacity="0.85" stroke-linecap="butt"/><line x1="-1223.72" y1="288.5" x2="-1202.31" y2="355.45" stroke="#35b8ff" stroke-width="1.4" opacity="0.85" stroke-linecap="butt"/><line x1="-1202.31" y1="355.45" x2="-1176.62" y2="270.59" stroke="#35b8ff" stroke-width="1.4" opacity="0.85" stroke-linecap="butt"/><line x1="-1176.62" y1="270.59" x2="-1112.39" y2="369.59" stroke="#35b8ff" stroke-width="1.4" opacity="0.85" stroke-linecap="butt"/><line x1="-1112.39" y1="369.59" x2="-1099.54" y2="289.45" stroke="#35b8ff" stroke-width="1.4" opacity="0.85" stroke-linecap="butt"/><line x1="-1099.54" y1="289.45" x2="-1078.13" y2="337.53" stroke="#35b8ff" stroke-width="1.4" opacity="0.85" stroke-linecap="butt"/><line x1="-1078.13" y1="337.53" x2="-1013.91" y2="221.56" stroke="#35b8ff" stroke-width="1.4" opacity="0.85" stroke-linecap="butt"/><line x1="-1013.91" y1="221.56" x2="-1005.34" y2="298.88" stroke="#35b8ff" stroke-width="1.4" opacity="0.85" stroke-linecap="butt"/><line x1="-1005.34" y1="298.88" x2="-966.81" y2="187.62" stroke="#35b8ff" stroke-width="1.4" opacity="0.85" stroke-linecap="butt"/><line x1="-966.81" y1="187.62" x2="-945.4" y2="273.42" stroke="#35b8ff" stroke-width="1.4" opacity="0.85" stroke-linecap="butt"/><line x1="-945.4" y1="273.42" x2="-889.73" y2="140.48" stroke="#35b8ff" stroke-width="1.4" opacity="0.85" stroke-linecap="butt"/><line x1="-889.73" y1="140.48" x2="-876.89" y2="308.3" stroke="#35b8ff" stroke-width="1.4" opacity="0.85" stroke-linecap="butt"/><line x1="-876.89" y1="308.3" x2="-872.6" y2="228.16" stroke="#35b8ff" stroke-width="1.4" opacity="0.85" stroke-linecap="butt"/><line x1="-872.6" y1="228.16" x2="-868.32" y2="356.39" stroke="#35b8ff" stroke-width="1.4" opacity="0.85" stroke-linecap="butt"/><line x1="-868.32" y1="356.39" x2="-851.19" y2="229.11" stroke="#35b8ff" stroke-width="1.4" opacity="0.85" stroke-linecap="butt"/><line x1="-851.19" y1="229.11" x2="-829.79" y2="309.25" stroke="#35b8ff" stroke-width="1.4" opacity="0.85" stroke-linecap="butt"/><line x1="-829.79" y1="309.25" x2="-795.53" y2="194.22" stroke="#35b8ff" stroke-width="1.4" opacity="0.85" stroke-linecap="butt"/><line x1="-795.53" y1="194.22" x2="-744.15" y2="379.02" stroke="#35b8ff" stroke-width="1.4" opacity="0.85" stroke-linecap="butt"/><line x1="-744.15" y1="379.02" x2="-731.3" y2="252.68" stroke="#35b8ff" stroke-width="1.4" opacity="0.85" stroke-linecap="butt"/><line x1="-731.3" y1="252.68" x2="-671.36" y2="395.04" stroke="#35b8ff" stroke-width="1.4" opacity="0.85" stroke-linecap="butt"/><line x1="-671.36" y1="395.04" x2="-654.23" y2="314.9" stroke="#35b8ff" stroke-width="1.4" opacity="0.85" stroke-linecap="butt"/><line x1="-654.23" y1="314.9" x2="-615.69" y2="468.6" stroke="#35b8ff" stroke-width="1.4" opacity="0.85" stroke-linecap="butt"/><line x1="-615.69" y1="468.6" x2="-585.72" y2="289.77" stroke="#35b8ff" stroke-width="1.4" opacity="0.85" stroke-linecap="butt"/><line x1="-585.72" y1="289.77" x2="-568.59" y2="354.73" stroke="#35b8ff" stroke-width="1.4" opacity="0.85" stroke-linecap="butt"/><line x1="-568.59" y1="354.73" x2="-555.74" y2="285.95" stroke="#35b8ff" stroke-width="1.4" opacity="0.85" stroke-linecap="butt"/><line x1="-555.74" y1="285.95" x2="-547.18" y2="349" stroke="#35b8ff" stroke-width="1.4" opacity="0.85" stroke-linecap="butt"/><line x1="-547.18" y1="349" x2="-525.77" y2="276.4" stroke="#35b8ff" stroke-width="1.4" opacity="0.85" stroke-linecap="butt"/><line x1="-525.77" y1="276.4" x2="-508.64" y2="330.85" stroke="#35b8ff" stroke-width="1.4" opacity="0.85" stroke-linecap="butt"/><line x1="-508.64" y1="330.85" x2="-423.01" y2="97.76" stroke="#35b8ff" stroke-width="1.4" opacity="0.85" stroke-linecap="butt"/><line x1="-423.01" y1="97.76" x2="-401.6" y2="198.98" stroke="#35b8ff" stroke-width="1.4" opacity="0.85" stroke-linecap="butt"/><line x1="-401.6" y1="198.98" x2="-393.03" y2="131.42" stroke="#35b8ff" stroke-width="1.4" opacity="0.85" stroke-linecap="butt"/><line x1="-393.03" y1="131.42" x2="-384.47" y2="233.72" stroke="#35b8ff" stroke-width="1.4" opacity="0.85" stroke-linecap="butt"/><line x1="-384.47" y1="233.72" x2="-363.06" y2="137.21" stroke="#35b8ff" stroke-width="1.4" opacity="0.85" stroke-linecap="butt"/><line x1="-363.06" y1="137.21" x2="-345.93" y2="211.52" stroke="#35b8ff" stroke-width="1.4" opacity="0.85" stroke-linecap="butt"/><line x1="-345.93" y1="211.52" x2="-328.81" y2="137.21" stroke="#35b8ff" stroke-width="1.4" opacity="0.85" stroke-linecap="butt"/><line x1="-328.81" y1="137.21" x2="-243.17" y2="325.41" stroke="#35b8ff" stroke-width="1.4" opacity="0.85" stroke-linecap="butt"/><line x1="-243.17" y1="325.41" x2="-238.89" y2="253.99" stroke="#35b8ff" stroke-width="1.4" opacity="0.85" stroke-linecap="butt"/><line x1="-238.89" y1="253.99" x2="-191.79" y2="392" stroke="#35b8ff" stroke-width="1.4" opacity="0.85" stroke-linecap="butt"/><line x1="-191.79" y1="392" x2="-123.28" y2="326.37" stroke="#35b8ff" stroke-width="1.4" opacity="0.85" stroke-linecap="butt"/><line x1="-123.28" y1="326.37" x2="-114.71" y2="387.18" stroke="#35b8ff" stroke-width="1.4" opacity="0.85" stroke-linecap="butt"/><line x1="-114.71" y1="387.18" x2="-67.61" y2="345.68" stroke="#35b8ff" stroke-width="1.4" opacity="0.85" stroke-linecap="butt"/><line x1="-67.61" y1="345.68" x2="-46.2" y2="406.48" stroke="#35b8ff" stroke-width="1.4" opacity="0.85" stroke-linecap="butt"/><line x1="-46.2" y1="406.48" x2="-11.95" y2="270.4" stroke="#35b8ff" stroke-width="1.4" opacity="0.85" stroke-linecap="butt"/><line x1="-11.95" y1="270.4" x2="0.9" y2="341.82" stroke="#35b8ff" stroke-width="1.4" opacity="0.85" stroke-linecap="butt"/><line x1="0.9" y1="341.82" x2="99.38" y2="60" stroke="#35b8ff" stroke-width="1.4" opacity="0.85" stroke-linecap="butt"/><line x1="99.38" y1="60" x2="163.61" y2="403.59" stroke="#35b8ff" stroke-width="1.4" opacity="0.85" stroke-linecap="butt"/><line x1="163.61" y1="403.59" x2="283.5" y2="127.56" stroke="#35b8ff" stroke-width="1.4" opacity="0.85" stroke-linecap="butt"/><line x1="283.5" y1="127.56" x2="377.7" y2="372.7" stroke="#35b8ff" stroke-width="1.4" opacity="0.85" stroke-linecap="butt"/><line x1="377.7" y1="372.7" x2="514.72" y2="48.41" stroke="#35b8ff" stroke-width="1.4" opacity="0.85" stroke-linecap="butt"/><line x1="514.72" y1="48.41" x2="583.23" y2="242.41" stroke="#35b8ff" stroke-width="1.4" opacity="0.85" stroke-linecap="butt"/><line x1="583.23" y1="242.41" x2="596.08" y2="164.23" stroke="#35b8ff" stroke-width="1.4" opacity="0.85" stroke-linecap="butt"/><line x1="596.08" y1="164.23" x2="617.49" y2="281.01" stroke="#35b8ff" stroke-width="1.4" opacity="0.85" stroke-linecap="butt"/><line x1="617.49" y1="236.4" x2="686" y2="236.4" stroke="#2a303c" stroke-width="1" stroke-dasharray="2,3" opacity="0.5" stroke-linecap="butt"/><text x="696" y="239.9" fill="#454b56" font-size="9.5" text-anchor="start" font-family="'JetBrains Mono', ui-monospace, monospace" font-weight="400">0.382 · 306.81</text><line x1="617.49" y1="222.62" x2="686" y2="222.62" stroke="#2a303c" stroke-width="1" stroke-dasharray="2,3" opacity="0.5" stroke-linecap="butt"/><text x="696" y="226.12" fill="#454b56" font-size="9.5" text-anchor="start" font-family="'JetBrains Mono', ui-monospace, monospace" font-weight="400">0.500 · 310.38</text><line x1="617.49" y1="208.84" x2="686" y2="208.84" stroke="#f5b400" stroke-width="1" stroke-dasharray="2,3" opacity="0.85" stroke-linecap="butt"/><text x="696" y="212.34" fill="#f5b400" font-size="9.5" text-anchor="start" font-family="'JetBrains Mono', ui-monospace, monospace" font-weight="700">0.618 · 313.94</text><line x1="617.49" y1="189.22" x2="686" y2="189.22" stroke="#f5b400" stroke-width="1" stroke-dasharray="2,3" opacity="0.85" stroke-linecap="butt"/><text x="696" y="192.72" fill="#f5b400" font-size="9.5" text-anchor="start" font-family="'JetBrains Mono', ui-monospace, monospace" font-weight="700">0.786 · 319.03</text><line x1="617.49" y1="312.78" x2="686" y2="312.78" stroke="#2a303c" stroke-width="1" stroke-dasharray="2,3" opacity="0.5" stroke-linecap="butt"/><text x="696" y="316.28" fill="#454b56" font-size="9.5" text-anchor="start" font-family="'JetBrains Mono', ui-monospace, monospace" font-weight="400">1.272 · 287.02</text><line x1="617.49" y1="353.18" x2="686" y2="353.18" stroke="#2a303c" stroke-width="1" stroke-dasharray="2,3" opacity="0.5" stroke-linecap="butt"/><text x="696" y="356.68" fill="#454b56" font-size="9.5" text-anchor="start" font-family="'JetBrains Mono', ui-monospace, monospace" font-weight="400">1.618 · 276.56</text><line x1="596.08" y1="358.22" x2="686" y2="358.22" stroke="#ff5c5c" stroke-width="1.6" stroke-dasharray="4,3" opacity="0.85" stroke-linecap="butt"/><text x="696" y="361.72" fill="#ff5c5c" font-size="10" text-anchor="start" font-family="'JetBrains Mono', ui-monospace, monospace" font-weight="700">D (hedef): 275.25</text><line x1="596.08" y1="410.99" x2="686" y2="410.99" stroke="#ff5c5c" stroke-width="1.6" stroke-dasharray="4,3" opacity="0.85" stroke-linecap="butt"/><text x="696" y="414.49" fill="#ff5c5c" font-size="10" text-anchor="start" font-family="'JetBrains Mono', ui-monospace, monospace" font-weight="700">D (hedef): 261.58</text><circle cx="283.5" cy="127.56" r="2.6" fill="#e7eaf0"/><circle cx="377.7" cy="372.7" r="2.6" fill="#e7eaf0"/><circle cx="514.72" cy="48.41" r="2.6" fill="#e7eaf0"/><circle cx="583.23" cy="242.41" r="2.6" fill="#e7eaf0"/><circle cx="596.08" cy="164.23" r="2.6" fill="#e7eaf0"/><circle cx="617.49" cy="281.01" r="2.6" fill="#e7eaf0"/><text x="283.5" y="120.56" fill="#6d7480" font-size="10" text-anchor="middle" font-family="'JetBrains Mono', ui-monospace, monospace" font-weight="600">LH</text><text x="377.7" y="387.7" fill="#6d7480" font-size="10" text-anchor="middle" font-family="'JetBrains Mono', ui-monospace, monospace" font-weight="600">HL</text><text x="514.72" y="41.41" fill="#6d7480" font-size="10" text-anchor="middle" font-family="'JetBrains Mono', ui-monospace, monospace" font-weight="600">HH</text><text x="583.23" y="257.41" fill="#6d7480" font-size="10" text-anchor="middle" font-family="'JetBrains Mono', ui-monospace, monospace" font-weight="600">HL</text><text x="596.08" y="157.23" fill="#6d7480" font-size="10" text-anchor="middle" font-family="'JetBrains Mono', ui-monospace, monospace" font-weight="600">LH</text><text x="617.49" y="296.01" fill="#6d7480" font-size="10" text-anchor="middle" font-family="'JetBrains Mono', ui-monospace, monospace" font-weight="600">LL</text></svg></svg>